<svg width="100" height="100" fill="none" xmlns="http://www.w3.org/2000/svg"><path d="M12.5 76.563h6.25v3.124H12.5v-3.124z" fill="#000"/><path d="M12.5 76.563h6.25v3.124H12.5v-3.124z" fill="url(#paint0_linear)"/><path d="M21.875 76.563h4.688v3.124h-4.688v-3.124z" fill="#000"/><path d="M21.875 76.563h4.688v3.124h-4.688v-3.124z" fill="url(#paint1_linear)"/><path d="M12.5 84.375h10.938V87.5H12.5v-3.125z" fill="#000"/><path d="M12.5 84.375h10.938V87.5H12.5v-3.125z" fill="url(#paint2_linear)"/><path d="M26.563 84.375h15.625V87.5H26.562v-3.125z" fill="#000"/><path d="M26.563 84.375h15.625V87.5H26.562v-3.125z" fill="url(#paint3_linear)"/><path d="M81.25 76.563h6.25v3.124h-6.25v-3.124z" fill="#000"/><path d="M81.25 76.563h6.25v3.124h-6.25v-3.124z" fill="url(#paint4_linear)"/><path d="M73.438 76.563h4.687v3.124h-4.688v-3.124z" fill="#000"/><path d="M73.438 76.563h4.687v3.124h-4.688v-3.124z" fill="url(#paint5_linear)"/><path d="M76.563 84.375H87.5V87.5H76.562v-3.125z" fill="#000"/><path d="M76.563 84.375H87.5V87.5H76.562v-3.125z" fill="url(#paint6_linear)"/><path d="M57.813 84.375h15.624V87.5H57.813v-3.125z" fill="#000"/><path d="M57.813 84.375h15.624V87.5H57.813v-3.125z" fill="url(#paint7_linear)"/><path d="M39.063 67.188h3.124v3.124h-3.124v-3.124z" fill="#000"/><path d="M39.063 67.188h3.124v3.124h-3.124v-3.124z" fill="url(#paint8_linear)"/><path d="M45.313 67.188h3.124v3.124h-3.124v-3.124z" fill="#000"/><path d="M45.313 67.188h3.124v3.124h-3.124v-3.124z" fill="url(#paint9_linear)"/><path d="M51.563 67.188h3.124v3.124h-3.124v-3.124z" fill="#000"/><path d="M51.563 67.188h3.124v3.124h-3.124v-3.124z" fill="url(#paint10_linear)"/><path d="M57.813 67.188h3.124v3.124h-3.124v-3.124z" fill="#000"/><path d="M57.813 67.188h3.124v3.124h-3.124v-3.124z" fill="url(#paint11_linear)"/><path d="M92.188 3.125H7.811a4.693 4.693 0 00-4.687 4.688v84.374a4.693 4.693 0 004.688 4.688h84.374a4.693 4.693 0 004.688-4.688V7.814a4.693 4.693 0 00-4.688-4.688zm1.562 4.688V12.5H35.34l-3.124-6.25h59.971a1.564 1.564 0 011.563 1.563zM7.812 6.25h20.91l3.125 6.25H6.25V7.812A1.564 1.564 0 017.813 6.25zm84.376 87.5H7.811a1.564 1.564 0 01-1.562-1.563V15.626h87.5v76.563a1.564 1.564 0 01-1.563 1.562z" fill="#000"/><path d="M92.188 3.125H7.811a4.693 4.693 0 00-4.687 4.688v84.374a4.693 4.693 0 004.688 4.688h84.374a4.693 4.693 0 004.688-4.688V7.814a4.693 4.693 0 00-4.688-4.688zm1.562 4.688V12.5H35.34l-3.124-6.25h59.971a1.564 1.564 0 011.563 1.563zM7.812 6.25h20.91l3.125 6.25H6.25V7.812A1.564 1.564 0 017.813 6.25zm84.376 87.5H7.811a1.564 1.564 0 01-1.562-1.563V15.626h87.5v76.563a1.564 1.564 0 01-1.563 1.562z" fill="url(#paint12_linear)"/><path d="M10.938 10.938a1.563 1.563 0 100-3.126 1.563 1.563 0 000 3.125z" fill="#000"/><path d="M10.938 10.938a1.563 1.563 0 100-3.126 1.563 1.563 0 000 3.125z" fill="url(#paint13_linear)"/><path d="M15.625 10.938a1.563 1.563 0 100-3.126 1.563 1.563 0 000 3.125z" fill="#000"/><path d="M15.625 10.938a1.563 1.563 0 100-3.126 1.563 1.563 0 000 3.125z" fill="url(#paint14_linear)"/><path d="M20.313 10.938a1.563 1.563 0 100-3.126 1.563 1.563 0 000 3.125z" fill="#000"/><path d="M20.313 10.938a1.563 1.563 0 100-3.126 1.563 1.563 0 000 3.125z" fill="url(#paint15_linear)"/><path d="M65.625 53.125V35.937a1.563 1.563 0 00-.804-1.365L50.76 26.759a1.562 1.562 0 00-1.518 0L35.18 34.572a1.562 1.562 0 00-.804 1.365v17.188a1.562 1.562 0 00.696 1.3l9.375 6.25c.257.171.558.262.867.262h9.374c.309 0 .61-.09.867-.262l9.375-6.25a1.563 1.563 0 00.696-1.3zM50 29.912l10.845 6.025L50 41.963l-10.845-6.026L50 29.912zm4.214 27.9h-8.428L37.5 52.29V38.593l11.741 6.523a1.563 1.563 0 001.518 0L62.5 38.593v13.696l-8.286 5.523z" fill="#000"/><path d="M65.625 53.125V35.937a1.563 1.563 0 00-.804-1.365L50.76 26.759a1.562 1.562 0 00-1.518 0L35.18 34.572a1.562 1.562 0 00-.804 1.365v17.188a1.562 1.562 0 00.696 1.3l9.375 6.25c.257.171.558.262.867.262h9.374c.309 0 .61-.09.867-.262l9.375-6.25a1.563 1.563 0 00.696-1.3zM50 29.912l10.845 6.025L50 41.963l-10.845-6.026L50 29.912zm4.214 27.9h-8.428L37.5 52.29V38.593l11.741 6.523a1.563 1.563 0 001.518 0L62.5 38.593v13.696l-8.286 5.523z" fill="url(#paint16_linear)"/><defs><linearGradient id="paint0_linear" x1="15.625" y1="76.563" x2="15.625" y2="79.688" gradientUnits="userSpaceOnUse"><stop stop-color="#FFE5AC"/><stop offset="0" stop-color="#FFE5AC"/><stop offset="1" stop-color="#B99C5D"/></linearGradient><linearGradient id="paint1_linear" x1="24.219" y1="76.563" x2="24.219" y2="79.688" gradientUnits="userSpaceOnUse"><stop stop-color="#FFE5AC"/><stop offset="0" stop-color="#FFE5AC"/><stop offset="1" stop-color="#B99C5D"/></linearGradient><linearGradient id="paint2_linear" x1="17.969" y1="84.375" x2="17.969" y2="87.5" gradientUnits="userSpaceOnUse"><stop stop-color="#FFE5AC"/><stop offset="0" stop-color="#FFE5AC"/><stop offset="1" stop-color="#B99C5D"/></linearGradient><linearGradient id="paint3_linear" x1="34.375" y1="84.375" x2="34.375" y2="87.5" gradientUnits="userSpaceOnUse"><stop stop-color="#FFE5AC"/><stop offset="0" stop-color="#FFE5AC"/><stop offset="1" stop-color="#B99C5D"/></linearGradient><linearGradient id="paint4_linear" x1="84.375" y1="76.563" x2="84.375" y2="79.688" gradientUnits="userSpaceOnUse"><stop stop-color="#FFE5AC"/><stop offset="0" stop-color="#FFE5AC"/><stop offset="1" stop-color="#B99C5D"/></linearGradient><linearGradient id="paint5_linear" x1="75.781" y1="76.563" x2="75.781" y2="79.688" gradientUnits="userSpaceOnUse"><stop stop-color="#FFE5AC"/><stop offset="0" stop-color="#FFE5AC"/><stop offset="1" stop-color="#B99C5D"/></linearGradient><linearGradient id="paint6_linear" x1="82.031" y1="84.375" x2="82.031" y2="87.5" gradientUnits="userSpaceOnUse"><stop stop-color="#FFE5AC"/><stop offset="0" stop-color="#FFE5AC"/><stop offset="1" stop-color="#B99C5D"/></linearGradient><linearGradient id="paint7_linear" x1="65.625" y1="84.375" x2="65.625" y2="87.5" gradientUnits="userSpaceOnUse"><stop stop-color="#FFE5AC"/><stop offset="0" stop-color="#FFE5AC"/><stop offset="1" stop-color="#B99C5D"/></linearGradient><linearGradient id="paint8_linear" x1="40.625" y1="67.188" x2="40.625" y2="70.313" gradientUnits="userSpaceOnUse"><stop stop-color="#FFE5AC"/><stop offset="0" stop-color="#FFE5AC"/><stop offset="1" stop-color="#B99C5D"/></linearGradient><linearGradient id="paint9_linear" x1="46.875" y1="67.188" x2="46.875" y2="70.313" gradientUnits="userSpaceOnUse"><stop stop-color="#FFE5AC"/><stop offset="0" stop-color="#FFE5AC"/><stop offset="1" stop-color="#B99C5D"/></linearGradient><linearGradient id="paint10_linear" x1="53.125" y1="67.188" x2="53.125" y2="70.313" gradientUnits="userSpaceOnUse"><stop stop-color="#FFE5AC"/><stop offset="0" stop-color="#FFE5AC"/><stop offset="1" stop-color="#B99C5D"/></linearGradient><linearGradient id="paint11_linear" x1="59.375" y1="67.188" x2="59.375" y2="70.313" gradientUnits="userSpaceOnUse"><stop stop-color="#FFE5AC"/><stop offset="0" stop-color="#FFE5AC"/><stop offset="1" stop-color="#B99C5D"/></linearGradient><linearGradient id="paint12_linear" x1="50" y1="3.125" x2="50" y2="96.875" gradientUnits="userSpaceOnUse"><stop stop-color="#FFE5AC"/><stop offset="0" stop-color="#FFE5AC"/><stop offset="1" stop-color="#B99C5D"/></linearGradient><linearGradient id="paint13_linear" x1="10.938" y1="7.813" x2="10.938" y2="10.938" gradientUnits="userSpaceOnUse"><stop stop-color="#FFE5AC"/><stop offset="0" stop-color="#FFE5AC"/><stop offset="1" stop-color="#B99C5D"/></linearGradient><linearGradient id="paint14_linear" x1="15.625" y1="7.813" x2="15.625" y2="10.938" gradientUnits="userSpaceOnUse"><stop stop-color="#FFE5AC"/><stop offset="0" stop-color="#FFE5AC"/><stop offset="1" stop-color="#B99C5D"/></linearGradient><linearGradient id="paint15_linear" x1="20.313" y1="7.813" x2="20.313" y2="10.938" gradientUnits="userSpaceOnUse"><stop stop-color="#FFE5AC"/><stop offset="0" stop-color="#FFE5AC"/><stop offset="1" stop-color="#B99C5D"/></linearGradient><linearGradient id="paint16_linear" x1="50" y1="26.563" x2="50" y2="60.937" gradientUnits="userSpaceOnUse"><stop stop-color="#FFE5AC"/><stop offset="0" stop-color="#FFE5AC"/><stop offset="1" stop-color="#B99C5D"/></linearGradient></defs></svg>