<svg width="100" height="100" fill="none" xmlns="http://www.w3.org/2000/svg"><path d="M89.063 12.5H81.25V9.375a6.25 6.25 0 00-12.5 0V12.5h-12.5V9.375a6.25 6.25 0 00-12.5 0V12.5h-12.5V9.375a6.25 6.25 0 00-12.5 0V12.5h-7.813a7.813 7.813 0 00-7.812 7.813v62.5a7.813 7.813 0 007.813 7.812h43.75a1.563 1.563 0 000-3.125h-43.75a4.702 4.702 0 01-4.688-4.688V34.376h87.5v26.563a1.563 1.563 0 003.125 0V20.312a7.813 7.813 0 00-7.813-7.812zM71.874 9.375a3.125 3.125 0 116.25 0v9.375a3.125 3.125 0 11-6.25 0V9.375zm-25 0a3.125 3.125 0 116.25 0v9.375a3.125 3.125 0 11-6.25 0V9.375zm-25 0a3.125 3.125 0 116.25 0v9.375a3.125 3.125 0 11-6.25 0V9.375zM93.75 31.25H6.25V20.312a4.702 4.702 0 014.688-4.687h7.812v3.125a6.25 6.25 0 0012.5 0v-3.125h12.5v3.125a6.25 6.25 0 0012.5 0v-3.125h12.5v3.125a6.25 6.25 0 0012.5 0v-3.125h7.813a4.702 4.702 0 014.687 4.688V31.25z" fill="url(#paint0_linear)"/><path d="M46.875 45.313a3.125 3.125 0 00-3.125-3.126H37.5a3.125 3.125 0 00-3.125 3.126V50a3.125 3.125 0 003.125 3.125h6.25A3.125 3.125 0 0046.875 50v-4.688zM37.5 50v-4.688h6.25V50H37.5z" fill="url(#paint1_linear)"/><path d="M28.125 45.313A3.125 3.125 0 0025 42.187h-6.25a3.125 3.125 0 00-3.125 3.126V50a3.125 3.125 0 003.125 3.125H25A3.125 3.125 0 0028.125 50v-4.688zM18.75 50v-4.688H25V50h-6.25z" fill="url(#paint2_linear)"/><path d="M81.25 53.125A3.125 3.125 0 0084.375 50v-4.688a3.125 3.125 0 00-3.125-3.124H75a3.125 3.125 0 00-3.125 3.124V50A3.125 3.125 0 0075 53.125h6.25zM75 45.312h6.25V50H75v-4.688z" fill="url(#paint3_linear)"/><path d="M46.875 59.375a3.125 3.125 0 00-3.125-3.125H37.5a3.125 3.125 0 00-3.125 3.125v4.688a3.125 3.125 0 003.125 3.124h6.25a3.125 3.125 0 003.125-3.124v-4.688zM37.5 64.063v-4.688h6.25v4.688H37.5z" fill="url(#paint4_linear)"/><path d="M28.125 59.375A3.125 3.125 0 0025 56.25h-6.25a3.125 3.125 0 00-3.125 3.125v4.688a3.125 3.125 0 003.125 3.124H25a3.125 3.125 0 003.125-3.124v-4.688zm-9.375 4.688v-4.688H25v4.688h-6.25z" fill="url(#paint5_linear)"/><path d="M43.75 70.313H37.5a3.125 3.125 0 00-3.125 3.124v4.688A3.125 3.125 0 0037.5 81.25h6.25a3.125 3.125 0 003.125-3.125v-4.688a3.125 3.125 0 00-3.125-3.124zm-6.25 7.812v-4.688h6.25v4.688H37.5z" fill="url(#paint6_linear)"/><path d="M56.25 53.125h6.25A3.125 3.125 0 0065.625 50v-4.688a3.125 3.125 0 00-3.125-3.124h-6.25a3.125 3.125 0 00-3.125 3.124V50a3.125 3.125 0 003.125 3.125zm0-7.813h6.25V50h-6.25v-4.688z" fill="url(#paint7_linear)"/><path d="M53.125 64.063a3.125 3.125 0 003.125 3.124 1.563 1.563 0 000-3.124v-4.688h6.25a1.563 1.563 0 000-3.125h-6.25a3.125 3.125 0 00-3.125 3.125v4.688z" fill="url(#paint8_linear)"/><path d="M25 70.313h-6.25a3.125 3.125 0 00-3.125 3.124v4.688a3.125 3.125 0 003.125 3.125H25a3.125 3.125 0 003.125-3.125v-4.688A3.125 3.125 0 0025 70.314zm-6.25 7.812v-4.688H25v4.688h-6.25z" fill="url(#paint9_linear)"/><path d="M76.562 56.25a20.312 20.312 0 1020.313 20.313A20.336 20.336 0 0076.562 56.25zm0 37.5A17.187 17.187 0 1193.75 76.562 17.208 17.208 0 0176.562 93.75z" fill="url(#paint10_linear)"/><path d="M85.59 70.012L73.438 82.165l-5.523-5.525a1.563 1.563 0 00-2.21 2.21l6.629 6.63a1.562 1.562 0 002.21 0L87.8 72.222a1.563 1.563 0 00-2.21-2.21z" fill="url(#paint11_linear)"/><defs><linearGradient id="paint0_linear" x1="50" y1="3.125" x2="50" y2="90.625" gradientUnits="userSpaceOnUse"><stop stop-color="#FFE5AC"/><stop offset="1" stop-color="#B99C5D"/></linearGradient><linearGradient id="paint1_linear" x1="40.625" y1="42.188" x2="40.625" y2="53.125" gradientUnits="userSpaceOnUse"><stop stop-color="#FFE5AC"/><stop offset="1" stop-color="#B99C5D"/></linearGradient><linearGradient id="paint2_linear" x1="21.875" y1="42.188" x2="21.875" y2="53.125" gradientUnits="userSpaceOnUse"><stop stop-color="#FFE5AC"/><stop offset="1" stop-color="#B99C5D"/></linearGradient><linearGradient id="paint3_linear" x1="78.125" y1="42.188" x2="78.125" y2="53.125" gradientUnits="userSpaceOnUse"><stop stop-color="#FFE5AC"/><stop offset="1" stop-color="#B99C5D"/></linearGradient><linearGradient id="paint4_linear" x1="40.625" y1="56.25" x2="40.625" y2="67.188" gradientUnits="userSpaceOnUse"><stop stop-color="#FFE5AC"/><stop offset="1" stop-color="#B99C5D"/></linearGradient><linearGradient id="paint5_linear" x1="21.875" y1="56.25" x2="21.875" y2="67.188" gradientUnits="userSpaceOnUse"><stop stop-color="#FFE5AC"/><stop offset="1" stop-color="#B99C5D"/></linearGradient><linearGradient id="paint6_linear" x1="40.625" y1="70.313" x2="40.625" y2="81.25" gradientUnits="userSpaceOnUse"><stop stop-color="#FFE5AC"/><stop offset="1" stop-color="#B99C5D"/></linearGradient><linearGradient id="paint7_linear" x1="59.375" y1="42.188" x2="59.375" y2="53.125" gradientUnits="userSpaceOnUse"><stop stop-color="#FFE5AC"/><stop offset="1" stop-color="#B99C5D"/></linearGradient><linearGradient id="paint8_linear" x1="58.594" y1="56.25" x2="58.594" y2="67.188" gradientUnits="userSpaceOnUse"><stop stop-color="#FFE5AC"/><stop offset="1" stop-color="#B99C5D"/></linearGradient><linearGradient id="paint9_linear" x1="21.875" y1="70.313" x2="21.875" y2="81.25" gradientUnits="userSpaceOnUse"><stop stop-color="#FFE5AC"/><stop offset="1" stop-color="#B99C5D"/></linearGradient><linearGradient id="paint10_linear" x1="76.562" y1="56.25" x2="76.562" y2="96.875" gradientUnits="userSpaceOnUse"><stop stop-color="#FFE5AC"/><stop offset="1" stop-color="#B99C5D"/></linearGradient><linearGradient id="paint11_linear" x1="76.752" y1="69.574" x2="76.752" y2="85.937" gradientUnits="userSpaceOnUse"><stop stop-color="#FFE5AC"/><stop offset="1" stop-color="#B99C5D"/></linearGradient></defs></svg>