<svg width="100" height="100" fill="none" xmlns="http://www.w3.org/2000/svg"><path d="M80.833 16.666a2.5 2.5 0 100 5 2.5 2.5 0 000-5z" fill="#000"/><path d="M80.833 16.666a2.5 2.5 0 100 5 2.5 2.5 0 000-5z" fill="url(#paint0_linear)"/><path d="M87.846.49a1.666 1.666 0 00-2.357 0L72.155 13.821A1.669 1.669 0 0071.667 15v11.666c0 .92.746 1.667 1.667 1.667h11.667c.442 0 .865-.175 1.178-.488l13.333-13.334a1.666 1.666 0 000-2.357L87.846.49zM84.31 25H75v-9.31L86.667 4.025l9.31 9.31L84.31 25z" fill="#000"/><path d="M87.846.49a1.666 1.666 0 00-2.357 0L72.155 13.821A1.669 1.669 0 0071.667 15v11.666c0 .92.746 1.667 1.667 1.667h11.667c.442 0 .865-.175 1.178-.488l13.333-13.334a1.666 1.666 0 000-2.357L87.846.49zM84.31 25H75v-9.31L86.667 4.025l9.31 9.31L84.31 25z" fill="url(#paint1_linear)"/><path d="M1.667 56.667h5v.213a6.453 6.453 0 005 6.273v15.18c0 .921.746 1.668 1.666 1.668h10c.92 0 1.667-.747 1.667-1.668v-6.666h1.68a5 5 0 004.987-4.987v-3.527a6.445 6.445 0 004.596-4.101l28.06 12.471A1.666 1.666 0 0066.666 70V30a1.665 1.665 0 00-2.343-1.523l-28.06 12.472a6.44 6.44 0 00-6.05-4.282H13.12a6.46 6.46 0 00-6.453 6.453v.214h-5C.747 43.334 0 44.08 0 45v10c0 .92.746 1.667 1.667 1.667zm55-21.14l6.666-2.962v34.87l-6.666-2.961V35.526zm-20 8.89l16.666-7.409V63l-16.666-7.417V44.417zM21.667 70v6.667H15V63.333h6.667V70zm6.666-3.32c0 .913-.74 1.653-1.653 1.654H25v-5h3.333v3.346zM10 55V43.12A3.124 3.124 0 0113.12 40h17.093a3.124 3.124 0 013.12 3.12v13.76a3.124 3.124 0 01-3.12 3.12H13.12A3.124 3.124 0 0110 56.88V55zm-6.667-8.333h3.334v6.666H3.333v-6.666z" fill="#000"/><path d="M1.667 56.667h5v.213a6.453 6.453 0 005 6.273v15.18c0 .921.746 1.668 1.666 1.668h10c.92 0 1.667-.747 1.667-1.668v-6.666h1.68a5 5 0 004.987-4.987v-3.527a6.445 6.445 0 004.596-4.101l28.06 12.471A1.666 1.666 0 0066.666 70V30a1.665 1.665 0 00-2.343-1.523l-28.06 12.472a6.44 6.44 0 00-6.05-4.282H13.12a6.46 6.46 0 00-6.453 6.453v.214h-5C.747 43.334 0 44.08 0 45v10c0 .92.746 1.667 1.667 1.667zm55-21.14l6.666-2.962v34.87l-6.666-2.961V35.526zm-20 8.89l16.666-7.409V63l-16.666-7.417V44.417zM21.667 70v6.667H15V63.333h6.667V70zm6.666-3.32c0 .913-.74 1.653-1.653 1.654H25v-5h3.333v3.346zM10 55V43.12A3.124 3.124 0 0113.12 40h17.093a3.124 3.124 0 013.12 3.12v13.76a3.124 3.124 0 01-3.12 3.12H13.12A3.124 3.124 0 0110 56.88V55zm-6.667-8.333h3.334v6.666H3.333v-6.666z" fill="url(#paint2_linear)"/><path d="M83.014 65.536a1.666 1.666 0 00-2.356 0L68.87 77.323c-.65.65-.65 1.706 0 2.357l16.5 16.5c.65.65 1.705.65 2.357 0l11.784-11.785a1.666 1.666 0 000-2.357L83.014 65.536zm10.957 15.667l-9.406-.721-.723-9.406 10.129 10.127zM86.549 92.64L72.406 78.5l8.045-8.045.902 11.707a1.667 1.667 0 001.532 1.535l11.71.9-8.046 8.043z" fill="#000"/><path d="M83.014 65.536a1.666 1.666 0 00-2.356 0L68.87 77.323c-.65.65-.65 1.706 0 2.357l16.5 16.5c.65.65 1.705.65 2.357 0l11.784-11.785a1.666 1.666 0 000-2.357L83.014 65.536zm10.957 15.667l-9.406-.721-.723-9.406 10.129 10.127zM86.549 92.64L72.406 78.5l8.045-8.045.902 11.707a1.667 1.667 0 001.532 1.535l11.71.9-8.046 8.043z" fill="url(#paint3_linear)"/><path d="M45 31.667c6.43.014 11.655-5.187 11.67-11.617a11.649 11.649 0 00-2.337-7.024L64.515 2.845 62.155.488 51.973 10.667C46.818 6.8 39.505 7.845 35.64 13c-3.866 5.154-2.822 12.467 2.333 16.334A11.674 11.674 0 0045 31.666zm0-20A8.334 8.334 0 1136.666 20 8.344 8.344 0 0145 11.666z" fill="#000"/><path d="M45 31.667c6.43.014 11.655-5.187 11.67-11.617a11.649 11.649 0 00-2.337-7.024L64.515 2.845 62.155.488 51.973 10.667C46.818 6.8 39.505 7.845 35.64 13c-3.866 5.154-2.822 12.467 2.333 16.334A11.674 11.674 0 0045 31.666zm0-20A8.334 8.334 0 1136.666 20 8.344 8.344 0 0145 11.666z" fill="url(#paint4_linear)"/><path d="M71.666 58.334H80V60c0 .92.746 1.667 1.667 1.667H95c.92 0 1.666-.746 1.666-1.667v-8.302a6.687 6.687 0 00-4.468-6.288 6.667 6.667 0 10-7.73 0 6.69 6.69 0 00-2.794 1.903 6.663 6.663 0 00-2.084-1.608 5 5 0 10-5.847 0A6.652 6.652 0 0070 51.666v5c0 .92.746 1.668 1.666 1.668zm16.667-21.667a3.333 3.333 0 110 6.666 3.333 3.333 0 010-6.666zm-5 20v-4.969a3.37 3.37 0 013.365-3.365h3.27a3.37 3.37 0 013.365 3.365v6.635h-10v-1.667zM76.667 40a1.666 1.666 0 110 3.333 1.666 1.666 0 010-3.333zm-3.334 11.666a3.333 3.333 0 116.667 0V55h-6.667v-3.334z" fill="#000"/><path d="M71.666 58.334H80V60c0 .92.746 1.667 1.667 1.667H95c.92 0 1.666-.746 1.666-1.667v-8.302a6.687 6.687 0 00-4.468-6.288 6.667 6.667 0 10-7.73 0 6.69 6.69 0 00-2.794 1.903 6.663 6.663 0 00-2.084-1.608 5 5 0 10-5.847 0A6.652 6.652 0 0070 51.666v5c0 .92.746 1.668 1.666 1.668zm16.667-21.667a3.333 3.333 0 110 6.666 3.333 3.333 0 010-6.666zm-5 20v-4.969a3.37 3.37 0 013.365-3.365h3.27a3.37 3.37 0 013.365 3.365v6.635h-10v-1.667zM76.667 40a1.666 1.666 0 110 3.333 1.666 1.666 0 010-3.333zm-3.334 11.666a3.333 3.333 0 116.667 0V55h-6.667v-3.334z" fill="url(#paint5_linear)"/><path d="M46.666 68.334H40a1.67 1.67 0 00-1.18.488l-9.999 10c-.65.65-.65 1.706 0 2.356l18.333 18.334a1.666 1.666 0 002.357 0l13.334-13.333c.65-.651.65-1.706 0-2.357l-15-15a1.667 1.667 0 00-1.179-.489zm1.667 27.643L32.357 80l8.332-8.333h5.288L59.31 85 48.333 95.977z" fill="#000"/><path d="M46.666 68.334H40a1.67 1.67 0 00-1.18.488l-9.999 10c-.65.65-.65 1.706 0 2.356l18.333 18.334a1.666 1.666 0 002.357 0l13.334-13.333c.65-.651.65-1.706 0-2.357l-15-15a1.667 1.667 0 00-1.179-.489zm1.667 27.643L32.357 80l8.332-8.333h5.288L59.31 85 48.333 95.977z" fill="url(#paint6_linear)"/><path d="M38.822 82.155l6.667-6.667 2.357 2.357-6.667 6.667-2.357-2.357z" fill="#000"/><path d="M38.822 82.155l6.667-6.667 2.357 2.357-6.667 6.667-2.357-2.357z" fill="url(#paint7_linear)"/><path d="M43.821 87.154l6.668-6.666 2.356 2.356-6.666 6.668-2.358-2.358z" fill="#000"/><path d="M43.821 87.154l6.668-6.666 2.356 2.356-6.666 6.668-2.358-2.358z" fill="url(#paint8_linear)"/><defs><linearGradient id="paint0_linear" x1="80.833" y1="16.666" x2="80.833" y2="21.667" gradientUnits="userSpaceOnUse"><stop stop-color="#FFE5AC"/><stop offset="0" stop-color="#FFE5AC"/><stop offset="1" stop-color="#B99C5D"/></linearGradient><linearGradient id="paint1_linear" x1="85.834" y1=".001" x2="85.834" y2="28.334" gradientUnits="userSpaceOnUse"><stop stop-color="#FFE5AC"/><stop offset="0" stop-color="#FFE5AC"/><stop offset="1" stop-color="#B99C5D"/></linearGradient><linearGradient id="paint2_linear" x1="33.333" y1="28.334" x2="33.333" y2="80.001" gradientUnits="userSpaceOnUse"><stop stop-color="#FFE5AC"/><stop offset="0" stop-color="#FFE5AC"/><stop offset="1" stop-color="#B99C5D"/></linearGradient><linearGradient id="paint3_linear" x1="84.192" y1="65.048" x2="84.192" y2="96.668" gradientUnits="userSpaceOnUse"><stop stop-color="#FFE5AC"/><stop offset="0" stop-color="#FFE5AC"/><stop offset="1" stop-color="#B99C5D"/></linearGradient><linearGradient id="paint4_linear" x1="48.91" y1=".488" x2="48.91" y2="31.667" gradientUnits="userSpaceOnUse"><stop stop-color="#FFE5AC"/><stop offset="0" stop-color="#FFE5AC"/><stop offset="1" stop-color="#B99C5D"/></linearGradient><linearGradient id="paint5_linear" x1="83.333" y1="33.31" x2="83.333" y2="61.667" gradientUnits="userSpaceOnUse"><stop stop-color="#FFE5AC"/><stop offset="0" stop-color="#FFE5AC"/><stop offset="1" stop-color="#B99C5D"/></linearGradient><linearGradient id="paint6_linear" x1="45.833" y1="68.334" x2="45.833" y2="100" gradientUnits="userSpaceOnUse"><stop stop-color="#FFE5AC"/><stop offset="0" stop-color="#FFE5AC"/><stop offset="1" stop-color="#B99C5D"/></linearGradient><linearGradient id="paint7_linear" x1="43.334" y1="75.488" x2="43.334" y2="84.512" gradientUnits="userSpaceOnUse"><stop stop-color="#FFE5AC"/><stop offset="0" stop-color="#FFE5AC"/><stop offset="1" stop-color="#B99C5D"/></linearGradient><linearGradient id="paint8_linear" x1="48.333" y1="80.488" x2="48.333" y2="89.512" gradientUnits="userSpaceOnUse"><stop stop-color="#FFE5AC"/><stop offset="0" stop-color="#FFE5AC"/><stop offset="1" stop-color="#B99C5D"/></linearGradient></defs></svg>