<svg width="100" height="100" fill="none" xmlns="http://www.w3.org/2000/svg"><path d="M51.105 66.083a1.561 1.561 0 00-2.422.266L38.79 81.893 18.108 61.209l15.544-9.892a1.562 1.562 0 00.265-2.423L18.292 33.269a1.56 1.56 0 00-2.21 0l-7.434 7.434a24.041 24.041 0 00-7.085 17.11 24.04 24.04 0 007.085 17.109l16.432 16.43a24.035 24.035 0 0017.108 7.085 24.03 24.03 0 0017.107-7.087l7.435-7.433a1.559 1.559 0 000-2.21L51.105 66.084zM17.188 36.584L30.33 49.728l-4.938 3.142-12.245-12.245 4.04-4.04zm25 58.728a20.93 20.93 0 01-14.899-6.171L10.858 72.713a20.936 20.936 0 01-6.17-14.9c0-5.629 2.19-10.92 6.17-14.9l.08-.079L22.691 54.59l-7.906 5.031a1.562 1.562 0 00-.266 2.424L37.958 85.48a1.562 1.562 0 002.422-.266l5.03-7.906 11.756 11.754-.08.08a20.931 20.931 0 01-14.898 6.17zm17.187-8.459L47.131 74.61l3.142-4.939 13.143 13.142-4.041 4.041z" fill="#000"/><path d="M51.105 66.083a1.561 1.561 0 00-2.422.266L38.79 81.893 18.108 61.209l15.544-9.892a1.562 1.562 0 00.265-2.423L18.292 33.269a1.56 1.56 0 00-2.21 0l-7.434 7.434a24.041 24.041 0 00-7.085 17.11 24.04 24.04 0 007.085 17.109l16.432 16.43a24.035 24.035 0 0017.108 7.085 24.03 24.03 0 0017.107-7.087l7.435-7.433a1.559 1.559 0 000-2.21L51.105 66.084zM17.188 36.584L30.33 49.728l-4.938 3.142-12.245-12.245 4.04-4.04zm25 58.728a20.93 20.93 0 01-14.899-6.171L10.858 72.713a20.936 20.936 0 01-6.17-14.9c0-5.629 2.19-10.92 6.17-14.9l.08-.079L22.691 54.59l-7.906 5.031a1.562 1.562 0 00-.266 2.424L37.958 85.48a1.562 1.562 0 002.422-.266l5.03-7.906 11.756 11.754-.08.08a20.931 20.931 0 01-14.898 6.17zm17.187-8.459L47.131 74.61l3.142-4.939 13.143 13.142-4.041 4.041z" fill="url(#paint0_linear)"/><path d="M98.016 2.058a1.565 1.565 0 00-1.591-.43L83.406 5.534a17.011 17.011 0 00-5.281-.846c-8.142 0-15.225 5.782-16.844 13.751l3.064.622c1.322-6.517 7.118-11.248 13.78-11.248 1.592 0 3.181.28 4.725.832.31.111.655.12.975.027l10.48-3.144-3.47 9.253c-.147.39-.13.825.045 1.205a13.909 13.909 0 011.308 5.889c0 7.753-6.308 14.063-14.063 14.063A14.073 14.073 0 0165.231 27.5l-2.862 1.25a17.191 17.191 0 0015.756 10.313c9.477 0 17.188-7.711 17.188-17.188 0-2.27-.446-4.484-1.329-6.592l4.354-11.61a1.562 1.562 0 00-.322-1.615z" fill="#000"/><path d="M98.016 2.058a1.565 1.565 0 00-1.591-.43L83.406 5.534a17.011 17.011 0 00-5.281-.846c-8.142 0-15.225 5.782-16.844 13.751l3.064.622c1.322-6.517 7.118-11.248 13.78-11.248 1.592 0 3.181.28 4.725.832.31.111.655.12.975.027l10.48-3.144-3.47 9.253c-.147.39-.13.825.045 1.205a13.909 13.909 0 011.308 5.889c0 7.753-6.308 14.063-14.063 14.063A14.073 14.073 0 0165.231 27.5l-2.862 1.25a17.191 17.191 0 0015.756 10.313c9.477 0 17.188-7.711 17.188-17.188 0-2.27-.446-4.484-1.329-6.592l4.354-11.61a1.562 1.562 0 00-.322-1.615z" fill="url(#paint1_linear)"/><path d="M60.938 53.125a13.98 13.98 0 01-4.725-.833 1.553 1.553 0 00-.975-.026l-10.48 3.143 3.47-9.253c.147-.39.13-.825-.045-1.204a13.91 13.91 0 01-1.308-5.89C46.875 31.31 53.183 25 60.938 25a14.073 14.073 0 0112.894 8.438l2.862-1.252a17.192 17.192 0 00-15.756-10.311c-9.477 0-17.188 7.71-17.188 17.188 0 2.27.446 4.484 1.328 6.592l-4.353 11.61a1.562 1.562 0 001.911 2.044l13.019-3.906c1.728.563 3.502.847 5.283.847 8.142 0 15.225-5.783 16.843-13.752l-3.064-.621c-1.321 6.517-7.117 11.248-13.78 11.248z" fill="#000"/><path d="M60.938 53.125a13.98 13.98 0 01-4.725-.833 1.553 1.553 0 00-.975-.026l-10.48 3.143 3.47-9.253c.147-.39.13-.825-.045-1.204a13.91 13.91 0 01-1.308-5.89C46.875 31.31 53.183 25 60.938 25a14.073 14.073 0 0112.894 8.438l2.862-1.252a17.192 17.192 0 00-15.756-10.311c-9.477 0-17.188 7.71-17.188 17.188 0 2.27.446 4.484 1.328 6.592l-4.353 11.61a1.562 1.562 0 001.911 2.044l13.019-3.906c1.728.563 3.502.847 5.283.847 8.142 0 15.225-5.783 16.843-13.752l-3.064-.621c-1.321 6.517-7.117 11.248-13.78 11.248z" fill="url(#paint2_linear)"/><path d="M53.125 37.5h3.125v3.125h-3.125V37.5z" fill="#000"/><path d="M53.125 37.5h3.125v3.125h-3.125V37.5z" fill="url(#paint3_linear)"/><path d="M59.375 37.5H62.5v3.125h-3.125V37.5z" fill="#000"/><path d="M59.375 37.5H62.5v3.125h-3.125V37.5z" fill="url(#paint4_linear)"/><path d="M65.625 37.5h3.125v3.125h-3.125V37.5z" fill="#000"/><path d="M65.625 37.5h3.125v3.125h-3.125V37.5z" fill="url(#paint5_linear)"/><path d="M70.313 20.313h3.124v3.125h-3.124v-3.125z" fill="#000"/><path d="M70.313 20.313h3.124v3.125h-3.124v-3.125z" fill="url(#paint6_linear)"/><path d="M76.563 20.313h3.124v3.125h-3.124v-3.125z" fill="#000"/><path d="M76.563 20.313h3.124v3.125h-3.124v-3.125z" fill="url(#paint7_linear)"/><path d="M82.813 20.313h3.124v3.125h-3.124v-3.125z" fill="#000"/><path d="M82.813 20.313h3.124v3.125h-3.124v-3.125z" fill="url(#paint8_linear)"/><defs><linearGradient id="paint0_linear" x1="34.375" y1="32.81" x2="34.375" y2="98.438" gradientUnits="userSpaceOnUse"><stop stop-color="#FFE5AC"/><stop offset="0" stop-color="#FFE5AC"/><stop offset="1" stop-color="#B99C5D"/></linearGradient><linearGradient id="paint1_linear" x1="79.859" y1="1.563" x2="79.859" y2="39.063" gradientUnits="userSpaceOnUse"><stop stop-color="#FFE5AC"/><stop offset="0" stop-color="#FFE5AC"/><stop offset="1" stop-color="#B99C5D"/></linearGradient><linearGradient id="paint2_linear" x1="59.204" y1="21.875" x2="59.204" y2="59.375" gradientUnits="userSpaceOnUse"><stop stop-color="#FFE5AC"/><stop offset="0" stop-color="#FFE5AC"/><stop offset="1" stop-color="#B99C5D"/></linearGradient><linearGradient id="paint3_linear" x1="54.688" y1="37.5" x2="54.688" y2="40.625" gradientUnits="userSpaceOnUse"><stop stop-color="#FFE5AC"/><stop offset="0" stop-color="#FFE5AC"/><stop offset="1" stop-color="#B99C5D"/></linearGradient><linearGradient id="paint4_linear" x1="60.938" y1="37.5" x2="60.938" y2="40.625" gradientUnits="userSpaceOnUse"><stop stop-color="#FFE5AC"/><stop offset="0" stop-color="#FFE5AC"/><stop offset="1" stop-color="#B99C5D"/></linearGradient><linearGradient id="paint5_linear" x1="67.188" y1="37.5" x2="67.188" y2="40.625" gradientUnits="userSpaceOnUse"><stop stop-color="#FFE5AC"/><stop offset="0" stop-color="#FFE5AC"/><stop offset="1" stop-color="#B99C5D"/></linearGradient><linearGradient id="paint6_linear" x1="71.875" y1="20.313" x2="71.875" y2="23.438" gradientUnits="userSpaceOnUse"><stop stop-color="#FFE5AC"/><stop offset="0" stop-color="#FFE5AC"/><stop offset="1" stop-color="#B99C5D"/></linearGradient><linearGradient id="paint7_linear" x1="78.125" y1="20.313" x2="78.125" y2="23.438" gradientUnits="userSpaceOnUse"><stop stop-color="#FFE5AC"/><stop offset="0" stop-color="#FFE5AC"/><stop offset="1" stop-color="#B99C5D"/></linearGradient><linearGradient id="paint8_linear" x1="84.375" y1="20.313" x2="84.375" y2="23.438" gradientUnits="userSpaceOnUse"><stop stop-color="#FFE5AC"/><stop offset="0" stop-color="#FFE5AC"/><stop offset="1" stop-color="#B99C5D"/></linearGradient></defs></svg>