<svg width="100" height="100" fill="none" xmlns="http://www.w3.org/2000/svg"><g clip-path="url(#clip0)"><path d="M91.936 70.968H41.639a4.773 4.773 0 00.296-1.613v-22.58a4.845 4.845 0 00-4.838-4.84H11.29a4.845 4.845 0 00-4.838 4.84v22.58c0 .616.127 1.2.337 1.742C2.95 71.713 0 75.023 0 79.032c0 4.447 3.618 8.065 8.065 8.065h9.719c-1.024 1.351-1.655 3.016-1.655 4.839 0 1.822.63 3.487 1.655 4.838H6.452V100h87.096v-3.226H82.216c1.024-1.351 1.655-3.016 1.655-4.838 0-1.823-.63-3.488-1.655-4.84h9.72c4.446 0 8.064-3.617 8.064-8.064 0-4.446-3.618-8.064-8.064-8.064zM19.355 45.16h9.677v3.226h-9.677V45.16zm-9.678 1.613c0-.888.723-1.613 1.613-1.613h4.839v6.452h16.13V45.16h4.838c.89 0 1.613.725 1.613 1.613v22.58c0 .89-.723 1.614-1.613 1.614h-4.839v-6.452H16.13v6.452h-4.84c-.89 0-1.613-.723-1.613-1.613v-22.58zm19.355 24.194h-9.677v-3.226h9.677v3.226zm-9.677 20.968a4.845 4.845 0 014.838-4.84 4.845 4.845 0 014.84 4.84 4.845 4.845 0 01-4.84 4.838 4.845 4.845 0 01-4.838-4.838zm35.484 0A4.845 4.845 0 0150 96.773a4.845 4.845 0 01-4.839-4.838A4.845 4.845 0 0150 87.096a4.845 4.845 0 014.839 4.84zm1.57-4.84h12.986c-1.022 1.352-1.653 3.017-1.653 4.84 0 1.822.63 3.487 1.655 4.838H56.41c1.023-1.351 1.654-3.016 1.654-4.838 0-1.823-.631-3.488-1.655-4.84zm-12.819 9.68H30.605c1.022-1.351 1.653-3.016 1.653-4.838 0-1.823-.63-3.488-1.655-4.84H43.59c-1.023 1.352-1.654 3.017-1.654 4.84 0 1.822.631 3.487 1.655 4.838zm37.055-4.838a4.845 4.845 0 01-4.839 4.838 4.845 4.845 0 01-4.838-4.838 4.845 4.845 0 014.838-4.84 4.845 4.845 0 014.84 4.84zm11.29-8.065H8.066a4.845 4.845 0 01-4.84-4.839 4.845 4.845 0 014.84-4.838h83.87a4.845 4.845 0 014.84 4.838 4.845 4.845 0 01-4.84 4.839z" fill="#191919"/><path d="M91.936 70.968H41.639a4.773 4.773 0 00.296-1.613v-22.58a4.845 4.845 0 00-4.838-4.84H11.29a4.845 4.845 0 00-4.838 4.84v22.58c0 .616.127 1.2.337 1.742C2.95 71.713 0 75.023 0 79.032c0 4.447 3.618 8.065 8.065 8.065h9.719c-1.024 1.351-1.655 3.016-1.655 4.839 0 1.822.63 3.487 1.655 4.838H6.452V100h87.096v-3.226H82.216c1.024-1.351 1.655-3.016 1.655-4.838 0-1.823-.63-3.488-1.655-4.84h9.72c4.446 0 8.064-3.617 8.064-8.064 0-4.446-3.618-8.064-8.064-8.064zM19.355 45.16h9.677v3.226h-9.677V45.16zm-9.678 1.613c0-.888.723-1.613 1.613-1.613h4.839v6.452h16.13V45.16h4.838c.89 0 1.613.725 1.613 1.613v22.58c0 .89-.723 1.614-1.613 1.614h-4.839v-6.452H16.13v6.452h-4.84c-.89 0-1.613-.723-1.613-1.613v-22.58zm19.355 24.194h-9.677v-3.226h9.677v3.226zm-9.677 20.968a4.845 4.845 0 014.838-4.84 4.845 4.845 0 014.84 4.84 4.845 4.845 0 01-4.84 4.838 4.845 4.845 0 01-4.838-4.838zm35.484 0A4.845 4.845 0 0150 96.773a4.845 4.845 0 01-4.839-4.838A4.845 4.845 0 0150 87.096a4.845 4.845 0 014.839 4.84zm1.57-4.84h12.986c-1.022 1.352-1.653 3.017-1.653 4.84 0 1.822.63 3.487 1.655 4.838H56.41c1.023-1.351 1.654-3.016 1.654-4.838 0-1.823-.631-3.488-1.655-4.84zm-12.819 9.68H30.605c1.022-1.351 1.653-3.016 1.653-4.838 0-1.823-.63-3.488-1.655-4.84H43.59c-1.023 1.352-1.654 3.017-1.654 4.84 0 1.822.631 3.487 1.655 4.838zm37.055-4.838a4.845 4.845 0 01-4.839 4.838 4.845 4.845 0 01-4.838-4.838 4.845 4.845 0 014.838-4.84 4.845 4.845 0 014.84 4.84zm11.29-8.065H8.066a4.845 4.845 0 01-4.84-4.839 4.845 4.845 0 014.84-4.838h83.87a4.845 4.845 0 014.84 4.838 4.845 4.845 0 01-4.84 4.839z" fill="url(#paint0_linear)"/><path d="M25.806 91.936a1.613 1.613 0 11-3.226 0 1.613 1.613 0 013.226 0z" fill="#191919"/><path d="M25.806 91.936a1.613 1.613 0 11-3.226 0 1.613 1.613 0 013.226 0z" fill="url(#paint1_linear)"/><path d="M12.903 79.032a1.613 1.613 0 11-3.226 0 1.613 1.613 0 013.226 0z" fill="#191919"/><path d="M12.903 79.032a1.613 1.613 0 11-3.226 0 1.613 1.613 0 013.226 0z" fill="url(#paint2_linear)"/><path d="M25.806 79.032a1.613 1.613 0 11-3.225 0 1.613 1.613 0 013.225 0z" fill="#191919"/><path d="M25.806 79.032a1.613 1.613 0 11-3.225 0 1.613 1.613 0 013.225 0z" fill="url(#paint3_linear)"/><path d="M38.71 79.032a1.613 1.613 0 11-3.226 0 1.613 1.613 0 013.226 0z" fill="#191919"/><path d="M38.71 79.032a1.613 1.613 0 11-3.226 0 1.613 1.613 0 013.226 0z" fill="url(#paint4_linear)"/><path d="M51.613 79.032a1.613 1.613 0 11-3.226 0 1.613 1.613 0 013.226 0z" fill="#191919"/><path d="M51.613 79.032a1.613 1.613 0 11-3.226 0 1.613 1.613 0 013.226 0z" fill="url(#paint5_linear)"/><path d="M64.516 79.032a1.613 1.613 0 11-3.226 0 1.613 1.613 0 013.226 0z" fill="#191919"/><path d="M64.516 79.032a1.613 1.613 0 11-3.226 0 1.613 1.613 0 013.226 0z" fill="url(#paint6_linear)"/><path d="M77.42 79.032a1.613 1.613 0 11-3.227 0 1.613 1.613 0 013.226 0z" fill="#191919"/><path d="M77.42 79.032a1.613 1.613 0 11-3.227 0 1.613 1.613 0 013.226 0z" fill="url(#paint7_linear)"/><path d="M90.323 79.032a1.613 1.613 0 11-3.226 0 1.613 1.613 0 013.226 0z" fill="#191919"/><path d="M90.323 79.032a1.613 1.613 0 11-3.226 0 1.613 1.613 0 013.226 0z" fill="url(#paint8_linear)"/><path d="M51.613 91.936a1.613 1.613 0 11-3.226 0 1.613 1.613 0 013.226 0z" fill="#191919"/><path d="M51.613 91.936a1.613 1.613 0 11-3.226 0 1.613 1.613 0 013.226 0z" fill="url(#paint9_linear)"/><path d="M77.42 91.936a1.613 1.613 0 11-3.227 0 1.613 1.613 0 013.226 0z" fill="#191919"/><path d="M77.42 91.936a1.613 1.613 0 11-3.227 0 1.613 1.613 0 013.226 0z" fill="url(#paint10_linear)"/><path d="M0 96.774h3.226V100H0v-3.226z" fill="#191919"/><path d="M0 96.774h3.226V100H0v-3.226z" fill="url(#paint11_linear)"/><path d="M96.774 96.774H100V100h-3.226v-3.226z" fill="#191919"/><path d="M96.774 96.774H100V100h-3.226v-3.226z" fill="url(#paint12_linear)"/><path d="M50 67.742h25.806a4.845 4.845 0 004.839-4.839v-22.58a4.845 4.845 0 00-4.839-4.84H50a4.845 4.845 0 00-4.839 4.84v22.58A4.845 4.845 0 0050 67.742zm17.742-3.226h-9.678V61.29h9.678v3.226zM58.064 38.71h9.678v3.225h-9.678V38.71zm-9.677 1.613c0-.889.723-1.613 1.613-1.613h4.839v6.451h16.129V38.71h4.838c.89 0 1.613.724 1.613 1.613v22.58c0 .89-.723 1.613-1.613 1.613h-4.838v-6.452h-16.13v6.452H50c-.89 0-1.613-.723-1.613-1.613v-22.58z" fill="#191919"/><path d="M50 67.742h25.806a4.845 4.845 0 004.839-4.839v-22.58a4.845 4.845 0 00-4.839-4.84H50a4.845 4.845 0 00-4.839 4.84v22.58A4.845 4.845 0 0050 67.742zm17.742-3.226h-9.678V61.29h9.678v3.226zM58.064 38.71h9.678v3.225h-9.678V38.71zm-9.677 1.613c0-.889.723-1.613 1.613-1.613h4.839v6.451h16.129V38.71h4.838c.89 0 1.613.724 1.613 1.613v22.58c0 .89-.723 1.613-1.613 1.613h-4.838v-6.452h-16.13v6.452H50c-.89 0-1.613-.723-1.613-1.613v-22.58z" fill="url(#paint13_linear)"/><path d="M95.161 0H69.355a4.845 4.845 0 00-4.839 4.839v22.58a4.845 4.845 0 004.839 4.84H95.16a4.845 4.845 0 004.839-4.84V4.84A4.845 4.845 0 0095.161 0zM77.42 3.226h9.678v3.226H77.42V3.226zm9.678 25.806H77.42v-3.226h9.678v3.226zm9.677-1.613c0 .889-.723 1.613-1.613 1.613h-4.838v-6.451h-16.13v6.451h-4.838c-.89 0-1.613-.724-1.613-1.613V4.84c0-.889.723-1.613 1.613-1.613h4.838v6.451h16.13V3.226h4.838c.89 0 1.613.724 1.613 1.613v22.58z" fill="#191919"/><path d="M95.161 0H69.355a4.845 4.845 0 00-4.839 4.839v22.58a4.845 4.845 0 004.839 4.84H95.16a4.845 4.845 0 004.839-4.84V4.84A4.845 4.845 0 0095.161 0zM77.42 3.226h9.678v3.226H77.42V3.226zm9.678 25.806H77.42v-3.226h9.678v3.226zm9.677-1.613c0 .889-.723 1.613-1.613 1.613h-4.838v-6.451h-16.13v6.451h-4.838c-.89 0-1.613-.724-1.613-1.613V4.84c0-.889.723-1.613 1.613-1.613h4.838v6.451h16.13V3.226h4.838c.89 0 1.613.724 1.613 1.613v22.58z" fill="url(#paint14_linear)"/></g><defs><linearGradient id="paint0_linear" x1="50" y1="41.935" x2="50" y2="100" gradientUnits="userSpaceOnUse"><stop stop-color="#FFE5AC"/><stop offset="0" stop-color="#FFE5AC"/><stop offset="1" stop-color="#B99C5D"/></linearGradient><linearGradient id="paint1_linear" x1="24.194" y1="90.323" x2="24.194" y2="93.549" gradientUnits="userSpaceOnUse"><stop stop-color="#FFE5AC"/><stop offset="0" stop-color="#FFE5AC"/><stop offset="1" stop-color="#B99C5D"/></linearGradient><linearGradient id="paint2_linear" x1="11.29" y1="77.419" x2="11.29" y2="80.645" gradientUnits="userSpaceOnUse"><stop stop-color="#FFE5AC"/><stop offset="0" stop-color="#FFE5AC"/><stop offset="1" stop-color="#B99C5D"/></linearGradient><linearGradient id="paint3_linear" x1="24.194" y1="77.419" x2="24.194" y2="80.645" gradientUnits="userSpaceOnUse"><stop stop-color="#FFE5AC"/><stop offset="0" stop-color="#FFE5AC"/><stop offset="1" stop-color="#B99C5D"/></linearGradient><linearGradient id="paint4_linear" x1="37.097" y1="77.419" x2="37.097" y2="80.645" gradientUnits="userSpaceOnUse"><stop stop-color="#FFE5AC"/><stop offset="0" stop-color="#FFE5AC"/><stop offset="1" stop-color="#B99C5D"/></linearGradient><linearGradient id="paint5_linear" x1="50" y1="77.419" x2="50" y2="80.645" gradientUnits="userSpaceOnUse"><stop stop-color="#FFE5AC"/><stop offset="0" stop-color="#FFE5AC"/><stop offset="1" stop-color="#B99C5D"/></linearGradient><linearGradient id="paint6_linear" x1="62.903" y1="77.419" x2="62.903" y2="80.645" gradientUnits="userSpaceOnUse"><stop stop-color="#FFE5AC"/><stop offset="0" stop-color="#FFE5AC"/><stop offset="1" stop-color="#B99C5D"/></linearGradient><linearGradient id="paint7_linear" x1="75.806" y1="77.419" x2="75.806" y2="80.645" gradientUnits="userSpaceOnUse"><stop stop-color="#FFE5AC"/><stop offset="0" stop-color="#FFE5AC"/><stop offset="1" stop-color="#B99C5D"/></linearGradient><linearGradient id="paint8_linear" x1="88.71" y1="77.419" x2="88.71" y2="80.645" gradientUnits="userSpaceOnUse"><stop stop-color="#FFE5AC"/><stop offset="0" stop-color="#FFE5AC"/><stop offset="1" stop-color="#B99C5D"/></linearGradient><linearGradient id="paint9_linear" x1="50" y1="90.323" x2="50" y2="93.549" gradientUnits="userSpaceOnUse"><stop stop-color="#FFE5AC"/><stop offset="0" stop-color="#FFE5AC"/><stop offset="1" stop-color="#B99C5D"/></linearGradient><linearGradient id="paint10_linear" x1="75.806" y1="90.323" x2="75.806" y2="93.549" gradientUnits="userSpaceOnUse"><stop stop-color="#FFE5AC"/><stop offset="0" stop-color="#FFE5AC"/><stop offset="1" stop-color="#B99C5D"/></linearGradient><linearGradient id="paint11_linear" x1="1.613" y1="96.774" x2="1.613" y2="100" gradientUnits="userSpaceOnUse"><stop stop-color="#FFE5AC"/><stop offset="0" stop-color="#FFE5AC"/><stop offset="1" stop-color="#B99C5D"/></linearGradient><linearGradient id="paint12_linear" x1="98.387" y1="96.774" x2="98.387" y2="100" gradientUnits="userSpaceOnUse"><stop stop-color="#FFE5AC"/><stop offset="0" stop-color="#FFE5AC"/><stop offset="1" stop-color="#B99C5D"/></linearGradient><linearGradient id="paint13_linear" x1="62.903" y1="35.484" x2="62.903" y2="67.742" gradientUnits="userSpaceOnUse"><stop stop-color="#FFE5AC"/><stop offset="0" stop-color="#FFE5AC"/><stop offset="1" stop-color="#B99C5D"/></linearGradient><linearGradient id="paint14_linear" x1="82.258" y1="0" x2="82.258" y2="32.258" gradientUnits="userSpaceOnUse"><stop stop-color="#FFE5AC"/><stop offset="0" stop-color="#FFE5AC"/><stop offset="1" stop-color="#B99C5D"/></linearGradient><clipPath id="clip0"><path fill="#fff" d="M0 0h100v100H0z"/></clipPath></defs></svg>