<svg width="100" height="100" fill="none" xmlns="http://www.w3.org/2000/svg"><path d="M95.404 4.697H4.596A4.601 4.601 0 000 9.293v62.626a4.601 4.601 0 004.596 4.596h32.98v9.596h-6.364a3.034 3.034 0 00-3.03 3.03v3.131a3.034 3.034 0 003.03 3.031h37.576c1.67 0 3.03-1.36 3.03-3.03V89.14c0-1.67-1.36-3.03-3.03-3.03h-6.364v-9.596h32.98A4.601 4.601 0 00100 71.92V9.293a4.601 4.601 0 00-4.596-4.596zM68.788 89.04a.1.1 0 01.1.101v3.131a.1.1 0 01-.1.101H31.212a.1.1 0 01-.1-.1V89.14a.1.1 0 01.1-.1h20.354a1.465 1.465 0 100-2.93h-11.06v-9.596h18.989v9.596h-1.667a1.465 1.465 0 000 2.93h10.96zM97.07 71.92c0 .919-.747 1.666-1.666 1.666H4.596A1.668 1.668 0 012.93 71.92V9.293c0-.92.747-1.667 1.666-1.667h90.808c.919 0 1.666.748 1.666 1.667v62.626z" fill="#000"/><path d="M95.404 4.697H4.596A4.601 4.601 0 000 9.293v62.626a4.601 4.601 0 004.596 4.596h32.98v9.596h-6.364a3.034 3.034 0 00-3.03 3.03v3.131a3.034 3.034 0 003.03 3.031h37.576c1.67 0 3.03-1.36 3.03-3.03V89.14c0-1.67-1.36-3.03-3.03-3.03h-6.364v-9.596h32.98A4.601 4.601 0 00100 71.92V9.293a4.601 4.601 0 00-4.596-4.596zM68.788 89.04a.1.1 0 01.1.101v3.131a.1.1 0 01-.1.101H31.212a.1.1 0 01-.1-.1V89.14a.1.1 0 01.1-.1h20.354a1.465 1.465 0 100-2.93h-11.06v-9.596h18.989v9.596h-1.667a1.465 1.465 0 000 2.93h10.96zM97.07 71.92c0 .919-.747 1.666-1.666 1.666H4.596A1.668 1.668 0 012.93 71.92V9.293c0-.92.747-1.667 1.666-1.667h90.808c.919 0 1.666.748 1.666 1.667v62.626z" fill="url(#paint0_linear)"/><path d="M92.272 10.96H7.727c-.81 0-1.465.655-1.465 1.464v56.364c0 .809.656 1.465 1.465 1.465h84.545c.809 0 1.465-.656 1.465-1.465V12.424c0-.809-.656-1.464-1.465-1.464zm-58.03 9.192h17.424v3.333H34.242v-3.333zm-2.93 47.171H9.192V20.152h22.12v47.171zm0-50.101H9.192v-3.333h22.12v3.333zm59.495 50.1H34.242V26.415h56.565v40.909zM54.595 23.486v-3.333h15.86v3.333h-15.86zm36.212-6.263H86.01a1.465 1.465 0 100 2.93h4.797v3.333H73.384v-3.333h6.362a1.465 1.465 0 100-2.93H34.242V13.89h56.565v3.333z" fill="#000"/><path d="M92.272 10.96H7.727c-.81 0-1.465.655-1.465 1.464v56.364c0 .809.656 1.465 1.465 1.465h84.545c.809 0 1.465-.656 1.465-1.465V12.424c0-.809-.656-1.464-1.465-1.464zm-58.03 9.192h17.424v3.333H34.242v-3.333zm-2.93 47.171H9.192V20.152h22.12v47.171zm0-50.101H9.192v-3.333h22.12v3.333zm59.495 50.1H34.242V26.415h56.565v40.909zM54.595 23.486v-3.333h15.86v3.333h-15.86zm36.212-6.263H86.01a1.465 1.465 0 100 2.93h4.797v3.333H73.384v-3.333h6.362a1.465 1.465 0 100-2.93H34.242V13.89h56.565v3.333z" fill="url(#paint1_linear)"/><path d="M15.556 23.484H13.99a1.465 1.465 0 100 2.93h1.566a1.465 1.465 0 000-2.93z" fill="#000"/><path d="M15.556 23.484H13.99a1.465 1.465 0 100 2.93h1.566a1.465 1.465 0 000-2.93z" fill="url(#paint2_linear)"/><path d="M26.515 23.484h-4.697a1.465 1.465 0 100 2.93h4.697a1.465 1.465 0 100-2.93z" fill="#000"/><path d="M26.515 23.484h-4.697a1.465 1.465 0 100 2.93h4.697a1.465 1.465 0 100-2.93z" fill="url(#paint3_linear)"/><path d="M15.556 29.747H13.99a1.465 1.465 0 100 2.93h1.566a1.465 1.465 0 000-2.93z" fill="#000"/><path d="M15.556 29.747H13.99a1.465 1.465 0 100 2.93h1.566a1.465 1.465 0 000-2.93z" fill="url(#paint4_linear)"/><path d="M26.515 29.747h-4.697a1.465 1.465 0 100 2.93h4.697a1.465 1.465 0 100-2.93z" fill="#000"/><path d="M26.515 29.747h-4.697a1.465 1.465 0 100 2.93h4.697a1.465 1.465 0 100-2.93z" fill="url(#paint5_linear)"/><path d="M15.556 36.01H13.99a1.465 1.465 0 100 2.93h1.566a1.465 1.465 0 000-2.93z" fill="#000"/><path d="M15.556 36.01H13.99a1.465 1.465 0 100 2.93h1.566a1.465 1.465 0 000-2.93z" fill="url(#paint6_linear)"/><path d="M26.515 36.01h-4.697a1.465 1.465 0 100 2.93h4.697a1.465 1.465 0 100-2.93z" fill="#000"/><path d="M26.515 36.01h-4.697a1.465 1.465 0 100 2.93h4.697a1.465 1.465 0 100-2.93z" fill="url(#paint7_linear)"/><path d="M15.556 42.273H13.99a1.465 1.465 0 100 2.93h1.566a1.465 1.465 0 000-2.93z" fill="#000"/><path d="M15.556 42.273H13.99a1.465 1.465 0 100 2.93h1.566a1.465 1.465 0 000-2.93z" fill="url(#paint8_linear)"/><path d="M26.515 42.273h-4.697a1.465 1.465 0 100 2.93h4.697a1.465 1.465 0 100-2.93z" fill="#000"/><path d="M26.515 42.273h-4.697a1.465 1.465 0 100 2.93h4.697a1.465 1.465 0 100-2.93z" fill="url(#paint9_linear)"/><path d="M15.556 48.535H13.99a1.465 1.465 0 100 2.93h1.566a1.465 1.465 0 000-2.93z" fill="#000"/><path d="M15.556 48.535H13.99a1.465 1.465 0 100 2.93h1.566a1.465 1.465 0 000-2.93z" fill="url(#paint10_linear)"/><path d="M26.515 48.535h-4.697a1.465 1.465 0 100 2.93h4.697a1.465 1.465 0 100-2.93z" fill="#000"/><path d="M26.515 48.535h-4.697a1.465 1.465 0 100 2.93h4.697a1.465 1.465 0 100-2.93z" fill="url(#paint11_linear)"/><path d="M86.009 37.575h-1.408c-.618 0-1.17.387-1.379.969l-4.258 11.828-4.258-11.828a1.465 1.465 0 00-1.378-.969h-1.41c-.808 0-1.464.656-1.464 1.465v15.657a1.465 1.465 0 102.93 0V43.519l4.132 11.479c.035.175.114.348.25.541a1.464 1.464 0 002.58-.355l4.199-11.663v11.176a1.465 1.465 0 102.93 0V39.04a1.466 1.466 0 00-1.466-1.465z" fill="#000"/><path d="M86.009 37.575h-1.408c-.618 0-1.17.387-1.379.969l-4.258 11.828-4.258-11.828a1.465 1.465 0 00-1.378-.969h-1.41c-.808 0-1.464.656-1.464 1.465v15.657a1.465 1.465 0 102.93 0V43.519l4.132 11.479c.035.175.114.348.25.541a1.464 1.464 0 002.58-.355l4.199-11.663v11.176a1.465 1.465 0 102.93 0V39.04a1.466 1.466 0 00-1.466-1.465z" fill="url(#paint12_linear)"/><path d="M64.045 49.502a6.17 6.17 0 003.99-5.765 6.169 6.169 0 00-6.162-6.162H55.61c-.809 0-1.465.656-1.465 1.465v15.657a1.465 1.465 0 102.93 0v-4.798h3.893l2.726 5.453a1.464 1.464 0 102.62-1.31l-2.27-4.54zm-2.172-2.533h-4.798v-6.464h4.798a3.236 3.236 0 013.232 3.232 3.236 3.236 0 01-3.232 3.232z" fill="#000"/><path d="M64.045 49.502a6.17 6.17 0 003.99-5.765 6.169 6.169 0 00-6.162-6.162H55.61c-.809 0-1.465.656-1.465 1.465v15.657a1.465 1.465 0 102.93 0v-4.798h3.893l2.726 5.453a1.464 1.464 0 102.62-1.31l-2.27-4.54zm-2.172-2.533h-4.798v-6.464h4.798a3.236 3.236 0 013.232 3.232 3.236 3.236 0 01-3.232 3.232z" fill="url(#paint13_linear)"/><path d="M50.97 51.477a1.465 1.465 0 00-2.067.13 4.803 4.803 0 01-3.6 1.625 4.803 4.803 0 01-4.797-4.798v-3.131a4.803 4.803 0 014.797-4.798c1.377 0 2.689.592 3.6 1.626a1.465 1.465 0 002.197-1.938 7.733 7.733 0 00-5.797-2.618c-4.26 0-7.727 3.467-7.727 7.728v3.131c0 4.261 3.467 7.727 7.727 7.727a7.733 7.733 0 005.797-2.616 1.465 1.465 0 00-.13-2.068z" fill="#000"/><path d="M50.97 51.477a1.465 1.465 0 00-2.067.13 4.803 4.803 0 01-3.6 1.625 4.803 4.803 0 01-4.797-4.798v-3.131a4.803 4.803 0 014.797-4.798c1.377 0 2.689.592 3.6 1.626a1.465 1.465 0 002.197-1.938 7.733 7.733 0 00-5.797-2.618c-4.26 0-7.727 3.467-7.727 7.728v3.131c0 4.261 3.467 7.727 7.727 7.727a7.733 7.733 0 005.797-2.616 1.465 1.465 0 00-.13-2.068z" fill="url(#paint14_linear)"/><defs><linearGradient id="paint0_linear" x1="50" y1="4.697" x2="50" y2="95.303" gradientUnits="userSpaceOnUse"><stop stop-color="#FFE5AC"/><stop offset="0" stop-color="#FFE5AC"/><stop offset="1" stop-color="#B99C5D"/></linearGradient><linearGradient id="paint1_linear" x1="49.999" y1="10.96" x2="49.999" y2="70.253" gradientUnits="userSpaceOnUse"><stop stop-color="#FFE5AC"/><stop offset="0" stop-color="#FFE5AC"/><stop offset="1" stop-color="#B99C5D"/></linearGradient><linearGradient id="paint2_linear" x1="14.773" y1="23.484" x2="14.773" y2="26.414" gradientUnits="userSpaceOnUse"><stop stop-color="#FFE5AC"/><stop offset="0" stop-color="#FFE5AC"/><stop offset="1" stop-color="#B99C5D"/></linearGradient><linearGradient id="paint3_linear" x1="24.167" y1="23.484" x2="24.167" y2="26.414" gradientUnits="userSpaceOnUse"><stop stop-color="#FFE5AC"/><stop offset="0" stop-color="#FFE5AC"/><stop offset="1" stop-color="#B99C5D"/></linearGradient><linearGradient id="paint4_linear" x1="14.773" y1="29.747" x2="14.773" y2="32.677" gradientUnits="userSpaceOnUse"><stop stop-color="#FFE5AC"/><stop offset="0" stop-color="#FFE5AC"/><stop offset="1" stop-color="#B99C5D"/></linearGradient><linearGradient id="paint5_linear" x1="24.167" y1="29.747" x2="24.167" y2="32.677" gradientUnits="userSpaceOnUse"><stop stop-color="#FFE5AC"/><stop offset="0" stop-color="#FFE5AC"/><stop offset="1" stop-color="#B99C5D"/></linearGradient><linearGradient id="paint6_linear" x1="14.773" y1="36.01" x2="14.773" y2="38.94" gradientUnits="userSpaceOnUse"><stop stop-color="#FFE5AC"/><stop offset="0" stop-color="#FFE5AC"/><stop offset="1" stop-color="#B99C5D"/></linearGradient><linearGradient id="paint7_linear" x1="24.167" y1="36.01" x2="24.167" y2="38.94" gradientUnits="userSpaceOnUse"><stop stop-color="#FFE5AC"/><stop offset="0" stop-color="#FFE5AC"/><stop offset="1" stop-color="#B99C5D"/></linearGradient><linearGradient id="paint8_linear" x1="14.773" y1="42.273" x2="14.773" y2="45.202" gradientUnits="userSpaceOnUse"><stop stop-color="#FFE5AC"/><stop offset="0" stop-color="#FFE5AC"/><stop offset="1" stop-color="#B99C5D"/></linearGradient><linearGradient id="paint9_linear" x1="24.167" y1="42.273" x2="24.167" y2="45.202" gradientUnits="userSpaceOnUse"><stop stop-color="#FFE5AC"/><stop offset="0" stop-color="#FFE5AC"/><stop offset="1" stop-color="#B99C5D"/></linearGradient><linearGradient id="paint10_linear" x1="14.773" y1="48.535" x2="14.773" y2="51.465" gradientUnits="userSpaceOnUse"><stop stop-color="#FFE5AC"/><stop offset="0" stop-color="#FFE5AC"/><stop offset="1" stop-color="#B99C5D"/></linearGradient><linearGradient id="paint11_linear" x1="24.167" y1="48.535" x2="24.167" y2="51.465" gradientUnits="userSpaceOnUse"><stop stop-color="#FFE5AC"/><stop offset="0" stop-color="#FFE5AC"/><stop offset="1" stop-color="#B99C5D"/></linearGradient><linearGradient id="paint12_linear" x1="78.964" y1="37.575" x2="78.964" y2="56.162" gradientUnits="userSpaceOnUse"><stop stop-color="#FFE5AC"/><stop offset="0" stop-color="#FFE5AC"/><stop offset="1" stop-color="#B99C5D"/></linearGradient><linearGradient id="paint13_linear" x1="61.09" y1="37.575" x2="61.09" y2="56.162" gradientUnits="userSpaceOnUse"><stop stop-color="#FFE5AC"/><stop offset="0" stop-color="#FFE5AC"/><stop offset="1" stop-color="#B99C5D"/></linearGradient><linearGradient id="paint14_linear" x1="44.521" y1="37.575" x2="44.521" y2="56.161" gradientUnits="userSpaceOnUse"><stop stop-color="#FFE5AC"/><stop offset="0" stop-color="#FFE5AC"/><stop offset="1" stop-color="#B99C5D"/></linearGradient></defs></svg>