<svg width="100" height="100" fill="none" xmlns="http://www.w3.org/2000/svg"><path d="M60.206 94.562h-.002a1.464 1.464 0 00-1.024 1.798c.2.719 1.083 1.219 1.798 1.024 1.85-.576 1.112-3.272-.772-2.822z" fill="url(#paint0_linear)"/><path d="M52.79 95.93a1.463 1.463 0 10.287 2.913 1.463 1.463 0 00-.288-2.912z" fill="url(#paint1_linear)"/><path d="M37.788 94.888a1.463 1.463 0 10-.69 2.843c.719.17 1.589-.35 1.765-1.076a1.462 1.462 0 00-1.075-1.767z" fill="url(#paint2_linear)"/><path d="M45.244 96.04a1.46 1.46 0 00-1.56 1.36 1.46 1.46 0 001.357 1.558 1.464 1.464 0 00.203-2.918z" fill="url(#paint3_linear)"/><path d="M67.282 91.956a1.462 1.462 0 00-.704 1.944c.55.79 1.199 1.024 1.944.704 1.726-.88.54-3.41-1.24-2.648z" fill="url(#paint4_linear)"/><path d="M73.817 88.192a1.458 1.458 0 00-.367 2.034c.628.692 1.307.814 2.036.367a1.462 1.462 0 10-1.669-2.4z" fill="url(#paint5_linear)"/><path d="M90.407 70.538a1.462 1.462 0 00-1.957.667 1.462 1.462 0 00.665 1.959c.744.336 1.396.114 1.958-.665a1.463 1.463 0 00-.665-1.96z" fill="url(#paint6_linear)"/><path d="M94.34 55.514a1.463 1.463 0 00-1.625 1.28c-.094.786.661 1.636 1.454 1.636.732 0 1.362-.549 1.452-1.292v-.002a1.462 1.462 0 00-1.282-1.622z" fill="url(#paint7_linear)"/><path d="M93.015 63.192a1.464 1.464 0 00-.83 2.806c.713.212 1.606-.268 1.817-.989a1.463 1.463 0 00-.987-1.817z" fill="url(#paint8_linear)"/><path d="M79.629 83.38a1.463 1.463 0 00-.022 2.07c.688.578 1.377.585 2.07.02a1.46 1.46 0 00.019-2.068 1.46 1.46 0 00-2.067-.021z" fill="url(#paint9_linear)"/><path d="M86.597 77.34a1.463 1.463 0 10-1.716 2.37c.725.456 1.406.347 2.042-.329a1.463 1.463 0 00-.326-2.042z" fill="url(#paint10_linear)"/><path d="M23.301 14.225a1.466 1.466 0 001.227-2.26 1.463 1.463 0 10-1.227 2.26z" fill="url(#paint11_linear)"/><path d="M30.17 10.555c.952 0 1.73-1.139 1.344-2.042a1.462 1.462 0 00-1.921-.765h-.002a1.461 1.461 0 00-.765 1.921c.238.554.777.886 1.344.886z" fill="url(#paint12_linear)"/><path d="M45.261 6.929a1.46 1.46 0 001.46-1.56 1.464 1.464 0 00-2.918.193 1.465 1.465 0 001.458 1.367z" fill="url(#paint13_linear)"/><path d="M37.562 8.1c.852 0 1.625-.963 1.422-1.807a1.462 1.462 0 10-2.844.683c.16.67.76 1.123 1.422 1.123z" fill="url(#paint14_linear)"/><path d="M17.147 18.997a1.462 1.462 0 100-2.925 1.462 1.462 0 000 2.925z" fill="url(#paint15_linear)"/><path d="M2.77 58.638a1.462 1.462 0 00-1.167 1.706c.136.724.984 1.308 1.709 1.169a1.463 1.463 0 00-.543-2.875z" fill="url(#paint16_linear)"/><path d="M2.543 45.997c.726.114 1.555-.507 1.664-1.229a1.462 1.462 0 10-1.664 1.229z" fill="url(#paint17_linear)"/><path d="M2.249 53.786h.027a1.464 1.464 0 001.437-1.488h-.002a1.462 1.462 0 10-1.462 1.488z" fill="url(#paint18_linear)"/><path d="M4.111 38.363c.709.233 1.612-.21 1.849-.928a1.464 1.464 0 10-1.849.928z" fill="url(#paint19_linear)"/><path d="M6.953 31.105c.743.357 1.403.156 1.979-.603a1.462 1.462 0 10-1.98.603z" fill="url(#paint20_linear)"/><path d="M10.98 24.429c.72.482 1.404.395 2.052-.261a1.46 1.46 0 00-.262-2.052 1.462 1.462 0 10-1.79 2.313z" fill="url(#paint21_linear)"/><path d="M99.115 24.402l-5.432-2.333a25.118 25.118 0 00-1.463-3.679l2.177-5.453c.216-.541.09-1.16-.322-1.573l-5.371-5.402a1.463 1.463 0 00-1.585-.325L82.04 7.686a23.809 23.809 0 00-4.186-1.808L75.734.89A1.456 1.456 0 0074.39 0h-7.596c-.587 0-1.117.35-1.347.89l-2.119 4.988a23.8 23.8 0 00-4.186 1.808l-5.078-2.05a1.462 1.462 0 00-1.585.326l-5.371 5.402a1.463 1.463 0 00-.322 1.573l2.177 5.453a25.147 25.147 0 00-1.233 2.97A30.715 30.715 0 0029.977 27c-1.545 1.09.141 3.48 1.686 2.39 18.187-13.078 44.297.46 44.105 22.878a28.06 28.06 0 01-9.044 20.596 1.462 1.462 0 00-.473 1.076v5.558l-4.99-2.108a1.462 1.462 0 00-1.211.033c-7.045 3.494-15.68 3.757-22.922.73l1.477-1.517a1.463 1.463 0 00.304-1.577l-1.922-4.67c-.223-.543-.75-.9-1.336-.906l-3.388-.038a16.332 16.332 0 00-1.851-1.91l-.036-3.368a1.463 1.463 0 00-.9-1.334l-4.643-1.935a1.462 1.462 0 00-1.588.307l-1.465 1.44c-3.884-9.485-1.947-21.003 4.846-28.698 1.24-1.428-.97-3.345-2.21-1.916-7.455 8.446-9.621 21.062-5.43 31.501-.26.012-.518.03-.776.055l-2.422-2.384a1.464 1.464 0 00-1.588-.308l-4.645 1.933c-.54.225-.894.75-.9 1.334l-.042 3.668a17.13 17.13 0 00-1.56 1.605l-3.677.04a1.463 1.463 0 00-1.337.905L.114 75.05a1.463 1.463 0 00.303 1.577l2.576 2.65a17.17 17.17 0 00-.028 2.25l-2.55 2.621a1.463 1.463 0 00-.305 1.577l1.922 4.67c.223.543.75.9 1.336.906l3.388.039a16.338 16.338 0 001.851 1.91l.036 3.367c.006.584.36 1.109.9 1.334l4.643 1.935a1.463 1.463 0 001.588-.307l2.39-2.349c.88.061 1.764.05 2.645-.033l2.422 2.384c.499.425 1.028.527 1.589.308l4.644-1.933c.54-.225.894-.75.9-1.334l.042-3.668c.554-.5 1.076-1.037 1.56-1.606l3.678-.04a1.463 1.463 0 001.336-.905l1.925-4.669a1.463 1.463 0 00-.303-1.577l-2.576-2.65c.016-.21.029-.42.037-.63 7.776 3.236 17.029 3.044 24.664-.537l6.417 2.711c1.16.278 1.837-.171 2.032-1.347v-7.131a31.004 31.004 0 009.509-21.603 23.885 23.885 0 003.355-1.523l5.079 2.05c.56.213 1.089.104 1.584-.326l5.372-5.402a1.462 1.462 0 00.321-1.573l-2.176-5.453a25.137 25.137 0 001.463-3.68l5.432-2.332c.537-.231.885-.76.885-1.344v-7.64c0-.584-.348-1.113-.885-1.344zm-64.47 63.99l-3.396.038a1.462 1.462 0 00-1.136.562 14.083 14.083 0 01-2.096 2.16c-.33.275-.524.68-.529 1.11l-.037 3.362-2.86 1.19-2.23-2.195a1.464 1.464 0 00-1.229-.406 13.261 13.261 0 01-3.344.045c-.44-.05-.877.1-1.191.41l-2.181 2.144-2.857-1.191-.033-3.076a1.462 1.462 0 00-.548-1.126 13.384 13.384 0 01-2.335-2.412 1.462 1.462 0 00-1.153-.586l-3.12-.035-1.189-2.887 2.34-2.404c.299-.307.448-.73.408-1.157a14.204 14.204 0 01.04-3.02 1.463 1.463 0 00-.404-1.195l-2.38-2.448 1.19-2.886 3.395-.037a1.463 1.463 0 001.137-.563 14.07 14.07 0 012.096-2.16c.33-.275.523-.68.528-1.109l.038-3.363 2.859-1.19 2.23 2.195c.324.32.777.47 1.23.406a13.284 13.284 0 012.828-.093c.567.238 1.273.066 1.707-.361l2.18-2.144 2.858 1.191.033 3.076c.005.438.206.851.548 1.125.872.7 1.658 1.512 2.334 2.414.273.363.7.58 1.154.585l3.12.035 1.189 2.886-2.04 2.097c-.454.296-.758.925-.708 1.465a14.184 14.184 0 01-.04 3.02c-.052.439.096.878.404 1.194l2.38 2.448-1.19 2.887zM61.06 24.36a10.846 10.846 0 019.531-5.705c11.252.139 14.924 15.015 5.18 20.5A31.11 31.11 0 0061.06 24.358zm36.015 8.063l-5.179 2.225a1.463 1.463 0 00-.832.952 22.161 22.161 0 01-1.742 4.388 1.46 1.46 0 00-.064 1.224l2.065 5.176-4.01 4.032-4.835-1.951c-.422-.17-.9-.134-1.291.097a21.05 21.05 0 01-2.587 1.298 30.686 30.686 0 00-1.705-7.99c4.578-2.355 7.464-7.042 7.464-12.307-.163-14.47-19.278-19.114-26.007-6.344a30.692 30.692 0 00-7.564-1.717c.311-.807.67-1.597 1.071-2.36.2-.379.224-.826.065-1.224l-2.066-5.176 4.01-4.033 4.835 1.952c.422.17.9.134 1.292-.098a20.865 20.865 0 014.818-2.084c.423-.122.768-.428.94-.833l2.007-4.724h5.661l2.007 4.724c.173.405.517.711.94.833a20.865 20.865 0 014.819 2.085c.392.231.87.267 1.291.097l4.835-1.951 4.01 4.032-2.065 5.176a1.46 1.46 0 00.064 1.224 22.165 22.165 0 011.742 4.388c.119.427.425.777.832.952l5.179 2.225v5.712z" fill="url(#paint22_linear)"/><path d="M34.83 61.584h1.06a3 3 0 002.996-2.996v-8.872a3 3 0 00-2.996-2.995c-.63-.014-1.302-.023-1.924.05 3.387-14.884 24.205-14.957 27.63 0-.622-.073-1.295-.064-1.923-.05a3 3 0 00-2.996 2.995v8.872a3 3 0 002.995 2.996c.648-.007 1.767-.01 2.217-.007a5.388 5.388 0 01-4.504 5.308 4.279 4.279 0 00-3.987-2.738H50.59c-5.666.235-5.666 8.31 0 8.543h2.808a4.279 4.279 0 004.032-2.86c4.148-.459 7.384-3.985 7.384-8.253V60.36c4.483-2.894 4.43-9.647-.09-12.474a16.984 16.984 0 00-5.44-10.803c-10.183-9.447-27.113-2.962-28.446 10.803-6.186 3.979-3.461 13.631 3.992 13.698zm18.568 8.18H50.59c-1.782-.063-1.78-2.628 0-2.691h2.808c1.782.063 1.78 2.63 0 2.692zm7.334-11.105c.005 0-1.13.067-1.13-.07v-8.873c0-.137 1.135-.07 1.13-.07 5.98.248 5.976 8.767 0 9.013zM34.83 49.646c-.005 0 1.13-.067 1.13.07v8.872c0 .138-1.135.07-1.13.07-5.98-.248-5.975-8.766 0-9.012z" fill="url(#paint23_linear)"/><path d="M23.19 71.477a9.502 9.502 0 00-7.338-.009 9.564 9.564 0 00-5.216 5.23c-3.087 7.47 3.928 15.287 11.66 12.927a1.463 1.463 0 10-.854-2.798 6.647 6.647 0 01-4.488-.224c-3.406-1.419-5.027-5.362-3.613-8.79a6.658 6.658 0 013.63-3.642c5.201-2.19 10.596 2.888 8.909 8.233a1.463 1.463 0 002.79.876 9.663 9.663 0 00-.446-6.944 9.59 9.59 0 00-5.034-4.859z" fill="url(#paint24_linear)"/><defs><linearGradient id="paint0_linear" x1="60.588" y1="94.511" x2="60.588" y2="97.426" gradientUnits="userSpaceOnUse"><stop stop-color="#FFE5AC"/><stop offset="1" stop-color="#B99C5D"/></linearGradient><linearGradient id="paint1_linear" x1="52.933" y1="95.924" x2="52.933" y2="98.85" gradientUnits="userSpaceOnUse"><stop stop-color="#FFE5AC"/><stop offset="1" stop-color="#B99C5D"/></linearGradient><linearGradient id="paint2_linear" x1="37.442" y1="94.846" x2="37.442" y2="97.763" gradientUnits="userSpaceOnUse"><stop stop-color="#FFE5AC"/><stop offset="1" stop-color="#B99C5D"/></linearGradient><linearGradient id="paint3_linear" x1="45.142" y1="96.037" x2="45.142" y2="98.962" gradientUnits="userSpaceOnUse"><stop stop-color="#FFE5AC"/><stop offset="1" stop-color="#B99C5D"/></linearGradient><linearGradient id="paint4_linear" x1="67.901" y1="91.815" x2="67.901" y2="94.743" gradientUnits="userSpaceOnUse"><stop stop-color="#FFE5AC"/><stop offset="1" stop-color="#B99C5D"/></linearGradient><linearGradient id="paint5_linear" x1="74.651" y1="87.93" x2="74.651" y2="90.856" gradientUnits="userSpaceOnUse"><stop stop-color="#FFE5AC"/><stop offset="1" stop-color="#B99C5D"/></linearGradient><linearGradient id="paint6_linear" x1="89.761" y1="70.388" x2="89.761" y2="73.316" gradientUnits="userSpaceOnUse"><stop stop-color="#FFE5AC"/><stop offset="1" stop-color="#B99C5D"/></linearGradient><linearGradient id="paint7_linear" x1="94.169" y1="55.503" x2="94.169" y2="58.429" gradientUnits="userSpaceOnUse"><stop stop-color="#FFE5AC"/><stop offset="1" stop-color="#B99C5D"/></linearGradient><linearGradient id="paint8_linear" x1="92.6" y1="63.132" x2="92.6" y2="66.049" gradientUnits="userSpaceOnUse"><stop stop-color="#FFE5AC"/><stop offset="1" stop-color="#B99C5D"/></linearGradient><linearGradient id="paint9_linear" x1="80.652" y1="82.963" x2="80.652" y2="85.889" gradientUnits="userSpaceOnUse"><stop stop-color="#FFE5AC"/><stop offset="1" stop-color="#B99C5D"/></linearGradient><linearGradient id="paint10_linear" x1="85.738" y1="77.061" x2="85.738" y2="79.986" gradientUnits="userSpaceOnUse"><stop stop-color="#FFE5AC"/><stop offset="1" stop-color="#B99C5D"/></linearGradient><linearGradient id="paint11_linear" x1="23.301" y1="11.299" x2="23.301" y2="14.225" gradientUnits="userSpaceOnUse"><stop stop-color="#FFE5AC"/><stop offset="1" stop-color="#B99C5D"/></linearGradient><linearGradient id="paint12_linear" x1="30.161" y1="7.628" x2="30.161" y2="10.555" gradientUnits="userSpaceOnUse"><stop stop-color="#FFE5AC"/><stop offset="1" stop-color="#B99C5D"/></linearGradient><linearGradient id="paint13_linear" x1="45.262" y1="4.002" x2="45.262" y2="6.929" gradientUnits="userSpaceOnUse"><stop stop-color="#FFE5AC"/><stop offset="1" stop-color="#B99C5D"/></linearGradient><linearGradient id="paint14_linear" x1="37.558" y1="5.172" x2="37.558" y2="8.099" gradientUnits="userSpaceOnUse"><stop stop-color="#FFE5AC"/><stop offset="1" stop-color="#B99C5D"/></linearGradient><linearGradient id="paint15_linear" x1="17.146" y1="16.073" x2="17.146" y2="18.997" gradientUnits="userSpaceOnUse"><stop stop-color="#FFE5AC"/><stop offset="1" stop-color="#B99C5D"/></linearGradient><linearGradient id="paint16_linear" x1="3.041" y1="58.612" x2="3.041" y2="61.533" gradientUnits="userSpaceOnUse"><stop stop-color="#FFE5AC"/><stop offset="1" stop-color="#B99C5D"/></linearGradient><linearGradient id="paint17_linear" x1="2.761" y1="43.088" x2="2.761" y2="46.01" gradientUnits="userSpaceOnUse"><stop stop-color="#FFE5AC"/><stop offset="1" stop-color="#B99C5D"/></linearGradient><linearGradient id="paint18_linear" x1="2.251" y1="50.86" x2="2.251" y2="53.786" gradientUnits="userSpaceOnUse"><stop stop-color="#FFE5AC"/><stop offset="1" stop-color="#B99C5D"/></linearGradient><linearGradient id="paint19_linear" x1="4.571" y1="35.512" x2="4.571" y2="38.426" gradientUnits="userSpaceOnUse"><stop stop-color="#FFE5AC"/><stop offset="1" stop-color="#B99C5D"/></linearGradient><linearGradient id="paint20_linear" x1="7.642" y1="28.35" x2="7.642" y2="31.276" gradientUnits="userSpaceOnUse"><stop stop-color="#FFE5AC"/><stop offset="1" stop-color="#B99C5D"/></linearGradient><linearGradient id="paint21_linear" x1="11.876" y1="21.811" x2="11.876" y2="24.735" gradientUnits="userSpaceOnUse"><stop stop-color="#FFE5AC"/><stop offset="1" stop-color="#B99C5D"/></linearGradient><linearGradient id="paint22_linear" x1="50" y1="0" x2="50" y2="100" gradientUnits="userSpaceOnUse"><stop stop-color="#FFE5AC"/><stop offset="1" stop-color="#B99C5D"/></linearGradient><linearGradient id="paint23_linear" x1="47.781" y1="32.623" x2="47.781" y2="72.69" gradientUnits="userSpaceOnUse"><stop stop-color="#FFE5AC"/><stop offset="1" stop-color="#B99C5D"/></linearGradient><linearGradient id="paint24_linear" x1="19.503" y1="70.736" x2="19.503" y2="90.053" gradientUnits="userSpaceOnUse"><stop stop-color="#FFE5AC"/><stop offset="1" stop-color="#B99C5D"/></linearGradient></defs></svg>