<svg width="100" height="100" fill="none" xmlns="http://www.w3.org/2000/svg"><path d="M98.333 15.834H80V2.5c0-.92-.746-1.667-1.667-1.667H21.667C20.747.833 20 1.58 20 2.5v23.334H1.667C.747 25.834 0 26.58 0 27.5v68.334a1.667 1.667 0 003.333 0V29.166H20V97.5c0 .92.746 1.667 1.667 1.667h56.666c.92 0 1.667-.746 1.667-1.667V19.167h16.667v76.666a1.667 1.667 0 003.333 0V17.5c0-.92-.746-1.666-1.667-1.666zm-50 80h-6.666v-15h6.666v15zm10 0h-6.666v-15h6.666v15zm18.334 0h-15V79.166c0-.92-.747-1.667-1.667-1.667H40c-.92 0-1.667.746-1.667 1.667v16.666h-15V4.168h53.334v91.666z" fill="url(#paint0_linear)"/><path d="M38.333 7.5h-10c-.92 0-1.666.746-1.666 1.667v10c0 .92.746 1.666 1.666 1.666h10c.92 0 1.667-.746 1.667-1.666v-10c0-.92-.746-1.667-1.667-1.667zm-1.666 10H30v-6.667h6.666V17.5z" fill="url(#paint1_linear)"/><path d="M55 7.5H45c-.92 0-1.666.746-1.666 1.667v10c0 .92.746 1.666 1.666 1.666h10c.92 0 1.667-.746 1.667-1.666v-10c0-.92-.746-1.667-1.667-1.667zm-1.666 10h-6.667v-6.667h6.666V17.5z" fill="url(#paint2_linear)"/><path d="M71.667 7.5h-10c-.92 0-1.667.746-1.667 1.667v10c0 .92.746 1.666 1.667 1.666h10c.92 0 1.666-.746 1.666-1.666v-10c0-.92-.746-1.667-1.666-1.667zM70 17.5h-6.667v-6.667H70V17.5z" fill="url(#paint3_linear)"/><path d="M38.333 24.166h-10c-.92 0-1.666.747-1.666 1.667v10c0 .92.746 1.667 1.666 1.667h10c.92 0 1.667-.746 1.667-1.667v-10c0-.92-.746-1.666-1.667-1.666zm-1.666 10H30V27.5h6.666v6.666z" fill="url(#paint4_linear)"/><path d="M55 24.166H45c-.92 0-1.666.747-1.666 1.667v10c0 .92.746 1.667 1.666 1.667h10c.92 0 1.667-.746 1.667-1.667v-10c0-.92-.746-1.666-1.667-1.666zm-1.666 10h-6.667V27.5h6.666v6.666z" fill="url(#paint5_linear)"/><path d="M71.667 24.166h-10c-.92 0-1.667.747-1.667 1.667v10c0 .92.746 1.667 1.667 1.667h10c.92 0 1.666-.746 1.666-1.667v-10c0-.92-.746-1.666-1.666-1.666zm-1.667 10h-6.667V27.5H70v6.666z" fill="url(#paint6_linear)"/><path d="M38.333 40.834h-10c-.92 0-1.666.746-1.666 1.666v10c0 .92.746 1.667 1.666 1.667h10c.92 0 1.667-.746 1.667-1.667v-10c0-.92-.746-1.666-1.667-1.666zm-1.666 10H30v-6.667h6.666v6.666z" fill="url(#paint7_linear)"/><path d="M55 40.834H45c-.92 0-1.666.746-1.666 1.666v10c0 .92.746 1.667 1.666 1.667h10c.92 0 1.667-.746 1.667-1.667v-10c0-.92-.746-1.666-1.667-1.666zm-1.666 10h-6.667v-6.667h6.666v6.666z" fill="url(#paint8_linear)"/><path d="M71.667 40.834h-10c-.92 0-1.667.746-1.667 1.666v10c0 .92.746 1.667 1.667 1.667h10c.92 0 1.666-.746 1.666-1.667v-10c0-.92-.746-1.666-1.666-1.666zm-1.667 10h-6.667v-6.667H70v6.666z" fill="url(#paint9_linear)"/><path d="M38.333 57.5h-10c-.92 0-1.666.746-1.666 1.667v10c0 .92.746 1.666 1.666 1.666h10c.92 0 1.667-.746 1.667-1.666v-10c0-.92-.746-1.667-1.667-1.667zm-1.666 10H30v-6.667h6.666V67.5z" fill="url(#paint10_linear)"/><path d="M55 57.5H45c-.92 0-1.666.746-1.666 1.667v10c0 .92.746 1.666 1.666 1.666h10c.92 0 1.667-.746 1.667-1.666v-10c0-.92-.746-1.667-1.667-1.667zm-1.666 10h-6.667v-6.667h6.666V67.5z" fill="url(#paint11_linear)"/><path d="M71.667 57.5h-10c-.92 0-1.667.746-1.667 1.667v10c0 .92.746 1.666 1.667 1.666h10c.92 0 1.666-.746 1.666-1.666v-10c0-.92-.746-1.667-1.666-1.667zM70 67.5h-6.667v-6.667H70V67.5z" fill="url(#paint12_linear)"/><path d="M10 32.5H8.333c-.92 0-1.667.746-1.667 1.667v1.666c0 .92.747 1.667 1.667 1.667H10c.92 0 1.666-.746 1.666-1.667v-1.666c0-.92-.746-1.667-1.666-1.667z" fill="url(#paint13_linear)"/><path d="M16.667 32.5H15c-.92 0-1.666.746-1.666 1.667v1.666c0 .92.746 1.667 1.666 1.667h1.667c.92 0 1.666-.746 1.666-1.667v-1.666c0-.92-.746-1.667-1.666-1.667z" fill="url(#paint14_linear)"/><path d="M10 39.166H8.333c-.92 0-1.667.747-1.667 1.667V42.5c0 .92.747 1.666 1.667 1.666H10c.92 0 1.666-.746 1.666-1.666v-1.667c0-.92-.746-1.666-1.666-1.666z" fill="url(#paint15_linear)"/><path d="M16.667 39.166H15c-.92 0-1.666.747-1.666 1.667V42.5c0 .92.746 1.666 1.666 1.666h1.667c.92 0 1.666-.746 1.666-1.666v-1.667c0-.92-.746-1.666-1.666-1.666z" fill="url(#paint16_linear)"/><path d="M10 45.834H8.333c-.92 0-1.667.746-1.667 1.666v1.667c0 .92.747 1.666 1.667 1.666H10c.92 0 1.666-.746 1.666-1.666V47.5c0-.92-.746-1.666-1.666-1.666z" fill="url(#paint17_linear)"/><path d="M16.667 45.834H15c-.92 0-1.666.746-1.666 1.666v1.667c0 .92.746 1.666 1.666 1.666h1.667c.92 0 1.666-.746 1.666-1.666V47.5c0-.92-.746-1.666-1.666-1.666z" fill="url(#paint18_linear)"/><path d="M10 52.5H8.333c-.92 0-1.667.746-1.667 1.667v1.666c0 .92.747 1.667 1.667 1.667H10c.92 0 1.666-.746 1.666-1.667v-1.666c0-.92-.746-1.667-1.666-1.667z" fill="url(#paint19_linear)"/><path d="M16.667 52.5H15c-.92 0-1.666.746-1.666 1.667v1.666c0 .92.746 1.667 1.666 1.667h1.667c.92 0 1.666-.746 1.666-1.667v-1.666c0-.92-.746-1.667-1.666-1.667z" fill="url(#paint20_linear)"/><path d="M10 59.166H8.333c-.92 0-1.667.747-1.667 1.667V62.5c0 .92.747 1.666 1.667 1.666H10c.92 0 1.666-.746 1.666-1.666v-1.667c0-.92-.746-1.666-1.666-1.666z" fill="url(#paint21_linear)"/><path d="M16.667 59.166H15c-.92 0-1.666.747-1.666 1.667V62.5c0 .92.746 1.666 1.666 1.666h1.667c.92 0 1.666-.746 1.666-1.666v-1.667c0-.92-.746-1.666-1.666-1.666z" fill="url(#paint22_linear)"/><path d="M10 65.834H8.333c-.92 0-1.667.746-1.667 1.666v1.667c0 .92.747 1.666 1.667 1.666H10c.92 0 1.666-.746 1.666-1.666V67.5c0-.92-.746-1.666-1.666-1.666z" fill="url(#paint23_linear)"/><path d="M16.667 65.834H15c-.92 0-1.666.746-1.666 1.666v1.667c0 .92.746 1.666 1.666 1.666h1.667c.92 0 1.666-.746 1.666-1.666V67.5c0-.92-.746-1.666-1.666-1.666z" fill="url(#paint24_linear)"/><path d="M10 72.5H8.333c-.92 0-1.667.746-1.667 1.667v1.666c0 .92.747 1.667 1.667 1.667H10c.92 0 1.666-.746 1.666-1.667v-1.666c0-.92-.746-1.667-1.666-1.667z" fill="url(#paint25_linear)"/><path d="M16.667 72.5H15c-.92 0-1.666.746-1.666 1.667v1.666c0 .92.746 1.667 1.666 1.667h1.667c.92 0 1.666-.746 1.666-1.667v-1.666c0-.92-.746-1.667-1.666-1.667z" fill="url(#paint26_linear)"/><path d="M10 79.166H8.333c-.92 0-1.667.747-1.667 1.667V82.5c0 .92.747 1.666 1.667 1.666H10c.92 0 1.666-.746 1.666-1.666v-1.667c0-.92-.746-1.666-1.666-1.666z" fill="url(#paint27_linear)"/><path d="M16.667 79.166H15c-.92 0-1.666.747-1.666 1.667V82.5c0 .92.746 1.666 1.666 1.666h1.667c.92 0 1.666-.746 1.666-1.666v-1.667c0-.92-.746-1.666-1.666-1.666z" fill="url(#paint28_linear)"/><path d="M10 85.834H8.333c-.92 0-1.667.746-1.667 1.666v1.667c0 .92.747 1.666 1.667 1.666H10c.92 0 1.666-.746 1.666-1.666V87.5c0-.92-.746-1.666-1.666-1.666z" fill="url(#paint29_linear)"/><path d="M16.667 85.834H15c-.92 0-1.666.746-1.666 1.666v1.667c0 .92.746 1.666 1.666 1.666h1.667c.92 0 1.666-.746 1.666-1.666V87.5c0-.92-.746-1.666-1.666-1.666z" fill="url(#paint30_linear)"/><path d="M91.667 22.5H85c-.92 0-1.666.746-1.666 1.667v6.666c0 .92.746 1.667 1.666 1.667h6.667c.92 0 1.666-.746 1.666-1.667v-6.666c0-.92-.746-1.667-1.666-1.667zM90 29.167h-3.333v-3.334H90v3.334z" fill="url(#paint31_linear)"/><path d="M91.667 35.834H85c-.92 0-1.666.746-1.666 1.666v6.667c0 .92.746 1.666 1.666 1.666h6.667c.92 0 1.666-.746 1.666-1.666V37.5c0-.92-.746-1.666-1.666-1.666zM90 42.5h-3.333v-3.333H90V42.5z" fill="url(#paint32_linear)"/><path d="M91.667 49.166H85c-.92 0-1.666.747-1.666 1.667V57.5c0 .92.746 1.666 1.666 1.666h6.667c.92 0 1.666-.746 1.666-1.666v-6.667c0-.92-.746-1.666-1.666-1.666zM90 55.834h-3.333V52.5H90v3.333z" fill="url(#paint33_linear)"/><path d="M91.667 62.5H85c-.92 0-1.666.746-1.666 1.667v6.666c0 .92.746 1.667 1.666 1.667h6.667c.92 0 1.666-.746 1.666-1.667v-6.666c0-.92-.746-1.667-1.666-1.667zM90 69.167h-3.333v-3.334H90v3.334z" fill="url(#paint34_linear)"/><path d="M91.667 75.834H85c-.92 0-1.666.746-1.666 1.666v6.667c0 .92.746 1.666 1.666 1.666h6.667c.92 0 1.666-.746 1.666-1.666V77.5c0-.92-.746-1.666-1.666-1.666zM90 82.5h-3.333v-3.333H90V82.5z" fill="url(#paint35_linear)"/><defs><linearGradient id="paint0_linear" x1="50" y1=".833" x2="50" y2="99.167" gradientUnits="userSpaceOnUse"><stop stop-color="#FFE5AC"/><stop offset="0" stop-color="#FFE5AC"/><stop offset="1" stop-color="#B99C5D"/></linearGradient><linearGradient id="paint1_linear" x1="33.333" y1="7.5" x2="33.333" y2="20.833" gradientUnits="userSpaceOnUse"><stop stop-color="#FFE5AC"/><stop offset="0" stop-color="#FFE5AC"/><stop offset="1" stop-color="#B99C5D"/></linearGradient><linearGradient id="paint2_linear" x1="50" y1="7.5" x2="50" y2="20.833" gradientUnits="userSpaceOnUse"><stop stop-color="#FFE5AC"/><stop offset="0" stop-color="#FFE5AC"/><stop offset="1" stop-color="#B99C5D"/></linearGradient><linearGradient id="paint3_linear" x1="66.667" y1="7.5" x2="66.667" y2="20.833" gradientUnits="userSpaceOnUse"><stop stop-color="#FFE5AC"/><stop offset="0" stop-color="#FFE5AC"/><stop offset="1" stop-color="#B99C5D"/></linearGradient><linearGradient id="paint4_linear" x1="33.333" y1="24.166" x2="33.333" y2="37.5" gradientUnits="userSpaceOnUse"><stop stop-color="#FFE5AC"/><stop offset="0" stop-color="#FFE5AC"/><stop offset="1" stop-color="#B99C5D"/></linearGradient><linearGradient id="paint5_linear" x1="50" y1="24.166" x2="50" y2="37.5" gradientUnits="userSpaceOnUse"><stop stop-color="#FFE5AC"/><stop offset="0" stop-color="#FFE5AC"/><stop offset="1" stop-color="#B99C5D"/></linearGradient><linearGradient id="paint6_linear" x1="66.667" y1="24.166" x2="66.667" y2="37.5" gradientUnits="userSpaceOnUse"><stop stop-color="#FFE5AC"/><stop offset="0" stop-color="#FFE5AC"/><stop offset="1" stop-color="#B99C5D"/></linearGradient><linearGradient id="paint7_linear" x1="33.333" y1="40.834" x2="33.333" y2="54.167" gradientUnits="userSpaceOnUse"><stop stop-color="#FFE5AC"/><stop offset="0" stop-color="#FFE5AC"/><stop offset="1" stop-color="#B99C5D"/></linearGradient><linearGradient id="paint8_linear" x1="50" y1="40.834" x2="50" y2="54.167" gradientUnits="userSpaceOnUse"><stop stop-color="#FFE5AC"/><stop offset="0" stop-color="#FFE5AC"/><stop offset="1" stop-color="#B99C5D"/></linearGradient><linearGradient id="paint9_linear" x1="66.667" y1="40.834" x2="66.667" y2="54.167" gradientUnits="userSpaceOnUse"><stop stop-color="#FFE5AC"/><stop offset="0" stop-color="#FFE5AC"/><stop offset="1" stop-color="#B99C5D"/></linearGradient><linearGradient id="paint10_linear" x1="33.333" y1="57.5" x2="33.333" y2="70.833" gradientUnits="userSpaceOnUse"><stop stop-color="#FFE5AC"/><stop offset="0" stop-color="#FFE5AC"/><stop offset="1" stop-color="#B99C5D"/></linearGradient><linearGradient id="paint11_linear" x1="50" y1="57.5" x2="50" y2="70.833" gradientUnits="userSpaceOnUse"><stop stop-color="#FFE5AC"/><stop offset="0" stop-color="#FFE5AC"/><stop offset="1" stop-color="#B99C5D"/></linearGradient><linearGradient id="paint12_linear" x1="66.667" y1="57.5" x2="66.667" y2="70.833" gradientUnits="userSpaceOnUse"><stop stop-color="#FFE5AC"/><stop offset="0" stop-color="#FFE5AC"/><stop offset="1" stop-color="#B99C5D"/></linearGradient><linearGradient id="paint13_linear" x1="9.166" y1="32.5" x2="9.166" y2="37.5" gradientUnits="userSpaceOnUse"><stop stop-color="#FFE5AC"/><stop offset="0" stop-color="#FFE5AC"/><stop offset="1" stop-color="#B99C5D"/></linearGradient><linearGradient id="paint14_linear" x1="15.834" y1="32.5" x2="15.834" y2="37.5" gradientUnits="userSpaceOnUse"><stop stop-color="#FFE5AC"/><stop offset="0" stop-color="#FFE5AC"/><stop offset="1" stop-color="#B99C5D"/></linearGradient><linearGradient id="paint15_linear" x1="9.166" y1="39.166" x2="9.166" y2="44.166" gradientUnits="userSpaceOnUse"><stop stop-color="#FFE5AC"/><stop offset="0" stop-color="#FFE5AC"/><stop offset="1" stop-color="#B99C5D"/></linearGradient><linearGradient id="paint16_linear" x1="15.834" y1="39.166" x2="15.834" y2="44.166" gradientUnits="userSpaceOnUse"><stop stop-color="#FFE5AC"/><stop offset="0" stop-color="#FFE5AC"/><stop offset="1" stop-color="#B99C5D"/></linearGradient><linearGradient id="paint17_linear" x1="9.166" y1="45.834" x2="9.166" y2="50.834" gradientUnits="userSpaceOnUse"><stop stop-color="#FFE5AC"/><stop offset="0" stop-color="#FFE5AC"/><stop offset="1" stop-color="#B99C5D"/></linearGradient><linearGradient id="paint18_linear" x1="15.834" y1="45.834" x2="15.834" y2="50.834" gradientUnits="userSpaceOnUse"><stop stop-color="#FFE5AC"/><stop offset="0" stop-color="#FFE5AC"/><stop offset="1" stop-color="#B99C5D"/></linearGradient><linearGradient id="paint19_linear" x1="9.166" y1="52.5" x2="9.166" y2="57.5" gradientUnits="userSpaceOnUse"><stop stop-color="#FFE5AC"/><stop offset="0" stop-color="#FFE5AC"/><stop offset="1" stop-color="#B99C5D"/></linearGradient><linearGradient id="paint20_linear" x1="15.834" y1="52.5" x2="15.834" y2="57.5" gradientUnits="userSpaceOnUse"><stop stop-color="#FFE5AC"/><stop offset="0" stop-color="#FFE5AC"/><stop offset="1" stop-color="#B99C5D"/></linearGradient><linearGradient id="paint21_linear" x1="9.166" y1="59.166" x2="9.166" y2="64.166" gradientUnits="userSpaceOnUse"><stop stop-color="#FFE5AC"/><stop offset="0" stop-color="#FFE5AC"/><stop offset="1" stop-color="#B99C5D"/></linearGradient><linearGradient id="paint22_linear" x1="15.834" y1="59.166" x2="15.834" y2="64.166" gradientUnits="userSpaceOnUse"><stop stop-color="#FFE5AC"/><stop offset="0" stop-color="#FFE5AC"/><stop offset="1" stop-color="#B99C5D"/></linearGradient><linearGradient id="paint23_linear" x1="9.166" y1="65.834" x2="9.166" y2="70.834" gradientUnits="userSpaceOnUse"><stop stop-color="#FFE5AC"/><stop offset="0" stop-color="#FFE5AC"/><stop offset="1" stop-color="#B99C5D"/></linearGradient><linearGradient id="paint24_linear" x1="15.834" y1="65.834" x2="15.834" y2="70.834" gradientUnits="userSpaceOnUse"><stop stop-color="#FFE5AC"/><stop offset="0" stop-color="#FFE5AC"/><stop offset="1" stop-color="#B99C5D"/></linearGradient><linearGradient id="paint25_linear" x1="9.166" y1="72.5" x2="9.166" y2="77.5" gradientUnits="userSpaceOnUse"><stop stop-color="#FFE5AC"/><stop offset="0" stop-color="#FFE5AC"/><stop offset="1" stop-color="#B99C5D"/></linearGradient><linearGradient id="paint26_linear" x1="15.834" y1="72.5" x2="15.834" y2="77.5" gradientUnits="userSpaceOnUse"><stop stop-color="#FFE5AC"/><stop offset="0" stop-color="#FFE5AC"/><stop offset="1" stop-color="#B99C5D"/></linearGradient><linearGradient id="paint27_linear" x1="9.166" y1="79.166" x2="9.166" y2="84.166" gradientUnits="userSpaceOnUse"><stop stop-color="#FFE5AC"/><stop offset="0" stop-color="#FFE5AC"/><stop offset="1" stop-color="#B99C5D"/></linearGradient><linearGradient id="paint28_linear" x1="15.834" y1="79.166" x2="15.834" y2="84.166" gradientUnits="userSpaceOnUse"><stop stop-color="#FFE5AC"/><stop offset="0" stop-color="#FFE5AC"/><stop offset="1" stop-color="#B99C5D"/></linearGradient><linearGradient id="paint29_linear" x1="9.166" y1="85.834" x2="9.166" y2="90.834" gradientUnits="userSpaceOnUse"><stop stop-color="#FFE5AC"/><stop offset="0" stop-color="#FFE5AC"/><stop offset="1" stop-color="#B99C5D"/></linearGradient><linearGradient id="paint30_linear" x1="15.834" y1="85.834" x2="15.834" y2="90.834" gradientUnits="userSpaceOnUse"><stop stop-color="#FFE5AC"/><stop offset="0" stop-color="#FFE5AC"/><stop offset="1" stop-color="#B99C5D"/></linearGradient><linearGradient id="paint31_linear" x1="88.334" y1="22.5" x2="88.334" y2="32.5" gradientUnits="userSpaceOnUse"><stop stop-color="#FFE5AC"/><stop offset="0" stop-color="#FFE5AC"/><stop offset="1" stop-color="#B99C5D"/></linearGradient><linearGradient id="paint32_linear" x1="88.334" y1="35.834" x2="88.334" y2="45.834" gradientUnits="userSpaceOnUse"><stop stop-color="#FFE5AC"/><stop offset="0" stop-color="#FFE5AC"/><stop offset="1" stop-color="#B99C5D"/></linearGradient><linearGradient id="paint33_linear" x1="88.334" y1="49.166" x2="88.334" y2="59.166" gradientUnits="userSpaceOnUse"><stop stop-color="#FFE5AC"/><stop offset="0" stop-color="#FFE5AC"/><stop offset="1" stop-color="#B99C5D"/></linearGradient><linearGradient id="paint34_linear" x1="88.334" y1="62.5" x2="88.334" y2="72.5" gradientUnits="userSpaceOnUse"><stop stop-color="#FFE5AC"/><stop offset="0" stop-color="#FFE5AC"/><stop offset="1" stop-color="#B99C5D"/></linearGradient><linearGradient id="paint35_linear" x1="88.334" y1="75.834" x2="88.334" y2="85.834" gradientUnits="userSpaceOnUse"><stop stop-color="#FFE5AC"/><stop offset="0" stop-color="#FFE5AC"/><stop offset="1" stop-color="#B99C5D"/></linearGradient></defs></svg>