<svg width="100" height="100" fill="none" xmlns="http://www.w3.org/2000/svg"><g clip-path="url(#clip0)"><path d="M50.978 17.675c0-.97-.785-1.759-1.758-1.759-10.15 0-18.407 8.258-18.407 18.408a1.758 1.758 0 103.516 0c0-8.21 6.681-14.891 14.891-14.891.973 0 1.758-.786 1.758-1.758z" fill="url(#paint0_linear)"/><path d="M23.425 34.324c0 6.034 1.95 11.739 5.64 16.498.017.023.037.046.056.069 7.696 10.682 5.783 15.763 5.783 15.772a1.76 1.76 0 001.59 2.503c.662 0 1.295-.374 1.593-1.012.319-.675 2.833-6.968-6.206-19.447a1.832 1.832 0 00-.126-.156c-3.149-4.114-4.812-9.03-4.812-14.229 0-12.919 10.512-23.428 23.428-23.428 12.917 0 23.43 10.51 23.43 23.428 0 5.213-1.674 10.148-4.872 14.308-9.044 12.488-6.428 18.852-6.1 19.538a1.741 1.741 0 002.295.822c.869-.388 1.263-1.422.895-2.3-.021-.052-2.036-5.235 5.728-15.957 3.643-4.74 5.57-10.414 5.57-16.41 0-14.857-12.087-26.944-26.945-26.944S23.425 19.468 23.425 34.324z" fill="url(#paint1_linear)"/><path d="M66.063 75.935v-1.494c0-2.382-1.94-4.32-4.32-4.32H38.051a4.324 4.324 0 00-4.32 4.32v1.494c0 2.38 1.938 4.32 4.32 4.32h23.694a4.324 4.324 0 004.318-4.32zm-28.816 0v-1.494c0-.443.36-.804.804-.804h23.694c.443 0 .804.36.804.804v1.494c0 .443-.36.804-.804.804H38.051a.804.804 0 01-.803-.804z" fill="url(#paint2_linear)"/><path d="M40.897 82.927c-.972 0-1.758.788-1.758 1.758v4.644a1.76 1.76 0 001.029 1.6l9.474 4.323a1.758 1.758 0 001.48-.01l9.501-4.484a1.756 1.756 0 001.008-1.59v-4.48a1.758 1.758 0 10-3.517 0v3.368l-7.755 3.66-7.704-3.516v-3.513c0-.974-.785-1.76-1.758-1.76z" fill="url(#paint3_linear)"/><path d="M91.33 66.093c.577-.78.41-1.88-.37-2.458l-11.927-8.794a1.758 1.758 0 00-2.087 2.829l11.927 8.794c.315.232.68.343 1.042.343a1.749 1.749 0 001.416-.714z" fill="url(#paint4_linear)"/><path d="M21.447 16.755a1.76 1.76 0 002.089-2.83L11.34 4.933a1.758 1.758 0 00-2.087 2.83l12.194 8.992z" fill="url(#paint5_linear)"/><path d="M22.001 54.236l-12.746 9.4a1.758 1.758 0 002.088 2.83l12.747-9.399a1.758 1.758 0 00-2.09-2.83z" fill="url(#paint6_linear)"/><path d="M77.466 13.345a1.758 1.758 0 002.089 2.83l11.408-8.41a1.758 1.758 0 00-2.087-2.83l-11.41 8.41z" fill="url(#paint7_linear)"/><path d="M98.242 33.942H84.794a1.758 1.758 0 100 3.517h13.448a1.758 1.758 0 100-3.517z" fill="url(#paint8_linear)"/><path d="M17.393 35.7c0-.97-.786-1.758-1.758-1.758H1.758a1.758 1.758 0 100 3.517h13.877a1.76 1.76 0 001.758-1.758z" fill="url(#paint9_linear)"/></g><defs><linearGradient id="paint0_linear" x1="40.896" y1="15.916" x2="40.896" y2="36.082" gradientUnits="userSpaceOnUse"><stop stop-color="#FFE5AC"/><stop offset="1" stop-color="#B99C5D"/></linearGradient><linearGradient id="paint1_linear" x1="50.371" y1="7.379" x2="50.371" y2="69.166" gradientUnits="userSpaceOnUse"><stop stop-color="#FFE5AC"/><stop offset="1" stop-color="#B99C5D"/></linearGradient><linearGradient id="paint2_linear" x1="49.897" y1="70.121" x2="49.897" y2="80.255" gradientUnits="userSpaceOnUse"><stop stop-color="#FFE5AC"/><stop offset="1" stop-color="#B99C5D"/></linearGradient><linearGradient id="paint3_linear" x1="50.385" y1="82.927" x2="50.385" y2="95.41" gradientUnits="userSpaceOnUse"><stop stop-color="#FFE5AC"/><stop offset="1" stop-color="#B99C5D"/></linearGradient><linearGradient id="paint4_linear" x1="83.953" y1="54.498" x2="83.953" y2="66.807" gradientUnits="userSpaceOnUse"><stop stop-color="#FFE5AC"/><stop offset="1" stop-color="#B99C5D"/></linearGradient><linearGradient id="paint5_linear" x1="16.394" y1="4.589" x2="16.394" y2="17.098" gradientUnits="userSpaceOnUse"><stop stop-color="#FFE5AC"/><stop offset="1" stop-color="#B99C5D"/></linearGradient><linearGradient id="paint6_linear" x1="16.672" y1="53.894" x2="16.672" y2="66.809" gradientUnits="userSpaceOnUse"><stop stop-color="#FFE5AC"/><stop offset="1" stop-color="#B99C5D"/></linearGradient><linearGradient id="paint7_linear" x1="84.215" y1="4.591" x2="84.215" y2="16.518" gradientUnits="userSpaceOnUse"><stop stop-color="#FFE5AC"/><stop offset="1" stop-color="#B99C5D"/></linearGradient><linearGradient id="paint8_linear" x1="91.518" y1="33.942" x2="91.518" y2="37.459" gradientUnits="userSpaceOnUse"><stop stop-color="#FFE5AC"/><stop offset="1" stop-color="#B99C5D"/></linearGradient><linearGradient id="paint9_linear" x1="8.697" y1="33.942" x2="8.697" y2="37.459" gradientUnits="userSpaceOnUse"><stop stop-color="#FFE5AC"/><stop offset="1" stop-color="#B99C5D"/></linearGradient><clipPath id="clip0"><path fill="#fff" d="M0 0h100v100H0z"/></clipPath></defs></svg>