<svg width="100" height="100" fill="none" xmlns="http://www.w3.org/2000/svg"><g clip-path="url(#clip0)"><g filter="url(#filter0_d)"><path d="M74.19 0H25.81a6.811 6.811 0 00-6.804 6.804v86.393A6.811 6.811 0 0025.809 100h48.38a6.811 6.811 0 006.804-6.803V6.804A6.811 6.811 0 0074.189 0zm3.563 93.197a3.568 3.568 0 01-3.564 3.563H25.81a3.568 3.568 0 01-3.563-3.564V44.709h55.507v48.489zM24.117 41.468l11.267-11.267a3.568 3.568 0 015.04 0l11.268 11.267H24.117zm53.636 0h-21.48l-3.983-3.983 12.468-12.468a3.568 3.568 0 015.04 0l7.955 7.955v8.496zm0-13.078l-5.665-5.664a6.811 6.811 0 00-9.621 0L49.999 35.195l-7.284-7.285a6.812 6.812 0 00-9.621 0L22.245 38.76V6.804A3.568 3.568 0 0125.81 3.24h48.38a3.568 3.568 0 013.564 3.564V28.39z" fill="#000"/><path d="M74.19 0H25.81a6.811 6.811 0 00-6.804 6.804v86.393A6.811 6.811 0 0025.809 100h48.38a6.811 6.811 0 006.804-6.803V6.804A6.811 6.811 0 0074.189 0zm3.563 93.197a3.568 3.568 0 01-3.564 3.563H25.81a3.568 3.568 0 01-3.563-3.564V44.709h55.507v48.489zM24.117 41.468l11.267-11.267a3.568 3.568 0 015.04 0l11.268 11.267H24.117zm53.636 0h-21.48l-3.983-3.983 12.468-12.468a3.568 3.568 0 015.04 0l7.955 7.955v8.496zm0-13.078l-5.665-5.664a6.811 6.811 0 00-9.621 0L49.999 35.195l-7.284-7.285a6.812 6.812 0 00-9.621 0L22.245 38.76V6.804A3.568 3.568 0 0125.81 3.24h48.38a3.568 3.568 0 013.564 3.564V28.39z" fill="url(#paint0_linear)"/></g><path d="M56.912 20.734h-2.103a5.099 5.099 0 00-3.189-3.189v-2.102a1.62 1.62 0 10-3.24 0v2.102a5.099 5.099 0 00-3.189 3.19h-2.102a1.62 1.62 0 100 3.24h2.102a5.099 5.099 0 003.19 3.188v2.103a1.62 1.62 0 103.24 0v-2.103a5.099 5.099 0 003.188-3.189h2.103a1.62 1.62 0 100-3.24zM50 24.19a1.838 1.838 0 01-1.836-1.836c0-1.012.824-1.836 1.836-1.836 1.013 0 1.836.823 1.836 1.836A1.838 1.838 0 0150 24.19z" fill="#000"/><path d="M56.912 20.734h-2.103a5.099 5.099 0 00-3.189-3.189v-2.102a1.62 1.62 0 10-3.24 0v2.102a5.099 5.099 0 00-3.189 3.19h-2.102a1.62 1.62 0 100 3.24h2.102a5.099 5.099 0 003.19 3.188v2.103a1.62 1.62 0 103.24 0v-2.103a5.099 5.099 0 003.188-3.189h2.103a1.62 1.62 0 100-3.24zM50 24.19a1.838 1.838 0 01-1.836-1.836c0-1.012.824-1.836 1.836-1.836 1.013 0 1.836.823 1.836 1.836A1.838 1.838 0 0150 24.19z" fill="url(#paint1_linear)"/><path d="M72.462 6.911h-3.455a1.62 1.62 0 100 3.24h3.455a1.62 1.62 0 100-3.24z" fill="#000"/><path d="M72.462 6.911h-3.455a1.62 1.62 0 100 3.24h3.455a1.62 1.62 0 100-3.24z" fill="url(#paint2_linear)"/><path d="M62.095 6.911H58.64a1.62 1.62 0 100 3.24h3.456a1.62 1.62 0 100-3.24z" fill="#000"/><path d="M62.095 6.911H58.64a1.62 1.62 0 100 3.24h3.456a1.62 1.62 0 100-3.24z" fill="url(#paint3_linear)"/><path d="M51.728 6.911h-3.456a1.62 1.62 0 100 3.24h3.456a1.62 1.62 0 100-3.24z" fill="#000"/><path d="M51.728 6.911h-3.456a1.62 1.62 0 100 3.24h3.456a1.62 1.62 0 100-3.24z" fill="url(#paint4_linear)"/><path d="M41.36 6.911H27.539a1.62 1.62 0 100 3.24H41.36a1.62 1.62 0 100-3.24z" fill="#000"/><path d="M41.36 6.911H27.539a1.62 1.62 0 100 3.24H41.36a1.62 1.62 0 100-3.24z" fill="url(#paint5_linear)"/><path d="M63.823 48.38H36.178a1.62 1.62 0 100 3.24h27.645a1.62 1.62 0 100-3.24z" fill="#000"/><path d="M63.823 48.38H36.178a1.62 1.62 0 100 3.24h27.645a1.62 1.62 0 100-3.24z" fill="url(#paint6_linear)"/><path d="M37.905 74.298H27.538a1.62 1.62 0 100 3.24h10.367a1.62 1.62 0 100-3.24z" fill="#000"/><path d="M37.905 74.298H27.538a1.62 1.62 0 100 3.24h10.367a1.62 1.62 0 100-3.24z" fill="url(#paint7_linear)"/><path d="M55.183 74.298H44.816a1.62 1.62 0 100 3.24h10.367a1.62 1.62 0 100-3.24z" fill="#000"/><path d="M55.183 74.298H44.816a1.62 1.62 0 100 3.24h10.367a1.62 1.62 0 100-3.24z" fill="url(#paint8_linear)"/><path d="M72.463 74.298H62.096a1.62 1.62 0 100 3.24h10.367a1.62 1.62 0 100-3.24z" fill="#000"/><path d="M72.463 74.298H62.096a1.62 1.62 0 100 3.24h10.367a1.62 1.62 0 100-3.24z" fill="url(#paint9_linear)"/><path d="M46.544 81.21h-8.639a1.62 1.62 0 100 3.24h8.64a1.62 1.62 0 100-3.24z" fill="#000"/><path d="M46.544 81.21h-8.639a1.62 1.62 0 100 3.24h8.64a1.62 1.62 0 100-3.24z" fill="url(#paint10_linear)"/><path d="M30.993 81.21h-1.728a1.62 1.62 0 100 3.24h1.728a1.62 1.62 0 100-3.24z" fill="#000"/><path d="M30.993 81.21h-1.728a1.62 1.62 0 100 3.24h1.728a1.62 1.62 0 100-3.24z" fill="url(#paint11_linear)"/><path d="M70.735 81.21h-8.64a1.62 1.62 0 100 3.24h8.64a1.62 1.62 0 100-3.24z" fill="#000"/><path d="M70.735 81.21h-8.64a1.62 1.62 0 100 3.24h8.64a1.62 1.62 0 100-3.24z" fill="url(#paint12_linear)"/><path d="M55.183 81.21h-1.728a1.62 1.62 0 100 3.24h1.728a1.62 1.62 0 100-3.24z" fill="#000"/><path d="M55.183 81.21h-1.728a1.62 1.62 0 100 3.24h1.728a1.62 1.62 0 100-3.24z" fill="url(#paint13_linear)"/><path d="M46.544 88.12h-8.639a1.62 1.62 0 100 3.24h8.64a1.62 1.62 0 100-3.24z" fill="#000"/><path d="M46.544 88.12h-8.639a1.62 1.62 0 100 3.24h8.64a1.62 1.62 0 100-3.24z" fill="url(#paint14_linear)"/><path d="M30.993 88.12h-1.728a1.62 1.62 0 100 3.24h1.728a1.62 1.62 0 100-3.24z" fill="#000"/><path d="M30.993 88.12h-1.728a1.62 1.62 0 100 3.24h1.728a1.62 1.62 0 100-3.24z" fill="url(#paint15_linear)"/><path d="M70.735 88.12h-8.64a1.62 1.62 0 100 3.24h8.64a1.62 1.62 0 100-3.24z" fill="#000"/><path d="M70.735 88.12h-8.64a1.62 1.62 0 100 3.24h8.64a1.62 1.62 0 100-3.24z" fill="url(#paint16_linear)"/><path d="M55.183 88.12h-1.728a1.62 1.62 0 100 3.24h1.728a1.62 1.62 0 100-3.24z" fill="#000"/><path d="M55.183 88.12h-1.728a1.62 1.62 0 100 3.24h1.728a1.62 1.62 0 100-3.24z" fill="url(#paint17_linear)"/><path d="M55.183 55.292H44.816a1.62 1.62 0 00-1.62 1.62v12.095c0 .895.725 1.62 1.62 1.62h10.367a1.62 1.62 0 001.62-1.62V56.912a1.62 1.62 0 00-1.62-1.62zm-1.62 12.095h-7.127v-8.855h7.127v8.855z" fill="#000"/><path d="M55.183 55.292H44.816a1.62 1.62 0 00-1.62 1.62v12.095c0 .895.725 1.62 1.62 1.62h10.367a1.62 1.62 0 001.62-1.62V56.912a1.62 1.62 0 00-1.62-1.62zm-1.62 12.095h-7.127v-8.855h7.127v8.855z" fill="url(#paint18_linear)"/><path d="M72.463 55.292H62.096a1.62 1.62 0 00-1.62 1.62v12.095c0 .895.725 1.62 1.62 1.62h10.367a1.62 1.62 0 001.62-1.62V56.912a1.62 1.62 0 00-1.62-1.62zm-1.62 12.095h-7.128v-8.855h7.128v8.855z" fill="#000"/><path d="M72.463 55.292H62.096a1.62 1.62 0 00-1.62 1.62v12.095c0 .895.725 1.62 1.62 1.62h10.367a1.62 1.62 0 001.62-1.62V56.912a1.62 1.62 0 00-1.62-1.62zm-1.62 12.095h-7.128v-8.855h7.128v8.855z" fill="url(#paint19_linear)"/><path d="M37.905 55.292H27.538a1.62 1.62 0 00-1.62 1.62v12.095c0 .895.725 1.62 1.62 1.62h10.367a1.62 1.62 0 001.62-1.62V56.912a1.62 1.62 0 00-1.62-1.62zm-1.62 12.095h-7.127v-8.855h7.127v8.855z" fill="#000"/><path d="M37.905 55.292H27.538a1.62 1.62 0 00-1.62 1.62v12.095c0 .895.725 1.62 1.62 1.62h10.367a1.62 1.62 0 001.62-1.62V56.912a1.62 1.62 0 00-1.62-1.62zm-1.62 12.095h-7.127v-8.855h7.127v8.855z" fill="url(#paint20_linear)"/></g><defs><linearGradient id="paint0_linear" x1="49.999" y1="0" x2="49.999" y2="100" gradientUnits="userSpaceOnUse"><stop stop-color="#FFE5AC"/><stop offset="0" stop-color="#FFE5AC"/><stop offset="1" stop-color="#B99C5D"/></linearGradient><linearGradient id="paint1_linear" x1="50" y1="13.823" x2="50" y2="30.886" gradientUnits="userSpaceOnUse"><stop stop-color="#FFE5AC"/><stop offset="0" stop-color="#FFE5AC"/><stop offset="1" stop-color="#B99C5D"/></linearGradient><linearGradient id="paint2_linear" x1="70.734" y1="6.911" x2="70.734" y2="10.151" gradientUnits="userSpaceOnUse"><stop stop-color="#FFE5AC"/><stop offset="0" stop-color="#FFE5AC"/><stop offset="1" stop-color="#B99C5D"/></linearGradient><linearGradient id="paint3_linear" x1="60.367" y1="6.911" x2="60.367" y2="10.151" gradientUnits="userSpaceOnUse"><stop stop-color="#FFE5AC"/><stop offset="0" stop-color="#FFE5AC"/><stop offset="1" stop-color="#B99C5D"/></linearGradient><linearGradient id="paint4_linear" x1="50" y1="6.911" x2="50" y2="10.151" gradientUnits="userSpaceOnUse"><stop stop-color="#FFE5AC"/><stop offset="0" stop-color="#FFE5AC"/><stop offset="1" stop-color="#B99C5D"/></linearGradient><linearGradient id="paint5_linear" x1="34.449" y1="6.911" x2="34.449" y2="10.151" gradientUnits="userSpaceOnUse"><stop stop-color="#FFE5AC"/><stop offset="0" stop-color="#FFE5AC"/><stop offset="1" stop-color="#B99C5D"/></linearGradient><linearGradient id="paint6_linear" x1="50" y1="48.38" x2="50" y2="51.62" gradientUnits="userSpaceOnUse"><stop stop-color="#FFE5AC"/><stop offset="0" stop-color="#FFE5AC"/><stop offset="1" stop-color="#B99C5D"/></linearGradient><linearGradient id="paint7_linear" x1="32.721" y1="74.298" x2="32.721" y2="77.538" gradientUnits="userSpaceOnUse"><stop stop-color="#FFE5AC"/><stop offset="0" stop-color="#FFE5AC"/><stop offset="1" stop-color="#B99C5D"/></linearGradient><linearGradient id="paint8_linear" x1="50" y1="74.298" x2="50" y2="77.538" gradientUnits="userSpaceOnUse"><stop stop-color="#FFE5AC"/><stop offset="0" stop-color="#FFE5AC"/><stop offset="1" stop-color="#B99C5D"/></linearGradient><linearGradient id="paint9_linear" x1="67.279" y1="74.298" x2="67.279" y2="77.538" gradientUnits="userSpaceOnUse"><stop stop-color="#FFE5AC"/><stop offset="0" stop-color="#FFE5AC"/><stop offset="1" stop-color="#B99C5D"/></linearGradient><linearGradient id="paint10_linear" x1="42.225" y1="81.21" x2="42.225" y2="84.449" gradientUnits="userSpaceOnUse"><stop stop-color="#FFE5AC"/><stop offset="0" stop-color="#FFE5AC"/><stop offset="1" stop-color="#B99C5D"/></linearGradient><linearGradient id="paint11_linear" x1="30.129" y1="81.21" x2="30.129" y2="84.449" gradientUnits="userSpaceOnUse"><stop stop-color="#FFE5AC"/><stop offset="0" stop-color="#FFE5AC"/><stop offset="1" stop-color="#B99C5D"/></linearGradient><linearGradient id="paint12_linear" x1="66.415" y1="81.21" x2="66.415" y2="84.449" gradientUnits="userSpaceOnUse"><stop stop-color="#FFE5AC"/><stop offset="0" stop-color="#FFE5AC"/><stop offset="1" stop-color="#B99C5D"/></linearGradient><linearGradient id="paint13_linear" x1="54.319" y1="81.21" x2="54.319" y2="84.449" gradientUnits="userSpaceOnUse"><stop stop-color="#FFE5AC"/><stop offset="0" stop-color="#FFE5AC"/><stop offset="1" stop-color="#B99C5D"/></linearGradient><linearGradient id="paint14_linear" x1="42.225" y1="88.121" x2="42.225" y2="91.361" gradientUnits="userSpaceOnUse"><stop stop-color="#FFE5AC"/><stop offset="0" stop-color="#FFE5AC"/><stop offset="1" stop-color="#B99C5D"/></linearGradient><linearGradient id="paint15_linear" x1="30.129" y1="88.121" x2="30.129" y2="91.361" gradientUnits="userSpaceOnUse"><stop stop-color="#FFE5AC"/><stop offset="0" stop-color="#FFE5AC"/><stop offset="1" stop-color="#B99C5D"/></linearGradient><linearGradient id="paint16_linear" x1="66.415" y1="88.121" x2="66.415" y2="91.361" gradientUnits="userSpaceOnUse"><stop stop-color="#FFE5AC"/><stop offset="0" stop-color="#FFE5AC"/><stop offset="1" stop-color="#B99C5D"/></linearGradient><linearGradient id="paint17_linear" x1="54.319" y1="88.121" x2="54.319" y2="91.361" gradientUnits="userSpaceOnUse"><stop stop-color="#FFE5AC"/><stop offset="0" stop-color="#FFE5AC"/><stop offset="1" stop-color="#B99C5D"/></linearGradient><linearGradient id="paint18_linear" x1="50" y1="55.292" x2="50" y2="70.627" gradientUnits="userSpaceOnUse"><stop stop-color="#FFE5AC"/><stop offset="0" stop-color="#FFE5AC"/><stop offset="1" stop-color="#B99C5D"/></linearGradient><linearGradient id="paint19_linear" x1="67.279" y1="55.292" x2="67.279" y2="70.627" gradientUnits="userSpaceOnUse"><stop stop-color="#FFE5AC"/><stop offset="0" stop-color="#FFE5AC"/><stop offset="1" stop-color="#B99C5D"/></linearGradient><linearGradient id="paint20_linear" x1="32.721" y1="55.292" x2="32.721" y2="70.627" gradientUnits="userSpaceOnUse"><stop stop-color="#FFE5AC"/><stop offset="0" stop-color="#FFE5AC"/><stop offset="1" stop-color="#B99C5D"/></linearGradient><clipPath id="clip0"><path fill="#fff" d="M0 0h100v100H0z"/></clipPath><filter id="filter0_d" x="15.006" y="0" width="69.987" height="108" filterUnits="userSpaceOnUse" color-interpolation-filters="sRGB"><feFlood flood-opacity="0" result="BackgroundImageFix"/><feColorMatrix in="SourceAlpha" values="0 0 0 0 0 0 0 0 0 0 0 0 0 0 0 0 0 0 127 0"/><feOffset dy="4"/><feGaussianBlur stdDeviation="2"/><feColorMatrix values="0 0 0 0 0 0 0 0 0 0 0 0 0 0 0 0 0 0 0.25 0"/><feBlend in2="BackgroundImageFix" result="effect1_dropShadow"/><feBlend in="SourceGraphic" in2="effect1_dropShadow" result="shape"/></filter></defs></svg>