<svg width="100" height="100" fill="none" xmlns="http://www.w3.org/2000/svg"><path d="M40.625 51.781v-6.468a4.676 4.676 0 00-9.219-1.125L16.891 50H7.813a4.701 4.701 0 00-4.688 4.688v6.25a4.701 4.701 0 004.688 4.687V81.25a3.134 3.134 0 003.125 3.125h6.25a3.134 3.134 0 003.125-3.125V67l11.093 4.438a4.676 4.676 0 009.219-1.125v-6.47a6.223 6.223 0 000-12.062zm-31.25 10.72H7.812a1.563 1.563 0 01-1.562-1.563v-6.25a1.563 1.563 0 011.563-1.563h1.562V62.5zm3.125-9.376h3.125V62.5H12.5v-9.375zm4.688 28.125h-6.25V65.625h5.953l.297.125v15.5zM31.25 68l-12.5-5V52.625l12.5-5V68zm6.25 2.313a1.562 1.562 0 11-3.125 0v-25a1.563 1.563 0 113.125 0v25zm3.125-9.813v-5.375a3.092 3.092 0 010 5.375z" fill="#000"/><path d="M40.625 51.781v-6.468a4.676 4.676 0 00-9.219-1.125L16.891 50H7.813a4.701 4.701 0 00-4.688 4.688v6.25a4.701 4.701 0 004.688 4.687V81.25a3.134 3.134 0 003.125 3.125h6.25a3.134 3.134 0 003.125-3.125V67l11.093 4.438a4.676 4.676 0 009.219-1.125v-6.47a6.223 6.223 0 000-12.062zm-31.25 10.72H7.812a1.563 1.563 0 01-1.562-1.563v-6.25a1.563 1.563 0 011.563-1.563h1.562V62.5zm3.125-9.376h3.125V62.5H12.5v-9.375zm4.688 28.125h-6.25V65.625h5.953l.297.125v15.5zM31.25 68l-12.5-5V52.625l12.5-5V68zm6.25 2.313a1.562 1.562 0 11-3.125 0v-25a1.563 1.563 0 113.125 0v25zm3.125-9.813v-5.375a3.092 3.092 0 010 5.375z" fill="url(#paint0_linear)"/><path d="M82.813 89.063a4.688 4.688 0 01-4.688 4.687h-56.25a4.688 4.688 0 01-4.688-4.688V87.5h-3.125v1.563a7.822 7.822 0 007.813 7.812h56.25a7.822 7.822 0 007.813-7.813v-18.75h-3.126v18.75z" fill="#000"/><path d="M82.813 89.063a4.688 4.688 0 01-4.688 4.687h-56.25a4.688 4.688 0 01-4.688-4.688V87.5h-3.125v1.563a7.822 7.822 0 007.813 7.812h56.25a7.822 7.822 0 007.813-7.813v-18.75h-3.126v18.75z" fill="url(#paint1_linear)"/><path d="M17.188 10.938a4.688 4.688 0 014.687-4.688h48.438v7.813A4.688 4.688 0 0075 18.75h7.813v21.875h3.124V17.187a1.56 1.56 0 00-.457-1.104l-12.5-12.5a1.563 1.563 0 00-1.105-.458h-50a7.822 7.822 0 00-7.813 7.813v35.937h3.126V10.937zm56.25 3.124V8.46l7.165 7.166H75a1.563 1.563 0 01-1.563-1.563z" fill="#000"/><path d="M17.188 10.938a4.688 4.688 0 014.687-4.688h48.438v7.813A4.688 4.688 0 0075 18.75h7.813v21.875h3.124V17.187a1.56 1.56 0 00-.457-1.104l-12.5-12.5a1.563 1.563 0 00-1.105-.458h-50a7.822 7.822 0 00-7.813 7.813v35.937h3.126V10.937zm56.25 3.124V8.46l7.165 7.166H75a1.563 1.563 0 01-1.563-1.563z" fill="url(#paint2_linear)"/><path d="M23.438 12.5h3.125v3.125h-3.125V12.5z" fill="#000"/><path d="M23.438 12.5h3.125v3.125h-3.125V12.5z" fill="url(#paint3_linear)"/><path d="M29.688 12.5h9.375v3.125h-9.376V12.5z" fill="#000"/><path d="M29.688 12.5h9.375v3.125h-9.376V12.5z" fill="url(#paint4_linear)"/><path d="M23.438 18.75h15.625v3.125H23.437V18.75z" fill="#000"/><path d="M23.438 18.75h15.625v3.125H23.437V18.75z" fill="url(#paint5_linear)"/><path d="M23.438 28.125h3.125v3.125h-3.125v-3.125z" fill="#000"/><path d="M23.438 28.125h3.125v3.125h-3.125v-3.125z" fill="url(#paint6_linear)"/><path d="M29.688 28.125h3.125v3.125h-3.126v-3.125z" fill="#000"/><path d="M29.688 28.125h3.125v3.125h-3.126v-3.125z" fill="url(#paint7_linear)"/><path d="M35.938 28.125h3.124v3.125h-3.124v-3.125z" fill="#000"/><path d="M35.938 28.125h3.124v3.125h-3.124v-3.125z" fill="url(#paint8_linear)"/><path d="M42.188 28.125h31.25v3.125h-31.25v-3.125z" fill="#000"/><path d="M42.188 28.125h31.25v3.125h-31.25v-3.125z" fill="url(#paint9_linear)"/><path d="M23.438 34.375h50V37.5h-50v-3.125z" fill="#000"/><path d="M23.438 34.375h50V37.5h-50v-3.125z" fill="url(#paint10_linear)"/><path d="M48.438 40.625h25v3.125h-25v-3.125z" fill="#000"/><path d="M48.438 40.625h25v3.125h-25v-3.125z" fill="url(#paint11_linear)"/><path d="M48.438 46.875h25V50h-25v-3.125z" fill="#000"/><path d="M48.438 46.875h25V50h-25v-3.125z" fill="url(#paint12_linear)"/><path d="M48.438 53.125h18.75v3.125h-18.75v-3.125z" fill="#000"/><path d="M48.438 53.125h18.75v3.125h-18.75v-3.125z" fill="url(#paint13_linear)"/><path d="M31.25 84.375h15.625V87.5H31.25v-3.125z" fill="#000"/><path d="M31.25 84.375h15.625V87.5H31.25v-3.125z" fill="url(#paint14_linear)"/><path d="M31.25 78.125h15.625v3.125H31.25v-3.125z" fill="#000"/><path d="M31.25 78.125h15.625v3.125H31.25v-3.125z" fill="url(#paint15_linear)"/><path d="M95.11 43.953a7.822 7.822 0 00-11.049 0L56.44 71.575a1.563 1.563 0 00-.426.797L55 77.432l-2.98 2.98a4.687 4.687 0 106.629 6.63l2.98-2.98 5.062-1.012c.302-.06.58-.21.797-.428L95.11 55a7.822 7.822 0 000-11.047zM58.136 77.691l.736-3.685 6.183 6.183-3.683.738-3.236-3.236zm2.722-6.116l18.783-18.784L81.85 55 63.07 73.783l-2.211-2.209zm4.42 4.419L84.063 57.21l2.21 2.211-18.785 18.781-2.21-2.21zM81.852 50.58l1.105-1.104 6.63 6.63-1.107 1.106-6.628-6.632zM56.438 84.833a1.598 1.598 0 01-2.208 0 1.561 1.561 0 010-2.211l2.21-2.21 2.21 2.212-2.212 2.209zM92.9 52.793l-1.105 1.104-6.63-6.63 1.105-1.104a4.689 4.689 0 016.63 6.63z" fill="#000"/><path d="M95.11 43.953a7.822 7.822 0 00-11.049 0L56.44 71.575a1.563 1.563 0 00-.426.797L55 77.432l-2.98 2.98a4.687 4.687 0 106.629 6.63l2.98-2.98 5.062-1.012c.302-.06.58-.21.797-.428L95.11 55a7.822 7.822 0 000-11.047zM58.136 77.691l.736-3.685 6.183 6.183-3.683.738-3.236-3.236zm2.722-6.116l18.783-18.784L81.85 55 63.07 73.783l-2.211-2.209zm4.42 4.419L84.063 57.21l2.21 2.211-18.785 18.781-2.21-2.21zM81.852 50.58l1.105-1.104 6.63 6.63-1.107 1.106-6.628-6.632zM56.438 84.833a1.598 1.598 0 01-2.208 0 1.561 1.561 0 010-2.211l2.21-2.21 2.21 2.212-2.212 2.209zM92.9 52.793l-1.105 1.104-6.63-6.63 1.105-1.104a4.689 4.689 0 016.63 6.63z" fill="url(#paint16_linear)"/><defs><linearGradient id="paint0_linear" x1="24.219" y1="40.624" x2="24.219" y2="84.375" gradientUnits="userSpaceOnUse"><stop stop-color="#FFE5AC"/><stop offset="0" stop-color="#FFE5AC"/><stop offset="1" stop-color="#B99C5D"/></linearGradient><linearGradient id="paint1_linear" x1="50" y1="70.313" x2="50" y2="96.875" gradientUnits="userSpaceOnUse"><stop stop-color="#FFE5AC"/><stop offset="0" stop-color="#FFE5AC"/><stop offset="1" stop-color="#B99C5D"/></linearGradient><linearGradient id="paint2_linear" x1="50" y1="3.125" x2="50" y2="46.875" gradientUnits="userSpaceOnUse"><stop stop-color="#FFE5AC"/><stop offset="0" stop-color="#FFE5AC"/><stop offset="1" stop-color="#B99C5D"/></linearGradient><linearGradient id="paint3_linear" x1="25" y1="12.5" x2="25" y2="15.625" gradientUnits="userSpaceOnUse"><stop stop-color="#FFE5AC"/><stop offset="0" stop-color="#FFE5AC"/><stop offset="1" stop-color="#B99C5D"/></linearGradient><linearGradient id="paint4_linear" x1="34.375" y1="12.5" x2="34.375" y2="15.625" gradientUnits="userSpaceOnUse"><stop stop-color="#FFE5AC"/><stop offset="0" stop-color="#FFE5AC"/><stop offset="1" stop-color="#B99C5D"/></linearGradient><linearGradient id="paint5_linear" x1="31.25" y1="18.75" x2="31.25" y2="21.875" gradientUnits="userSpaceOnUse"><stop stop-color="#FFE5AC"/><stop offset="0" stop-color="#FFE5AC"/><stop offset="1" stop-color="#B99C5D"/></linearGradient><linearGradient id="paint6_linear" x1="25" y1="28.125" x2="25" y2="31.25" gradientUnits="userSpaceOnUse"><stop stop-color="#FFE5AC"/><stop offset="0" stop-color="#FFE5AC"/><stop offset="1" stop-color="#B99C5D"/></linearGradient><linearGradient id="paint7_linear" x1="31.25" y1="28.125" x2="31.25" y2="31.25" gradientUnits="userSpaceOnUse"><stop stop-color="#FFE5AC"/><stop offset="0" stop-color="#FFE5AC"/><stop offset="1" stop-color="#B99C5D"/></linearGradient><linearGradient id="paint8_linear" x1="37.5" y1="28.125" x2="37.5" y2="31.25" gradientUnits="userSpaceOnUse"><stop stop-color="#FFE5AC"/><stop offset="0" stop-color="#FFE5AC"/><stop offset="1" stop-color="#B99C5D"/></linearGradient><linearGradient id="paint9_linear" x1="57.813" y1="28.125" x2="57.813" y2="31.25" gradientUnits="userSpaceOnUse"><stop stop-color="#FFE5AC"/><stop offset="0" stop-color="#FFE5AC"/><stop offset="1" stop-color="#B99C5D"/></linearGradient><linearGradient id="paint10_linear" x1="48.438" y1="34.375" x2="48.438" y2="37.5" gradientUnits="userSpaceOnUse"><stop stop-color="#FFE5AC"/><stop offset="0" stop-color="#FFE5AC"/><stop offset="1" stop-color="#B99C5D"/></linearGradient><linearGradient id="paint11_linear" x1="60.938" y1="40.625" x2="60.938" y2="43.75" gradientUnits="userSpaceOnUse"><stop stop-color="#FFE5AC"/><stop offset="0" stop-color="#FFE5AC"/><stop offset="1" stop-color="#B99C5D"/></linearGradient><linearGradient id="paint12_linear" x1="60.938" y1="46.875" x2="60.938" y2="50" gradientUnits="userSpaceOnUse"><stop stop-color="#FFE5AC"/><stop offset="0" stop-color="#FFE5AC"/><stop offset="1" stop-color="#B99C5D"/></linearGradient><linearGradient id="paint13_linear" x1="57.813" y1="53.125" x2="57.813" y2="56.25" gradientUnits="userSpaceOnUse"><stop stop-color="#FFE5AC"/><stop offset="0" stop-color="#FFE5AC"/><stop offset="1" stop-color="#B99C5D"/></linearGradient><linearGradient id="paint14_linear" x1="39.063" y1="84.375" x2="39.063" y2="87.5" gradientUnits="userSpaceOnUse"><stop stop-color="#FFE5AC"/><stop offset="0" stop-color="#FFE5AC"/><stop offset="1" stop-color="#B99C5D"/></linearGradient><linearGradient id="paint15_linear" x1="39.063" y1="78.125" x2="39.063" y2="81.25" gradientUnits="userSpaceOnUse"><stop stop-color="#FFE5AC"/><stop offset="0" stop-color="#FFE5AC"/><stop offset="1" stop-color="#B99C5D"/></linearGradient><linearGradient id="paint16_linear" x1="74.007" y1="41.669" x2="74.007" y2="88.442" gradientUnits="userSpaceOnUse"><stop stop-color="#FFE5AC"/><stop offset="0" stop-color="#FFE5AC"/><stop offset="1" stop-color="#B99C5D"/></linearGradient></defs></svg>