<svg width="100" height="100" fill="none" xmlns="http://www.w3.org/2000/svg"><path d="M100 41.935h-3.624l-5.402 2.843c-.608-.336-1.24-.62-1.922-.79l-6.796-1.701v-.773a11.326 11.326 0 004.84-9.256v-2.82c0-6.265-4.909-11.509-10.943-11.691-.306-.008-.608.003-.911.018l1.761-4.125-8.54-8.538-5.035 3.277a27.28 27.28 0 00-6.038-2.505L56.147 0H43.855L42.61 5.876a27.251 27.251 0 00-6.037 2.504l-5.035-3.277-8.534 8.534 1.732 4.128c-.066-.003-.13-.015-.195-.017a11.207 11.207 0 00-8.208 3.183 11.187 11.187 0 00-3.43 8.101v3.226c0 3.692 1.832 7.156 4.838 9.255v.774l-4.432 1.108-8.034-4.685H0v33.42l15.868 5.288h3.09l.386-1.351 4.864 2.92a5.022 5.022 0 004.842 4.865 5.021 5.021 0 004.84 4.839 5.021 5.021 0 004.838 4.838c.096 2.693 2.301 4.857 5.016 4.857a5.08 5.08 0 002.827-.874L48 98.775A4.911 4.911 0 0051.245 100h.299a4.91 4.91 0 004.901-4.845 4.906 4.906 0 004.839-4.839 4.906 4.906 0 004.839-4.843c2.68-.063 4.845-2.253 4.845-4.95a4.61 4.61 0 00-.025-.483L100 65.513V41.935zM83.871 29.44v2.82a8.096 8.096 0 01-4.037 6.978l-.806.467.006 5.104 8.058 2.013-17.737 9.335v-4.345a8.025 8.025 0 00-2.31-5.62l5.536-1.383V39.7l-.805-.466a8.087 8.087 0 01-4.034-6.976v-3.226c0-2.2.87-4.256 2.45-5.788 1.579-1.531 3.674-2.357 5.864-2.271 4.309.129 7.815 3.927 7.815 8.466zM52.432 54.89l-7.301-2.334a19.918 19.918 0 00-10.335-.471l-.925.205v-.478a4.835 4.835 0 013.664-4.695l9.24-2.308V39.7l-.806-.466a8.087 8.087 0 01-4.034-6.976v-3.226c0-2.2.87-4.256 2.45-5.788 1.58-1.531 3.688-2.357 5.865-2.271 4.308.129 7.815 3.927 7.815 8.466v2.82a8.096 8.096 0 01-4.037 6.978l-.807.467.006 5.104 9.238 2.308a4.835 4.835 0 013.664 4.695v6.044l-.398.21h-.989l-9.916-2.834c-.781-.221-1.586-.312-2.394-.343zm-18.2-30.749c3.03-5.869 9.126-9.624 15.768-9.624 6.58 0 12.65 3.705 15.701 9.494a11.217 11.217 0 00-1.185 5.022v3.226c0 3.692 1.833 7.156 4.839 9.255v.774l-6.452 1.615-6.453-1.615v-.773a11.326 11.326 0 004.84-9.256v-2.82c0-6.265-4.91-11.509-10.944-11.691a11.205 11.205 0 00-8.207 3.182 11.197 11.197 0 00-3.43 8.103v3.226c0 3.692 1.833 7.156 4.84 9.255v.774l-6.452 1.615-6.453-1.615v-.773a11.326 11.326 0 004.84-9.256v-2.82c0-1.897-.457-3.7-1.252-5.298zm-7.418-9.755l5.154-5.153 4.535 2.952.868-.532a24.07 24.07 0 016.984-2.897l.992-.238 1.122-5.291h7.063l1.12 5.29.992.237c2.46.589 4.81 1.565 6.984 2.897l.867.533 4.536-2.952 5.147 5.148-1.83 4.284a11.254 11.254 0 00-3.404 2.263c-.067.065-.123.134-.188.2-3.8-6.04-10.518-9.836-17.756-9.836-7.29 0-14.027 3.831-17.818 9.933a11.377 11.377 0 00-3.558-2.523l-1.81-4.315zm-5.846 30.423V39.7l-.805-.466a8.087 8.087 0 01-4.034-6.976v-3.226c0-2.2.87-4.256 2.45-5.788 1.58-1.531 3.679-2.357 5.864-2.271 4.309.129 7.815 3.927 7.815 8.466v2.82a8.096 8.096 0 01-4.037 6.978l-.806.467.006 5.104 5.534 1.383a8.025 8.025 0 00-2.31 5.62v1.195l-5.03 1.118.13-.456.061-2.981-8.506-4.963 3.668-.916zM3.226 41.935h1.176l11.6 6.766-5.854 23.412-6.922-2.308v-27.87zm13.164 32.26l-3.175-1.058 5.686-22.742 3.679 2.145V53l-6.055 21.195h-.136zm11.028 4.643c0-.476.192-.942.53-1.279l2.835-2.835a1.81 1.81 0 012.558 2.558l-2.835 2.835a1.81 1.81 0 01-3.087-1.279zm4.84 4.839c0-.476.191-.942.528-1.28l2.836-2.835a1.81 1.81 0 012.558 2.558l-2.836 2.836a1.81 1.81 0 01-3.087-1.279zm4.838 4.838c0-.475.192-.941.529-1.279l2.835-2.835a1.81 1.81 0 012.558 2.558l-2.835 2.835a1.81 1.81 0 01-3.087-1.279zm6.647 6.647a1.81 1.81 0 01-1.28-3.087L45.3 89.24a1.81 1.81 0 012.558 2.558l-2.835 2.835a1.82 1.82 0 01-1.28.53zm7.8 1.613h-.299c-.411 0-.805-.15-1.111-.421l-1.207-1.064 1.212-1.211a5.011 5.011 0 001.015-1.5l1.467 1.222a1.684 1.684 0 01-1.077 2.975zm14.464-14.516h-.279c-.405 0-.8-.143-1.11-.403l-8.746-7.289-2.067 2.48 8.494 7.076a1.682 1.682 0 01-1.079 2.975h-.352a1.69 1.69 0 01-1.076-.39l-8.76-7.3-2.067 2.479 8.494 7.077c.383.318.605.789.605 1.29 0 .928-.755 1.683-1.683 1.683-.619 0-1.222-.22-1.697-.615l-3.6-3a5.017 5.017 0 00-4.33-2.819 5.021 5.021 0 00-4.84-4.839 5.021 5.021 0 00-4.838-4.838c-.094-2.693-2.3-4.857-5.014-4.857a5.069 5.069 0 00-3.56 1.474l-2.835 2.835c-.17.17-.31.362-.452.552l-4.955-2.973 4.344-15.201 10.888-2.42a16.609 16.609 0 018.654.39l2.376.76-8.055 4.028a5.376 5.376 0 00-2.984 4.832v.32a5.41 5.41 0 005.403 5.403c.98 0 1.942-.266 2.78-.771l6.005-3.602c1.207-.723 2.826-.564 3.868.373l13.628 12.264a1.735 1.735 0 01-1.16 3.026zM96.774 63.52L69.601 77.107a4.465 4.465 0 00-.277-.27L55.7 64.573a6.475 6.475 0 00-4.346-1.67c-1.176 0-2.33.32-3.342.926l-6.008 3.603a2.15 2.15 0 01-1.116.31 2.179 2.179 0 01-2.177-2.178v-.319c0-.83.461-1.576 1.203-1.946L48.91 58.8a7.01 7.01 0 015.027-.466l10.136 2.895 2.455.061 30.246-15.92v18.15z" fill="url(#paint0_linear)"/><defs><linearGradient id="paint0_linear" x1="50" y1="0" x2="50" y2="100" gradientUnits="userSpaceOnUse"><stop stop-color="#FFE5AC"/><stop offset="1" stop-color="#B99C5D"/></linearGradient></defs></svg>