<svg width="100" height="100" fill="none" xmlns="http://www.w3.org/2000/svg"><path d="M93.838 7.828H6.162A6.169 6.169 0 000 13.99v59.495a6.169 6.169 0 006.162 6.161h29.653l-1.199 9.596h-4.97a1.465 1.465 0 100 2.93h40.707a1.465 1.465 0 100-2.93h-4.969l-1.2-9.596h29.654A6.169 6.169 0 00100 73.485V13.99a6.169 6.169 0 00-6.162-6.162zm-56.27 81.414l1.2-9.596h5.391l.53 2.115A5.467 5.467 0 0050 85.91a5.467 5.467 0 005.312-4.148l.529-2.115h5.391l1.2 9.596H37.568zm9.611-9.596h5.642l-.352 1.405A2.542 2.542 0 0150 82.979a2.542 2.542 0 01-2.469-1.928l-.35-1.405zm49.891-6.161a3.236 3.236 0 01-3.232 3.232H6.162a3.236 3.236 0 01-3.232-3.232V13.99a3.236 3.236 0 013.232-3.232h87.676a3.236 3.236 0 013.232 3.232v59.495z" fill="url(#paint0_linear)"/><path d="M82.878 14.09H7.727c-.81 0-1.465.656-1.465 1.466v56.363c0 .81.655 1.465 1.465 1.465h3.131a1.465 1.465 0 100-2.93H9.192V17.021h73.686a1.465 1.465 0 100-2.93z" fill="url(#paint1_linear)"/><path d="M92.272 14.09h-3.131a1.465 1.465 0 100 2.93h1.666v53.434H17.121a1.465 1.465 0 100 2.93h75.151c.81 0 1.465-.656 1.465-1.465V15.556c0-.81-.656-1.465-1.465-1.465z" fill="url(#paint2_linear)"/><path d="M69.941 30.31a1.464 1.464 0 00-1.087-.561L34.41 28.183a1.44 1.44 0 00-.08-.002 3.035 3.035 0 00-1.218-1.638l-4.218-2.813a1.465 1.465 0 10-1.625 2.438l4.218 2.812c.02.013.034.033.04.056l5.374 18.805a4.6 4.6 0 00.797 1.569l-1.966 3.931a3.01 3.01 0 00.133 2.949c.202.326.457.604.751.827a4.567 4.567 0 00-.606 2.276 4.601 4.601 0 004.596 4.596 4.602 4.602 0 004.597-4.596 4.57 4.57 0 00-.315-1.666h13.355a4.568 4.568 0 00-.314 1.666 4.601 4.601 0 004.596 4.596 4.601 4.601 0 004.596-4.596c0-.735-.174-1.43-.482-2.046a1.465 1.465 0 00-.982-2.55H38.442c-.02 0-.056 0-.086-.048-.029-.047-.013-.079-.004-.098l1.811-3.621a4.6 4.6 0 001.694.113l20.583-2.421a6.147 6.147 0 005.322-4.912l2.462-12.31a1.465 1.465 0 00-.283-1.19zm-7.416 27.417a1.667 1.667 0 010 3.333 1.668 1.668 0 01-1.666-1.666c0-.92.747-1.667 1.666-1.667zm-21.919 0a1.667 1.667 0 010 3.333 1.668 1.668 0 01-1.666-1.666c0-.92.747-1.667 1.666-1.667zm-3.592-20.152l-1.836-6.424 5.857.266 1.015 6.158h-5.036zm4.5 10.659a1.66 1.66 0 01-1.797-1.198l-1.866-6.53h4.682l1.23 7.463-2.249.265zm8.587-1.01l-3.424.403-1.174-7.122H50.1v6.719zm0-9.649h-5.082l-.993-6.022 6.075.276v5.746zm7.418 8.776l-4.488.528v-6.374h5.017l-.529 5.846zm.794-8.776h-5.282v-5.613l5.767.262-.485 5.351zm6.576 5.661a3.224 3.224 0 01-2.792 2.576l-1.605.19.498-5.497h4.445l-.546 2.731zm1.132-5.66h-4.766l.473-5.219 5.289.24-.996 4.978z" fill="url(#paint3_linear)"/><defs><linearGradient id="paint0_linear" x1="50" y1="7.828" x2="50" y2="92.171" gradientUnits="userSpaceOnUse"><stop stop-color="#FFE5AC"/><stop offset="0" stop-color="#FFE5AC"/><stop offset="1" stop-color="#B99C5D"/></linearGradient><linearGradient id="paint1_linear" x1="45.302" y1="14.091" x2="45.302" y2="73.384" gradientUnits="userSpaceOnUse"><stop stop-color="#FFE5AC"/><stop offset="0" stop-color="#FFE5AC"/><stop offset="1" stop-color="#B99C5D"/></linearGradient><linearGradient id="paint2_linear" x1="54.697" y1="14.091" x2="54.697" y2="73.384" gradientUnits="userSpaceOnUse"><stop stop-color="#FFE5AC"/><stop offset="0" stop-color="#FFE5AC"/><stop offset="1" stop-color="#B99C5D"/></linearGradient><linearGradient id="paint3_linear" x1="48.434" y1="23.484" x2="48.434" y2="63.989" gradientUnits="userSpaceOnUse"><stop stop-color="#FFE5AC"/><stop offset="0" stop-color="#FFE5AC"/><stop offset="1" stop-color="#B99C5D"/></linearGradient></defs></svg>