<svg width="100" height="100" fill="none" xmlns="http://www.w3.org/2000/svg"><path d="M73.903 64.413L61.291 61.61v-3.986c4.706-3.397 7.822-8.847 8.03-15.032 4.176-4.407 6.486-10.136 6.486-16.232v-7.005c0-4.085-3.053-7.471-6.999-7.995A20.22 20.22 0 0050.62 0h-2.715a23.826 23.826 0 00-14.558 4.995c-5.818 4.524-9.153 11.347-9.153 18.716v2.65c0 6.095 2.31 11.826 6.485 16.232.21 6.186 3.324 11.636 8.03 15.033v3.985l-12.612 2.802C16.43 66.56 9.677 74.976 9.677 84.88V100h80.645V84.88c0-9.904-6.75-18.319-16.419-20.467zm-11.198.814l-2.461 11.074-7.607-5.432 7.465-6.22 2.603.578zM50 68.867l-8.064-6.72v-2.64A19.22 19.22 0 0050 61.29c2.88 0 5.607-.65 8.065-1.782v2.639L50 68.867zM30.645 27.42v9.94a20.262 20.262 0 01-3.226-11v-2.648c0-6.366 2.883-12.26 7.909-16.169a20.578 20.578 0 0112.577-4.316h2.714a16.998 16.998 0 0115.64 10.313l.42.977h1.063a4.845 4.845 0 014.839 4.839v7.005c0 3.963-1.134 7.745-3.226 11V24.194h-2.25a9.232 9.232 0 01-7.698-4.121l-.48-.718h-3.39l-.47.782c-2.693 4.492-7.622 7.282-12.859 7.282H30.645zm3.226 14.516v-11.29h8.337c6.026 0 11.717-3.04 15.084-7.997a12.442 12.442 0 008.838 4.734v14.554c0 8.893-7.236 16.129-16.13 16.129-8.893 0-16.129-7.236-16.129-16.13zm6.026 22.715l7.464 6.22-7.606 5.433-2.461-11.074 2.603-.58zm3.78 32.124H29.033v-6.452h-3.225v6.452H12.903V84.88c0-8.379 5.713-15.501 13.892-17.317l7.35-1.634 3.52 15.834 5.576-3.984 1.864 1.864-1.427 17.13zm9.409 0h-6.171l1.529-18.353-2.544-2.544L50 72.95l4.1 2.929-2.543 2.543 1.529 18.352zm34.01 0H74.195v-6.452h-3.226v6.452H56.323l-1.428-17.13 1.865-1.865 5.576 3.984 3.519-15.834 7.35 1.634c8.179 1.816 13.892 8.938 13.892 17.317v11.894z" fill="url(#paint0_linear)"/><defs><linearGradient id="paint0_linear" x1="50" y1="0" x2="50" y2="100" gradientUnits="userSpaceOnUse"><stop stop-color="#FFE5AC"/><stop offset="1" stop-color="#B99C5D"/></linearGradient></defs></svg>