<svg width="100" height="100" fill="none" xmlns="http://www.w3.org/2000/svg"><path d="M92.366 43.75h-4.865a4.792 4.792 0 00-4.573-3.515h-5.194v-12.7a1.34 1.34 0 00-.653-1.184L40.445 5.19a1.353 1.353 0 00-1.36 0L2.438 26.35a1.364 1.364 0 00-.68 1.184v42.32a1.367 1.367 0 00.683 1.185L39.093 92.2c.207.12.443.184.683.184.246 0 .488-.063.703-.184l19.287-11.124v8.042a5.79 5.79 0 005.838 5.804h26.762a5.822 5.822 0 005.876-5.804V49.645a5.899 5.899 0 00-5.876-5.895zm-9.39-.781a1.985 1.985 0 011.985 1.984v.133a1.985 1.985 0 01-1.985 1.985h-7.945a1.985 1.985 0 01-1.984-1.985v-.133a1.985 1.985 0 011.984-1.984h7.945zm-43.2-35.016l15.23 8.792-33.915 19.58-15.23-8.792 33.915-19.58zm-1.3 80.695L4.493 69.066V29.9l33.984 19.58v39.167zm1.3-41.534l-15.95-9.21 33.914-19.58 15.951 9.21-33.915 19.58zm19.99 2.531V77.92L41.21 88.649V49.48L75 29.9v10.335h.042a4.793 4.793 0 00-4.573 3.515h-4.865a5.867 5.867 0 00-5.838 5.895zm35.742 39.473a3.084 3.084 0 01-3.142 3.07H65.604a3.052 3.052 0 01-3.104-3.07V49.645a3.128 3.128 0 013.104-3.16h4.918a4.676 4.676 0 004.52 3.32h7.886a4.675 4.675 0 004.52-3.32h4.918a3.161 3.161 0 013.142 3.16v39.473z" fill="url(#paint0_linear)"/><path d="M67.178 63.477h1.43a1.367 1.367 0 000-2.735h-.053v-3.71h3.77a1.317 1.317 0 001.3.923A1.37 1.37 0 0075 56.59v-.92a1.385 1.385 0 00-1.382-1.373h-6.44a1.365 1.365 0 00-1.358 1.373v6.44a1.36 1.36 0 001.358 1.367z" fill="url(#paint1_linear)"/><path d="M67.188 75.977h6.445A1.367 1.367 0 0075 74.609v-6.445a1.367 1.367 0 00-1.367-1.367h-6.445a1.367 1.367 0 00-1.368 1.367v6.445a1.367 1.367 0 001.368 1.368zm1.367-6.446h3.71v3.711h-3.71v-3.71z" fill="url(#paint2_linear)"/><path d="M68.608 85.742h-.054v-3.71h3.697a1.374 1.374 0 002.749.002v-1.317a1.426 1.426 0 00-1.382-1.42h-6.44a1.405 1.405 0 00-1.358 1.42v6.44a1.319 1.319 0 001.357 1.32h1.431a1.367 1.367 0 000-2.735z" fill="url(#paint3_linear)"/><path d="M76.765 55.975l-4.004 4.004-1.218-1.218a1.37 1.37 0 00-1.933 0 1.37 1.37 0 000 1.933l2.185 2.185a1.367 1.367 0 001.933 0l4.972-4.971a1.367 1.367 0 00-1.934-1.934z" fill="url(#paint4_linear)"/><path d="M76.765 81.219l-4.004 4.004-1.218-1.218a1.366 1.366 0 10-1.933 1.933l2.185 2.185a1.367 1.367 0 001.933 0l4.972-4.971a1.367 1.367 0 00-1.934-1.934z" fill="url(#paint5_linear)"/><path d="M90.793 57.617h-8.587a1.367 1.367 0 100 2.735h8.587a1.367 1.367 0 000-2.735z" fill="url(#paint6_linear)"/><path d="M90.793 70.117h-8.587a1.367 1.367 0 100 2.735h8.587a1.367 1.367 0 000-2.735z" fill="url(#paint7_linear)"/><path d="M90.793 82.617h-8.587a1.367 1.367 0 100 2.735h8.587a1.367 1.367 0 000-2.735z" fill="url(#paint8_linear)"/><defs><linearGradient id="paint0_linear" x1="50" y1="5.007" x2="50" y2="94.922" gradientUnits="userSpaceOnUse"><stop stop-color="#FFE5AC"/><stop offset="0" stop-color="#FFE5AC"/><stop offset="1" stop-color="#B99C5D"/></linearGradient><linearGradient id="paint1_linear" x1="70.41" y1="54.297" x2="70.41" y2="63.477" gradientUnits="userSpaceOnUse"><stop stop-color="#FFE5AC"/><stop offset="0" stop-color="#FFE5AC"/><stop offset="1" stop-color="#B99C5D"/></linearGradient><linearGradient id="paint2_linear" x1="70.41" y1="66.797" x2="70.41" y2="75.977" gradientUnits="userSpaceOnUse"><stop stop-color="#FFE5AC"/><stop offset="0" stop-color="#FFE5AC"/><stop offset="1" stop-color="#B99C5D"/></linearGradient><linearGradient id="paint3_linear" x1="70.41" y1="79.297" x2="70.41" y2="88.477" gradientUnits="userSpaceOnUse"><stop stop-color="#FFE5AC"/><stop offset="0" stop-color="#FFE5AC"/><stop offset="1" stop-color="#B99C5D"/></linearGradient><linearGradient id="paint4_linear" x1="74.155" y1="55.574" x2="74.155" y2="63.279" gradientUnits="userSpaceOnUse"><stop stop-color="#FFE5AC"/><stop offset="0" stop-color="#FFE5AC"/><stop offset="1" stop-color="#B99C5D"/></linearGradient><linearGradient id="paint5_linear" x1="74.155" y1="80.818" x2="74.155" y2="88.523" gradientUnits="userSpaceOnUse"><stop stop-color="#FFE5AC"/><stop offset="0" stop-color="#FFE5AC"/><stop offset="1" stop-color="#B99C5D"/></linearGradient><linearGradient id="paint6_linear" x1="86.499" y1="57.617" x2="86.499" y2="60.352" gradientUnits="userSpaceOnUse"><stop stop-color="#FFE5AC"/><stop offset="0" stop-color="#FFE5AC"/><stop offset="1" stop-color="#B99C5D"/></linearGradient><linearGradient id="paint7_linear" x1="86.499" y1="70.117" x2="86.499" y2="72.852" gradientUnits="userSpaceOnUse"><stop stop-color="#FFE5AC"/><stop offset="0" stop-color="#FFE5AC"/><stop offset="1" stop-color="#B99C5D"/></linearGradient><linearGradient id="paint8_linear" x1="86.499" y1="82.617" x2="86.499" y2="85.352" gradientUnits="userSpaceOnUse"><stop stop-color="#FFE5AC"/><stop offset="0" stop-color="#FFE5AC"/><stop offset="1" stop-color="#B99C5D"/></linearGradient></defs></svg>