<svg width="100" height="100" fill="none" xmlns="http://www.w3.org/2000/svg"><g clip-path="url(#clip0)"><path d="M78.752 7.156a6.8 6.8 0 00-6.792 6.793 1.465 1.465 0 102.93 0 3.867 3.867 0 013.862-3.863 3.867 3.867 0 013.863 3.863 3.867 3.867 0 01-3.863 3.863h-.93c-.809 0-1.464.656-1.464 1.465v5.011a1.465 1.465 0 102.93 0v-3.567c3.496-.274 6.257-3.207 6.257-6.772a6.8 6.8 0 00-6.793-6.793z" fill="#000"/><path d="M78.752 7.156a6.8 6.8 0 00-6.792 6.793 1.465 1.465 0 102.93 0 3.867 3.867 0 013.862-3.863 3.867 3.867 0 013.863 3.863 3.867 3.867 0 01-3.863 3.863h-.93c-.809 0-1.464.656-1.464 1.465v5.011a1.465 1.465 0 102.93 0v-3.567c3.496-.274 6.257-3.207 6.257-6.772a6.8 6.8 0 00-6.793-6.793z" fill="url(#paint0_linear)"/><path d="M77.823 27.985c-.809 0-1.465.656-1.465 1.465v.429a1.465 1.465 0 102.93 0v-.43c0-.808-.656-1.464-1.465-1.464z" fill="#000"/><path d="M77.823 27.985c-.809 0-1.465.656-1.465 1.465v.429a1.465 1.465 0 102.93 0v-.43c0-.808-.656-1.464-1.465-1.464z" fill="url(#paint1_linear)"/><path d="M91.605 0H65.898a6.404 6.404 0 00-6.396 6.396v11.591c-4.82-6.924-12.837-11.466-21.895-11.466H31.06c-7.658 0-14.79 4.032-18.76 10.561-5.385 1.689-8.984 6.705-8.82 12.41l.37 12.782a5.837 5.837 0 00-1.853 4.267v1.375a5.86 5.86 0 005.854 5.852h3.926c1 2.472 2.454 4.78 4.34 6.88-1.037 1.439-6.372 8.826-6.7 9.28a1.469 1.469 0 00-.23.488L2.43 96.41a2.85 2.85 0 00.507 2.477A2.85 2.85 0 005.207 100H59.7a3.54 3.54 0 002.584-1.125 3.545 3.545 0 00.938-2.661l-.555-7.593a14.27 14.27 0 00-1.517-5.466 1.465 1.465 0 00-2.611 1.328 11.356 11.356 0 011.206 4.35l.555 7.593a.598.598 0 01-.6.645h-6.756v-5.986a1.465 1.465 0 10-2.93 0v5.985H17.94l3.738-14.378a.107.107 0 01.104-.08h6.472a7.773 7.773 0 003.64-.901c.94.17 1.904.258 2.873.258 4.108 0 8.028-1.57 10.898-4.334h.006c.286.06.07.016 4.408.7 1.591.248 3.082.814 4.43 1.682a1.463 1.463 0 002.025-.439 1.465 1.465 0 00-.44-2.024 14.29 14.29 0 00-5.562-2.114c-3.758-.63-4.103-.574-4.705-.805a2.809 2.809 0 01-1.798-2.59c1.732-.743 2.954-2.436 2.97-4.402a4.856 4.856 0 00-.243-1.565c3.464-2.054 8.433-5.942 11.001-12.31h2.758a5.858 5.858 0 005.851-5.852v-1.375c0-1.798-.816-3.41-2.096-4.484v-3.77c.53.14 1.077.213 1.63.213h4.613c.533 0 .966.434.966.967v4.16c0 1.034.633 1.918 1.611 2.253a2.348 2.348 0 002.652-.795l4.847-6.244a.875.875 0 01.695-.341h10.324a6.404 6.404 0 006.397-6.397V6.396A6.405 6.405 0 0091.605 0zM4.925 47.916v-1.375a2.927 2.927 0 012.925-2.924h2.377c-.101 2.547-.035 4.645.6 7.22H7.85a2.926 2.926 0 01-2.924-2.921zm29.891 31.122a7.774 7.774 0 001.26-4.248v-2.341h5.038a5.727 5.727 0 001.77 3.734c-2.227 1.819-5.081 2.843-8.068 2.855zm7.247-9.52h-6.32a2.6 2.6 0 00-2.597 2.599v2.672a4.899 4.899 0 01-4.893 4.893H21.78a3.037 3.037 0 00-2.94 2.273L14.913 97.07H5.286l6.667-25.65c.517-.716 10.018-13.874 11.216-15.536a1.929 1.929 0 011.267-.781 1.96 1.96 0 011.47.353l.072.053c.465.337.74.86.756 1.444a1.8 1.8 0 01-.33 1.105l-2.731 3.901a2.357 2.357 0 00-.163 2.449 2.358 2.358 0 002.1 1.275h16.54c.513 0 .995.2 1.358.562a1.9 1.9 0 01.56 1.374c-.008 1.047-.907 1.9-2.005 1.9zm21.372-21.602a2.925 2.925 0 01-2.921 2.922h-1.809a22.02 22.02 0 00.64-5.285c0-.653-.013-1.3-.038-1.936h1.207a2.926 2.926 0 012.921 2.924v1.375zm-2.921-7.228h-1.417a39.137 39.137 0 00-.784-4.752c-.684-2.944-3.282-5.12-6.319-5.291-5.675-.318-11.463-1.79-16.74-4.256-1.477-.689-3.261-.213-4.15 1.107-.336.5-1.042.862-1.671.848-1.026-.012-2.153-.576-3.548-1.773-.94-.81-1.889-1.756-2.897-2.894a3.825 3.825 0 00-2.86-1.293h-.004a3.805 3.805 0 00-2.845 1.28 24.96 24.96 0 00-3.635 5.427 1.465 1.465 0 002.622 1.307 22.025 22.025 0 013.205-4.791.864.864 0 01.653-.293c.151.002.436.04.67.304 1.098 1.24 2.138 2.278 3.182 3.175 1.225 1.052 3.12 2.454 5.422 2.48 1.63.017 3.247-.82 4.135-2.14.089-.132.305-.171.482-.09 5.61 2.623 11.77 4.188 17.815 4.527 1.745.098 3.238 1.344 3.63 3.028.411 1.778.693 3.682.837 5.663a44.38 44.38 0 01.119 3.292c0 2.162-.354 4.27-1.053 6.266-2.188 6.257-7.086 9.995-10.338 11.878a4.813 4.813 0 00-2.875-.944H26.694l2.108-3.012c.597-.85.895-1.848.86-2.874a4.723 4.723 0 00-1.962-3.728l-.071-.052a4.875 4.875 0 00-3.657-.877 4.838 4.838 0 00-3.179 1.96c-.55.765-1.631 2.262-2.916 4.041-1.663-1.96-2.907-4.103-3.707-6.392-1.128-3.221-1.191-6.115-.934-9.56.148-2.023.44-3.97.87-5.787a1.465 1.465 0 00-2.852-.674 39.03 39.03 0 00-.818 4.89H7.85c-.38 0-.752.038-1.113.107l-.33-11.387a9.651 9.651 0 017.23-9.662c.38-.1.706-.35.9-.691A19.065 19.065 0 0131.06 9.45h6.548c13.087 0 23.733 10.646 23.733 23.733v7.563a5.879 5.879 0 00-.826-.06zm34.56-8.585a3.47 3.47 0 01-3.467 3.467H81.283c-1.184 0-2.28.537-3.008 1.473l-3.867 4.982v-2.558a3.901 3.901 0 00-3.896-3.897h-4.614c-.58 0-1.132-.14-1.629-.407v-1.98c0-3.43-.652-6.712-1.837-9.728V6.396a3.47 3.47 0 013.466-3.466h25.707a3.472 3.472 0 013.47 3.466v25.707z" fill="#000"/><path d="M91.605 0H65.898a6.404 6.404 0 00-6.396 6.396v11.591c-4.82-6.924-12.837-11.466-21.895-11.466H31.06c-7.658 0-14.79 4.032-18.76 10.561-5.385 1.689-8.984 6.705-8.82 12.41l.37 12.782a5.837 5.837 0 00-1.853 4.267v1.375a5.86 5.86 0 005.854 5.852h3.926c1 2.472 2.454 4.78 4.34 6.88-1.037 1.439-6.372 8.826-6.7 9.28a1.469 1.469 0 00-.23.488L2.43 96.41a2.85 2.85 0 00.507 2.477A2.85 2.85 0 005.207 100H59.7a3.54 3.54 0 002.584-1.125 3.545 3.545 0 00.938-2.661l-.555-7.593a14.27 14.27 0 00-1.517-5.466 1.465 1.465 0 00-2.611 1.328 11.356 11.356 0 011.206 4.35l.555 7.593a.598.598 0 01-.6.645h-6.756v-5.986a1.465 1.465 0 10-2.93 0v5.985H17.94l3.738-14.378a.107.107 0 01.104-.08h6.472a7.773 7.773 0 003.64-.901c.94.17 1.904.258 2.873.258 4.108 0 8.028-1.57 10.898-4.334h.006c.286.06.07.016 4.408.7 1.591.248 3.082.814 4.43 1.682a1.463 1.463 0 002.025-.439 1.465 1.465 0 00-.44-2.024 14.29 14.29 0 00-5.562-2.114c-3.758-.63-4.103-.574-4.705-.805a2.809 2.809 0 01-1.798-2.59c1.732-.743 2.954-2.436 2.97-4.402a4.856 4.856 0 00-.243-1.565c3.464-2.054 8.433-5.942 11.001-12.31h2.758a5.858 5.858 0 005.851-5.852v-1.375c0-1.798-.816-3.41-2.096-4.484v-3.77c.53.14 1.077.213 1.63.213h4.613c.533 0 .966.434.966.967v4.16c0 1.034.633 1.918 1.611 2.253a2.348 2.348 0 002.652-.795l4.847-6.244a.875.875 0 01.695-.341h10.324a6.404 6.404 0 006.397-6.397V6.396A6.405 6.405 0 0091.605 0zM4.925 47.916v-1.375a2.927 2.927 0 012.925-2.924h2.377c-.101 2.547-.035 4.645.6 7.22H7.85a2.926 2.926 0 01-2.924-2.921zm29.891 31.122a7.774 7.774 0 001.26-4.248v-2.341h5.038a5.727 5.727 0 001.77 3.734c-2.227 1.819-5.081 2.843-8.068 2.855zm7.247-9.52h-6.32a2.6 2.6 0 00-2.597 2.599v2.672a4.899 4.899 0 01-4.893 4.893H21.78a3.037 3.037 0 00-2.94 2.273L14.913 97.07H5.286l6.667-25.65c.517-.716 10.018-13.874 11.216-15.536a1.929 1.929 0 011.267-.781 1.96 1.96 0 011.47.353l.072.053c.465.337.74.86.756 1.444a1.8 1.8 0 01-.33 1.105l-2.731 3.901a2.357 2.357 0 00-.163 2.449 2.358 2.358 0 002.1 1.275h16.54c.513 0 .995.2 1.358.562a1.9 1.9 0 01.56 1.374c-.008 1.047-.907 1.9-2.005 1.9zm21.372-21.602a2.925 2.925 0 01-2.921 2.922h-1.809a22.02 22.02 0 00.64-5.285c0-.653-.013-1.3-.038-1.936h1.207a2.926 2.926 0 012.921 2.924v1.375zm-2.921-7.228h-1.417a39.137 39.137 0 00-.784-4.752c-.684-2.944-3.282-5.12-6.319-5.291-5.675-.318-11.463-1.79-16.74-4.256-1.477-.689-3.261-.213-4.15 1.107-.336.5-1.042.862-1.671.848-1.026-.012-2.153-.576-3.548-1.773-.94-.81-1.889-1.756-2.897-2.894a3.825 3.825 0 00-2.86-1.293h-.004a3.805 3.805 0 00-2.845 1.28 24.96 24.96 0 00-3.635 5.427 1.465 1.465 0 002.622 1.307 22.025 22.025 0 013.205-4.791.864.864 0 01.653-.293c.151.002.436.04.67.304 1.098 1.24 2.138 2.278 3.182 3.175 1.225 1.052 3.12 2.454 5.422 2.48 1.63.017 3.247-.82 4.135-2.14.089-.132.305-.171.482-.09 5.61 2.623 11.77 4.188 17.815 4.527 1.745.098 3.238 1.344 3.63 3.028.411 1.778.693 3.682.837 5.663a44.38 44.38 0 01.119 3.292c0 2.162-.354 4.27-1.053 6.266-2.188 6.257-7.086 9.995-10.338 11.878a4.813 4.813 0 00-2.875-.944H26.694l2.108-3.012c.597-.85.895-1.848.86-2.874a4.723 4.723 0 00-1.962-3.728l-.071-.052a4.875 4.875 0 00-3.657-.877 4.838 4.838 0 00-3.179 1.96c-.55.765-1.631 2.262-2.916 4.041-1.663-1.96-2.907-4.103-3.707-6.392-1.128-3.221-1.191-6.115-.934-9.56.148-2.023.44-3.97.87-5.787a1.465 1.465 0 00-2.852-.674 39.03 39.03 0 00-.818 4.89H7.85c-.38 0-.752.038-1.113.107l-.33-11.387a9.651 9.651 0 017.23-9.662c.38-.1.706-.35.9-.691A19.065 19.065 0 0131.06 9.45h6.548c13.087 0 23.733 10.646 23.733 23.733v7.563a5.879 5.879 0 00-.826-.06zm34.56-8.585a3.47 3.47 0 01-3.467 3.467H81.283c-1.184 0-2.28.537-3.008 1.473l-3.867 4.982v-2.558a3.901 3.901 0 00-3.896-3.897h-4.614c-.58 0-1.132-.14-1.629-.407v-1.98c0-3.43-.652-6.712-1.837-9.728V6.396a3.47 3.47 0 013.466-3.466h25.707a3.472 3.472 0 013.47 3.466v25.707z" fill="url(#paint2_linear)"/><path d="M27.364 47.003c.81 0 1.465-.656 1.465-1.465v-1.635a1.465 1.465 0 00-2.93 0v1.635c0 .81.656 1.465 1.465 1.465z" fill="#000"/><path d="M27.364 47.003c.81 0 1.465-.656 1.465-1.465v-1.635a1.465 1.465 0 00-2.93 0v1.635c0 .81.656 1.465 1.465 1.465z" fill="url(#paint3_linear)"/><path d="M49.255 47.003c.81 0 1.465-.656 1.465-1.465v-1.635a1.465 1.465 0 10-2.93 0v1.635c0 .81.656 1.465 1.465 1.465z" fill="#000"/><path d="M49.255 47.003c.81 0 1.465-.656 1.465-1.465v-1.635a1.465 1.465 0 10-2.93 0v1.635c0 .81.656 1.465 1.465 1.465z" fill="url(#paint4_linear)"/><path d="M35.783 54.21c1.998-1.164 3.858-1.164 5.855 0a1.464 1.464 0 101.476-2.53c-2.88-1.68-5.926-1.68-8.807 0a1.465 1.465 0 101.476 2.53z" fill="#000"/><path d="M35.783 54.21c1.998-1.164 3.858-1.164 5.855 0a1.464 1.464 0 101.476-2.53c-2.88-1.68-5.926-1.68-8.807 0a1.465 1.465 0 101.476 2.53z" fill="url(#paint5_linear)"/></g><defs><linearGradient id="paint0_linear" x1="78.752" y1="7.156" x2="78.752" y2="25.753" gradientUnits="userSpaceOnUse"><stop stop-color="#FFE5AC"/><stop offset="0" stop-color="#FFE5AC"/><stop offset="1" stop-color="#B99C5D"/></linearGradient><linearGradient id="paint1_linear" x1="77.823" y1="27.985" x2="77.823" y2="31.344" gradientUnits="userSpaceOnUse"><stop stop-color="#FFE5AC"/><stop offset="0" stop-color="#FFE5AC"/><stop offset="1" stop-color="#B99C5D"/></linearGradient><linearGradient id="paint2_linear" x1="50" y1="0" x2="50" y2="100" gradientUnits="userSpaceOnUse"><stop stop-color="#FFE5AC"/><stop offset="0" stop-color="#FFE5AC"/><stop offset="1" stop-color="#B99C5D"/></linearGradient><linearGradient id="paint3_linear" x1="27.364" y1="42.438" x2="27.364" y2="47.003" gradientUnits="userSpaceOnUse"><stop stop-color="#FFE5AC"/><stop offset="0" stop-color="#FFE5AC"/><stop offset="1" stop-color="#B99C5D"/></linearGradient><linearGradient id="paint4_linear" x1="49.255" y1="42.438" x2="49.255" y2="47.003" gradientUnits="userSpaceOnUse"><stop stop-color="#FFE5AC"/><stop offset="0" stop-color="#FFE5AC"/><stop offset="1" stop-color="#B99C5D"/></linearGradient><linearGradient id="paint5_linear" x1="38.711" y1="50.42" x2="38.711" y2="54.411" gradientUnits="userSpaceOnUse"><stop stop-color="#FFE5AC"/><stop offset="0" stop-color="#FFE5AC"/><stop offset="1" stop-color="#B99C5D"/></linearGradient><clipPath id="clip0"><path fill="#fff" d="M0 0h100v100H0z"/></clipPath></defs></svg>