<svg width="100" height="100" fill="none" xmlns="http://www.w3.org/2000/svg"><g clip-path="url(#clip0)"><path d="M52.473 47.53a1.953 1.953 0 10-2.764 2.76 1.953 1.953 0 002.764-2.76z" fill="#000"/><path d="M52.473 47.53a1.953 1.953 0 10-2.764 2.76 1.953 1.953 0 002.764-2.76z" fill="url(#paint0_linear)"/><path d="M77.33 22.67a9.761 9.761 0 00-13.811 0c-3.806 3.806-3.807 10.002 0 13.811 3.808 3.806 10.004 3.807 13.811 0a9.761 9.761 0 000-13.811zm-2.762 11.048a5.867 5.867 0 01-8.286 0 5.867 5.867 0 010-8.286 5.857 5.857 0 018.286 0 5.857 5.857 0 010 8.287z" fill="#000"/><path d="M77.33 22.67a9.761 9.761 0 00-13.811 0c-3.806 3.806-3.807 10.002 0 13.811 3.808 3.806 10.004 3.807 13.811 0a9.761 9.761 0 000-13.811zm-2.762 11.048a5.867 5.867 0 01-8.286 0 5.867 5.867 0 010-8.286 5.857 5.857 0 018.286 0 5.857 5.857 0 010 8.287z" fill="url(#paint1_linear)"/><path d="M99.428.572a1.946 1.946 0 00-1.451-.57C97.535.016 87.02.44 74.522 4.857c-10.016 3.536-18.364 8.599-24.813 15.048a74.32 74.32 0 00-4.197 4.57c-6.377-3.754-11.486-2.577-14.717-.848-7.437 3.98-12.041 14.788-12.041 22.519a1.954 1.954 0 003.335 1.38c3.922-3.922 8.76-3.677 10.34-3.469l.685.684c-1.346 3.203-2.43 6.389-3.226 9.486-.287 1.121-.19 2.308.236 3.393-1.88.867-3.694 2.14-5.274 3.719-5.027 5.028-6.048 17.28-6.09 17.8a1.954 1.954 0 002.101 2.1c.52-.04 12.772-1.062 17.8-6.09 1.579-1.578 2.851-3.392 3.718-5.272a5.516 5.516 0 003.394.235c3.097-.796 6.282-1.88 9.485-3.226l.684.684c.208 1.58.453 6.419-3.47 10.341a1.953 1.953 0 001.382 3.334c7.73 0 18.538-4.604 22.518-12.041 1.73-3.23 2.906-8.34-.847-14.717a74.346 74.346 0 004.569-4.197c6.45-6.449 11.512-14.797 15.048-24.812C99.56 12.98 99.982 2.465 100 2.023a1.954 1.954 0 00-.571-1.45zM23.121 41.946c1.213-5.872 4.737-12.315 9.518-14.874 3.195-1.71 6.688-1.542 10.401.49a78.961 78.961 0 00-8.206 13.377c-.03-.018-.38-.46-1.034-.608-.268-.06-5.436-1.172-10.68 1.615zm12.778 30.442c-2.686 2.686-8.986 4.102-12.967 4.68.578-3.981 1.995-10.28 4.68-12.966 1.504-1.504 3.248-2.644 5-3.287l6.573 6.573c-.642 1.753-1.782 3.497-3.286 5zm8.904-6.06c-.565.145-1.22-.067-1.707-.553l-3.825-3.825-5.044-5.045c-.487-.488-.7-1.142-.555-1.706a63.406 63.406 0 012.438-7.46L52.262 63.89a63.388 63.388 0 01-7.459 2.439zm28.126 1.033c-2.56 4.781-9.002 8.306-14.874 9.519 1.873-3.523 2.285-8.008 1.601-10.727-.159-.632-.57-.95-.594-.987a79.009 79.009 0 0013.376-8.205c2.033 3.713 2.2 7.206.49 10.4zm4.403-19.832a70.867 70.867 0 01-5.632 5.053 75.038 75.038 0 01-15.57 9.652L37.766 43.871a75.025 75.025 0 019.652-15.57 70.87 70.87 0 015.054-5.633c5.786-5.786 13.253-10.391 22.2-13.706L91.04 25.328c-3.315 8.947-7.92 16.415-13.707 22.201zm15.112-26.32L78.792 7.556C86.23 5.247 92.701 4.382 95.93 4.07c-.311 3.23-1.176 9.7-3.486 17.137z" fill="#000"/><path d="M99.428.572a1.946 1.946 0 00-1.451-.57C97.535.016 87.02.44 74.522 4.857c-10.016 3.536-18.364 8.599-24.813 15.048a74.32 74.32 0 00-4.197 4.57c-6.377-3.754-11.486-2.577-14.717-.848-7.437 3.98-12.041 14.788-12.041 22.519a1.954 1.954 0 003.335 1.38c3.922-3.922 8.76-3.677 10.34-3.469l.685.684c-1.346 3.203-2.43 6.389-3.226 9.486-.287 1.121-.19 2.308.236 3.393-1.88.867-3.694 2.14-5.274 3.719-5.027 5.028-6.048 17.28-6.09 17.8a1.954 1.954 0 002.101 2.1c.52-.04 12.772-1.062 17.8-6.09 1.579-1.578 2.851-3.392 3.718-5.272a5.516 5.516 0 003.394.235c3.097-.796 6.282-1.88 9.485-3.226l.684.684c.208 1.58.453 6.419-3.47 10.341a1.953 1.953 0 001.382 3.334c7.73 0 18.538-4.604 22.518-12.041 1.73-3.23 2.906-8.34-.847-14.717a74.346 74.346 0 004.569-4.197c6.45-6.449 11.512-14.797 15.048-24.812C99.56 12.98 99.982 2.465 100 2.023a1.954 1.954 0 00-.571-1.45zM23.121 41.946c1.213-5.872 4.737-12.315 9.518-14.874 3.195-1.71 6.688-1.542 10.401.49a78.961 78.961 0 00-8.206 13.377c-.03-.018-.38-.46-1.034-.608-.268-.06-5.436-1.172-10.68 1.615zm12.778 30.442c-2.686 2.686-8.986 4.102-12.967 4.68.578-3.981 1.995-10.28 4.68-12.966 1.504-1.504 3.248-2.644 5-3.287l6.573 6.573c-.642 1.753-1.782 3.497-3.286 5zm8.904-6.06c-.565.145-1.22-.067-1.707-.553l-3.825-3.825-5.044-5.045c-.487-.488-.7-1.142-.555-1.706a63.406 63.406 0 012.438-7.46L52.262 63.89a63.388 63.388 0 01-7.459 2.439zm28.126 1.033c-2.56 4.781-9.002 8.306-14.874 9.519 1.873-3.523 2.285-8.008 1.601-10.727-.159-.632-.57-.95-.594-.987a79.009 79.009 0 0013.376-8.205c2.033 3.713 2.2 7.206.49 10.4zm4.403-19.832a70.867 70.867 0 01-5.632 5.053 75.038 75.038 0 01-15.57 9.652L37.766 43.871a75.025 75.025 0 019.652-15.57 70.87 70.87 0 015.054-5.633c5.786-5.786 13.253-10.391 22.2-13.706L91.04 25.328c-3.315 8.947-7.92 16.415-13.707 22.201zm15.112-26.32L78.792 7.556C86.23 5.247 92.701 4.382 95.93 4.07c-.311 3.23-1.176 9.7-3.486 17.137z" fill="url(#paint2_linear)"/><path d="M46.947 80.673c-.763-.762-2-.762-2.762 0L38.662 86.2a1.953 1.953 0 002.762 2.762l5.524-5.525c.762-.763.762-2 0-2.763z" fill="#000"/><path d="M46.947 80.673c-.763-.762-2-.762-2.762 0L38.662 86.2a1.953 1.953 0 002.762 2.762l5.524-5.525c.762-.763.762-2 0-2.763z" fill="url(#paint3_linear)"/><path d="M19.327 53.053a1.953 1.953 0 00-2.763 0l-5.525 5.523a1.953 1.953 0 102.762 2.762l5.525-5.523c.763-.763.763-2 0-2.762z" fill="#000"/><path d="M19.327 53.053a1.953 1.953 0 00-2.763 0l-5.525 5.523a1.953 1.953 0 102.762 2.762l5.525-5.523c.763-.763.763-2 0-2.762z" fill="url(#paint4_linear)"/><path d="M33.137 83.437c-.762-.762-2-.762-2.762 0l-13.23 13.229a1.953 1.953 0 102.761 2.762l13.23-13.229a1.952 1.952 0 00.001-2.762z" fill="#000"/><path d="M33.137 83.437c-.762-.762-2-.762-2.762 0l-13.23 13.229a1.953 1.953 0 102.761 2.762l13.23-13.229a1.952 1.952 0 00.001-2.762z" fill="url(#paint5_linear)"/><path d="M17.512 83.437c-.762-.762-2-.762-2.762 0L1.52 96.666a1.953 1.953 0 102.761 2.762l13.23-13.229a1.952 1.952 0 00.001-2.762z" fill="#000"/><path d="M17.512 83.437c-.762-.762-2-.762-2.762 0L1.52 96.666a1.953 1.953 0 102.761 2.762l13.23-13.229a1.952 1.952 0 00.001-2.762z" fill="url(#paint6_linear)"/><path d="M16.564 66.863c-.763-.763-2-.763-2.762 0L.573 80.093a1.953 1.953 0 002.762 2.763l13.229-13.23c.762-.764.762-2 0-2.763z" fill="#000"/><path d="M16.564 66.863c-.763-.763-2-.763-2.762 0L.573 80.093a1.953 1.953 0 002.762 2.763l13.229-13.23c.762-.764.762-2 0-2.763z" fill="url(#paint7_linear)"/><path d="M60.758 39.242c-.763-.763-2-.763-2.762 0l-2.762 2.762a1.953 1.953 0 002.762 2.762l2.762-2.762c.763-.762.763-2 0-2.762z" fill="#000"/><path d="M60.758 39.242c-.763-.763-2-.763-2.762 0l-2.762 2.762a1.953 1.953 0 002.762 2.762l2.762-2.762c.763-.762.763-2 0-2.762z" fill="url(#paint8_linear)"/></g><defs><linearGradient id="paint0_linear" x1="51.091" y1="46.956" x2="51.091" y2="50.862" gradientUnits="userSpaceOnUse"><stop stop-color="#FFE5AC"/><stop offset="0" stop-color="#FFE5AC"/><stop offset="1" stop-color="#B99C5D"/></linearGradient><linearGradient id="paint1_linear" x1="70.428" y1="19.808" x2="70.428" y2="39.336" gradientUnits="userSpaceOnUse"><stop stop-color="#FFE5AC"/><stop offset="0" stop-color="#FFE5AC"/><stop offset="1" stop-color="#B99C5D"/></linearGradient><linearGradient id="paint2_linear" x1="59.377" y1="0" x2="59.377" y2="81.246" gradientUnits="userSpaceOnUse"><stop stop-color="#FFE5AC"/><stop offset="0" stop-color="#FFE5AC"/><stop offset="1" stop-color="#B99C5D"/></linearGradient><linearGradient id="paint3_linear" x1="42.805" y1="80.102" x2="42.805" y2="89.533" gradientUnits="userSpaceOnUse"><stop stop-color="#FFE5AC"/><stop offset="0" stop-color="#FFE5AC"/><stop offset="1" stop-color="#B99C5D"/></linearGradient><linearGradient id="paint4_linear" x1="15.183" y1="52.48" x2="15.183" y2="61.91" gradientUnits="userSpaceOnUse"><stop stop-color="#FFE5AC"/><stop offset="0" stop-color="#FFE5AC"/><stop offset="1" stop-color="#B99C5D"/></linearGradient><linearGradient id="paint5_linear" x1="25.141" y1="82.865" x2="25.141" y2="100" gradientUnits="userSpaceOnUse"><stop stop-color="#FFE5AC"/><stop offset="0" stop-color="#FFE5AC"/><stop offset="1" stop-color="#B99C5D"/></linearGradient><linearGradient id="paint6_linear" x1="9.516" y1="82.865" x2="9.516" y2="100" gradientUnits="userSpaceOnUse"><stop stop-color="#FFE5AC"/><stop offset="0" stop-color="#FFE5AC"/><stop offset="1" stop-color="#B99C5D"/></linearGradient><linearGradient id="paint7_linear" x1="8.568" y1="66.291" x2="8.568" y2="83.428" gradientUnits="userSpaceOnUse"><stop stop-color="#FFE5AC"/><stop offset="0" stop-color="#FFE5AC"/><stop offset="1" stop-color="#B99C5D"/></linearGradient><linearGradient id="paint8_linear" x1="57.996" y1="38.67" x2="57.996" y2="45.338" gradientUnits="userSpaceOnUse"><stop stop-color="#FFE5AC"/><stop offset="0" stop-color="#FFE5AC"/><stop offset="1" stop-color="#B99C5D"/></linearGradient><clipPath id="clip0"><path fill="#fff" d="M0 0h100v100H0z"/></clipPath></defs></svg>