<svg width="100" height="100" fill="none" xmlns="http://www.w3.org/2000/svg"><path d="M82.813 31.25A14.063 14.063 0 1068.75 17.187 14.078 14.078 0 0082.813 31.25zm0-25a10.938 10.938 0 11-10.938 10.938A10.95 10.95 0 0182.813 6.25z" fill="url(#paint0_linear)"/><path d="M81.25 21.875c.415 0 .812-.165 1.105-.458l7.812-7.813-2.209-2.209-6.708 6.708-3.583-3.583-2.209 2.21 4.688 4.687c.293.293.69.458 1.104.458z" fill="url(#paint1_linear)"/><path d="M95.313 87.5H93.75V64.062a1.563 1.563 0 00-1.563-1.562h-18.75v-2.75c.985-1.703 6.485-10.25 10.22-16h5.406a7.813 7.813 0 007.812-7.813 1.563 1.563 0 00-1.563-1.562H79.689a7.795 7.795 0 00-7.75 7.172l-5.094 6.234a12.468 12.468 0 00-5.438-2.39l-4.656-1.563a1.515 1.515 0 00-.984.016l-.5-3.016a10.971 10.971 0 005.547-8.016H62.5a3.135 3.135 0 003.125-3.124v-1.563a3.125 3.125 0 00-2.531-3.063l2.078-2.078c.288-.298.45-.695.453-1.109v-1.563A10.95 10.95 0 0054.687 9.376h-9.374a10.95 10.95 0 00-10.938 10.938v1.562c.003.414.165.811.453 1.11l2.078 2.078a3.124 3.124 0 00-2.531 3.062v1.563a3.135 3.135 0 003.125 3.125h1.688a10.973 10.973 0 005.546 8.015l-.5 3.016a1.515 1.515 0 00-.984-.016l-4.656 1.563a12.468 12.468 0 00-5.438 2.39l-5.093-6.234a7.795 7.795 0 00-7.75-7.172H4.688a1.563 1.563 0 00-1.563 1.563 7.813 7.813 0 007.813 7.812h5.39l10.235 16.078V62.5H7.813a1.563 1.563 0 00-1.563 1.563V87.5H4.687a1.563 1.563 0 00-1.562 1.563v6.25a1.563 1.563 0 001.563 1.562h90.624a1.563 1.563 0 001.563-1.563v-6.25a1.563 1.563 0 00-1.563-1.562zM78.124 65.625h3.125v3.125h-3.125v-3.125zm-3.125 0v4.688a1.563 1.563 0 001.563 1.562h6.25a1.563 1.563 0 001.562-1.563v-4.687h6.25V87.5H68.75V65.625H75zM79.688 37.5h13.796a4.71 4.71 0 01-4.421 3.125H75.266a4.71 4.71 0 014.421-3.125zM62.5 29.687h-1.563v-1.562H62.5v1.563zm-23.438 0H37.5v-1.562h1.563v1.563zm0-7.812v.922L37.5 21.234v-.922a7.813 7.813 0 017.813-7.812h9.374a7.813 7.813 0 017.813 7.813v.921l-1.563 1.563v-.922a1.562 1.562 0 00-1.187-1.516l-12.5-3.125a1.518 1.518 0 00-1.078.125l-6.25 3.125a1.525 1.525 0 00-.86 1.391zm3.126 9.375v-8.406l4.874-2.438 10.75 2.688v8.156a7.813 7.813 0 01-15.624 0zm10.828 15.094L50 49.359l-3.016-3.015.735-4.407a10.51 10.51 0 004.562 0l.735 4.407zm-9.688.75l5.563 5.578a1.575 1.575 0 002.218 0l5.563-5.578 1.766.593-6.11 8.563h-4.656l-6.11-8.563 1.766-.593zm9.516 18.531l1.734 10.406L50 80.61l-4.578-4.578 1.734-10.406h5.688zM47.672 62.5l.531-3.125h3.594l.531 3.125h-4.656zM10.938 40.625A4.71 4.71 0 016.516 37.5h13.796a4.71 4.71 0 014.422 3.125H10.937zm9.093 3.125h5.797l13.594 16.61 2.406-1.97-6.703-8.203a10.233 10.233 0 013.266-1.578l6.843 9.578-3.03 18.126a1.58 1.58 0 00.437 1.359l6.25 6.25a1.584 1.584 0 002.218 0l6.25-6.25a1.58 1.58 0 00.438-1.36l-3.031-18.124 6.843-9.579c1.174.328 2.28.862 3.266 1.578l-6.703 8.204 2.406 1.968L74.172 43.75h5.766c-9.626 14.828-9.626 15.063-9.626 15.625V62.5h-3.124a1.563 1.563 0 00-1.563 1.563V87.5h-31.25V64.062a1.563 1.563 0 00-1.563-1.562h-3.124v-3.125a1.49 1.49 0 00-.25-.844L20.03 43.75zM18.75 65.625h3.125v3.125H18.75v-3.125zm-9.375 0h6.25v4.688a1.563 1.563 0 001.563 1.562h6.25A1.563 1.563 0 0025 70.312v-4.687h6.25V87.5H9.375V65.625zM93.75 93.75H6.25v-3.125h87.5v3.125z" fill="url(#paint2_linear)"/><path d="M7.813 31.25h18.75a4.688 4.688 0 004.687-4.688V7.813a4.688 4.688 0 00-4.688-4.687H7.813a4.687 4.687 0 00-4.687 4.688v18.75a4.688 4.688 0 004.688 4.687zM6.25 7.812A1.562 1.562 0 017.813 6.25h18.75a1.563 1.563 0 011.562 1.563v18.75a1.563 1.563 0 01-1.563 1.562H7.813a1.563 1.563 0 01-1.562-1.563V7.813z" fill="url(#paint3_linear)"/><path d="M12.5 9.375H9.375V12.5H12.5V9.375z" fill="url(#paint4_linear)"/><path d="M25 9.375h-9.375V12.5H25V9.375z" fill="url(#paint5_linear)"/><path d="M25 15.625H9.375v3.125H25v-3.125z" fill="url(#paint6_linear)"/><path d="M25 21.875H9.375V25H25v-3.125z" fill="url(#paint7_linear)"/><defs><linearGradient id="paint0_linear" x1="82.813" y1="3.125" x2="82.813" y2="31.25" gradientUnits="userSpaceOnUse"><stop stop-color="#FFE5AC"/><stop offset="0" stop-color="#FFE5AC"/><stop offset="1" stop-color="#B99C5D"/></linearGradient><linearGradient id="paint1_linear" x1="82.813" y1="11.395" x2="82.813" y2="21.875" gradientUnits="userSpaceOnUse"><stop stop-color="#FFE5AC"/><stop offset="0" stop-color="#FFE5AC"/><stop offset="1" stop-color="#B99C5D"/></linearGradient><linearGradient id="paint2_linear" x1="50" y1="9.375" x2="50" y2="96.875" gradientUnits="userSpaceOnUse"><stop stop-color="#FFE5AC"/><stop offset="0" stop-color="#FFE5AC"/><stop offset="1" stop-color="#B99C5D"/></linearGradient><linearGradient id="paint3_linear" x1="17.188" y1="3.125" x2="17.188" y2="31.25" gradientUnits="userSpaceOnUse"><stop stop-color="#FFE5AC"/><stop offset="0" stop-color="#FFE5AC"/><stop offset="1" stop-color="#B99C5D"/></linearGradient><linearGradient id="paint4_linear" x1="10.938" y1="9.375" x2="10.938" y2="12.5" gradientUnits="userSpaceOnUse"><stop stop-color="#FFE5AC"/><stop offset="0" stop-color="#FFE5AC"/><stop offset="1" stop-color="#B99C5D"/></linearGradient><linearGradient id="paint5_linear" x1="20.313" y1="9.375" x2="20.313" y2="12.5" gradientUnits="userSpaceOnUse"><stop stop-color="#FFE5AC"/><stop offset="0" stop-color="#FFE5AC"/><stop offset="1" stop-color="#B99C5D"/></linearGradient><linearGradient id="paint6_linear" x1="17.188" y1="15.625" x2="17.188" y2="18.75" gradientUnits="userSpaceOnUse"><stop stop-color="#FFE5AC"/><stop offset="0" stop-color="#FFE5AC"/><stop offset="1" stop-color="#B99C5D"/></linearGradient><linearGradient id="paint7_linear" x1="17.188" y1="21.875" x2="17.188" y2="25" gradientUnits="userSpaceOnUse"><stop stop-color="#FFE5AC"/><stop offset="0" stop-color="#FFE5AC"/><stop offset="1" stop-color="#B99C5D"/></linearGradient></defs></svg>