<svg width="100" height="100" fill="none" xmlns="http://www.w3.org/2000/svg"><g clip-path="url(#clip0)"><path d="M90.095 57.13l-14.94-1.067-9.874-16.448-4.936-8.236v-2.281a4.483 4.483 0 00-6.102-4.183L40.047 30.39l1.072-3.6a6.69 6.69 0 00-3.302-7.71l-11.14-5.985a1.725 1.725 0 00-2.293.63L8.044 39.893l-.344-.2a1.723 1.723 0 00-2.353.637c-.011.017-.02.035-.03.053l-5.116 9.63a1.725 1.725 0 00.69 2.319l62.214 34.482c.256.141.543.215.835.215h25.715c5.71-.005 10.34-4.633 10.345-10.344v-8.918a10.7 10.7 0 00-9.905-10.636zm-18.543-.369l-1.97.657L54.155 37.36l3.966-2.978 13.43 22.38zm-45.057-39.85l9.691 5.202a3.249 3.249 0 011.618 3.722l-1.425 4.8-9.897-5.934-3.427-2.057 3.44-5.733zM16.286 33.366l.883-1.379 5.673 4.219a9.876 9.876 0 013.844 9.31l-.215 4.984-15.41-8.882 5.226-8.252zm73.37 50.215H64.382L4.038 50.132l3.485-6.551 57.132 32.873c.263.151.56.23.862.23h31.035a6.897 6.897 0 01-6.897 6.897zm6.896-10.346H65.977l-11.825-6.808 3.976-4.054a1.724 1.724 0 00-2.462-2.414l-4.6 4.69-6.552-3.776 6.57-5.256a1.726 1.726 0 00-2.154-2.693l-7.627 6.102-5.613-3.229 8.517-7.098A1.725 1.725 0 0042 46.047l-9.496 7.916-2.666-1.535.28-6.618a13.24 13.24 0 00-5.22-12.38l-5.874-4.367 2.22-3.485 15.261 9.157c.205.118.433.192.668.216.04 0 .077.014.119.017.041.004.067.012.1.012.213 0 .425-.038.624-.115l17.465-6.736a1.036 1.036 0 011.41.974V31l-6.207 4.654a1.724 1.724 0 00-.33 2.43l17.24 22.414a1.715 1.715 0 001.911.584l4.847-1.615 15.493 1.107a7.24 7.24 0 016.707 7.192v5.47z" fill="url(#paint0_linear)"/><path d="M10.345 62.89h-8.62a1.724 1.724 0 000 3.45h8.62a1.724 1.724 0 000-3.45z" fill="url(#paint1_linear)"/><path d="M0 74.96c0 .952.772 1.724 1.724 1.724h22.414a1.724 1.724 0 000-3.449H1.724C.772 73.235 0 74.007 0 74.96z" fill="url(#paint2_linear)"/><path d="M43.104 83.58H1.724a1.724 1.724 0 100 3.448h41.38a1.724 1.724 0 000-3.447z" fill="url(#paint3_linear)"/></g><defs><linearGradient id="paint0_linear" x1="50" y1="12.891" x2="50" y2="87.028" gradientUnits="userSpaceOnUse"><stop/><stop offset="0" stop-color="#FFE5AC"/><stop offset="1" stop-color="#B99C5D"/></linearGradient><linearGradient id="paint1_linear" x1="6.034" y1="62.891" x2="6.034" y2="66.339" gradientUnits="userSpaceOnUse"><stop/><stop offset="0" stop-color="#FFE5AC"/><stop offset="1" stop-color="#B99C5D"/></linearGradient><linearGradient id="paint2_linear" x1="12.931" y1="73.235" x2="12.931" y2="76.684" gradientUnits="userSpaceOnUse"><stop/><stop offset="0" stop-color="#FFE5AC"/><stop offset="1" stop-color="#B99C5D"/></linearGradient><linearGradient id="paint3_linear" x1="22.414" y1="83.581" x2="22.414" y2="87.028" gradientUnits="userSpaceOnUse"><stop/><stop offset="0" stop-color="#FFE5AC"/><stop offset="1" stop-color="#B99C5D"/></linearGradient><clipPath id="clip0"><path fill="#fff" d="M0 0h100v100H0z"/></clipPath></defs></svg>