<svg width="100" height="100" fill="none" xmlns="http://www.w3.org/2000/svg"><g clip-path="url(#clip0)"><path d="M88.483 70.57a1.468 1.468 0 00-1.6.319l-16.04 16.04a1.468 1.468 0 001.038 2.506h16.04c.811 0 1.468-.657 1.468-1.468v-16.04c0-.594-.358-1.129-.906-1.356zM75.424 86.5l11.03-11.03V86.5h-11.03z" fill="url(#paint0_linear)"/><path d="M99.094 47.044a1.468 1.468 0 00-1.6.318L93.1 51.758V21.87c0-.81-.658-1.467-1.468-1.467H80.353l4.094-4.094.002-.002 3.944-3.945a4.447 4.447 0 001.31-3.164c0-1.196-.465-2.32-1.31-3.165l-4.561-4.561A4.446 4.446 0 0080.667.16a4.445 4.445 0 00-3.164 1.31l-3.947 3.946-4.769 4.769L58.572 20.4h-45.56V5.881c0-.81-.658-1.468-1.468-1.468C5.179 4.413 0 9.592 0 15.957V78.3c0 .108.013.213.035.315a11.055 11.055 0 003.324 7.116 11.054 11.054 0 007.76 3.157h44.85l-8.446 8.447a1.468 1.468 0 001.038 2.506h49.971c.811 0 1.468-.657 1.468-1.468V48.4a1.47 1.47 0 00-.906-1.357zM79.58 3.547c.6-.6 1.577-.6 2.177 0l4.562 4.561c.6.6.6 1.578 0 2.178l-2.909 2.909-6.739-6.74 2.909-2.908zM74.594 8.53l6.74 6.74-2.694 2.692-6.739-6.739 2.693-2.693zm22.471 56.362h-2.708a1.468 1.468 0 100 2.936h2.708v4.423h-2.708a1.468 1.468 0 100 2.935h2.708v4.423h-2.708a1.468 1.468 0 100 2.936h2.708v4.423h-2.708a1.468 1.468 0 000 2.935h2.708v7H52.104L66.93 82.08a1.468 1.468 0 10-2.076-2.076l-5.949 5.949H11.12a8.137 8.137 0 01-8.176-7.92 8.63 8.63 0 01.124-1.22l.007-.044a8.532 8.532 0 01.349-1.32l.054-.153c.036-.096.074-.191.113-.285l.033-.082c.05-.117.103-.233.158-.348l.007-.014a8.64 8.64 0 016.006-4.697l.022-.005c.121-.025.244-.046.367-.066l.062-.01c.112-.017.225-.03.337-.043l.095-.012c.109-.01.219-.018.329-.025l.104-.007c.144-.007.289-.011.434-.011.81 0 1.468-.657 1.468-1.468V57.58a1.468 1.468 0 10-2.936 0v9.267a11.465 11.465 0 00-7.14 3.767V15.957c0-4.246 3.09-7.784 7.14-8.483v44.235a1.468 1.468 0 002.936 0V23.337h42.625l-8.114 8.114a1.468 1.468 0 102.075 2.076l10.62-10.62 9.607-9.607 6.74 6.74-.791.79c-.001 0-.002 0-.002.002L46.176 50.426l-6.739-6.739 5.834-5.833a1.468 1.468 0 00-2.076-2.076l-6.871 6.871a1.476 1.476 0 00-.104.116l-.03.041a1.609 1.609 0 00-.06.084c-.011.017-.02.034-.03.052a1.38 1.38 0 00-.11.226l-.012.03-2.86 8.102-1.95 5.523a1.488 1.488 0 00-.058.223h-4.88a1.468 1.468 0 100 2.936h40.647a1.468 1.468 0 100-2.936H37.714l8.95-3.16c.008-.002.015-.006.023-.009.034-.013.069-.027.102-.043l.04-.018c.036-.018.07-.037.104-.058l.033-.02c.035-.022.07-.047.104-.073l.025-.019c.04-.033.08-.068.119-.106l30.204-30.204h12.745v31.357L69.168 75.69a1.468 1.468 0 002.075 2.075l25.822-25.822v12.95zm-53.573-13l-4.205 1.485-2.8-2.801 1.483-4.204 5.522 5.52z" fill="url(#paint1_linear)"/></g><defs><linearGradient id="paint0_linear" x1="79.901" y1="70.459" x2="79.901" y2="89.435" gradientUnits="userSpaceOnUse"><stop stop-color="#FFE5AC"/><stop offset="0" stop-color="#FFE5AC"/><stop offset="1" stop-color="#B99C5D"/></linearGradient><linearGradient id="paint1_linear" x1="50" y1=".16" x2="50" y2="99.84" gradientUnits="userSpaceOnUse"><stop stop-color="#FFE5AC"/><stop offset="0" stop-color="#FFE5AC"/><stop offset="1" stop-color="#B99C5D"/></linearGradient><clipPath id="clip0"><path fill="#fff" d="M0 0h100v100H0z"/></clipPath></defs></svg>