<svg width="100" height="100" fill="none" xmlns="http://www.w3.org/2000/svg"><path d="M57.813 84.375h-3.126V69.062a1.563 1.563 0 00-3.124 0v15.313H10.937v-31.25h13a1.563 1.563 0 000-3.125H9.376a1.563 1.563 0 00-1.563 1.563v32.812H4.688a1.563 1.563 0 00-1.562 1.563v3.124a7.813 7.813 0 007.813 7.813h40.624a7.813 7.813 0 007.813-7.813v-3.124a1.563 1.563 0 00-1.563-1.563zm-1.563 4.688a4.688 4.688 0 01-4.688 4.687h-3.124v-1.563a1.563 1.563 0 00-3.126 0v1.563H17.189v-1.563a1.563 1.563 0 00-3.125 0v1.563h-3.126a4.688 4.688 0 01-4.687-4.688V87.5h50v1.563z" fill="#000"/><path d="M57.813 84.375h-3.126V69.062a1.563 1.563 0 00-3.124 0v15.313H10.937v-31.25h13a1.563 1.563 0 000-3.125H9.376a1.563 1.563 0 00-1.563 1.563v32.812H4.688a1.563 1.563 0 00-1.562 1.563v3.124a7.813 7.813 0 007.813 7.813h40.624a7.813 7.813 0 007.813-7.813v-3.124a1.563 1.563 0 00-1.563-1.563zm-1.563 4.688a4.688 4.688 0 01-4.688 4.687h-3.124v-1.563a1.563 1.563 0 00-3.126 0v1.563H17.189v-1.563a1.563 1.563 0 00-3.125 0v1.563h-3.126a4.688 4.688 0 01-4.687-4.688V87.5h50v1.563z" fill="url(#paint0_linear)"/><path d="M84.375 12.5H87.5a1.563 1.563 0 000-3.125h-3.125a4.688 4.688 0 00-4.688 4.688v1.562h-1.562a1.563 1.563 0 000 3.125h1.563v4.688a1.563 1.563 0 003.124 0V18.75h1.563a1.563 1.563 0 000-3.125h-1.563v-1.563a1.563 1.563 0 011.563-1.562z" fill="#000"/><path d="M84.375 12.5H87.5a1.563 1.563 0 000-3.125h-3.125a4.688 4.688 0 00-4.688 4.688v1.562h-1.562a1.563 1.563 0 000 3.125h1.563v4.688a1.563 1.563 0 003.124 0V18.75h1.563a1.563 1.563 0 000-3.125h-1.563v-1.563a1.563 1.563 0 011.563-1.562z" fill="url(#paint1_linear)"/><path d="M92.188 3.125h-18.75a4.688 4.688 0 00-4.688 4.688v3.125a1.563 1.563 0 003.125 0V7.812a1.563 1.563 0 011.563-1.562h18.75a1.563 1.563 0 011.562 1.563v18.75a1.563 1.563 0 01-1.563 1.562h-18.75a1.563 1.563 0 01-1.562-1.563v-9.375a1.563 1.563 0 00-3.125 0v9.375a4.688 4.688 0 004.688 4.688h18.75a4.688 4.688 0 004.687-4.688V7.813a4.688 4.688 0 00-4.688-4.687z" fill="#000"/><path d="M92.188 3.125h-18.75a4.688 4.688 0 00-4.688 4.688v3.125a1.563 1.563 0 003.125 0V7.812a1.563 1.563 0 011.563-1.562h18.75a1.563 1.563 0 011.562 1.563v18.75a1.563 1.563 0 01-1.563 1.562h-18.75a1.563 1.563 0 01-1.562-1.563v-9.375a1.563 1.563 0 00-3.125 0v9.375a4.688 4.688 0 004.688 4.688h18.75a4.688 4.688 0 004.687-4.688V7.813a4.688 4.688 0 00-4.688-4.687z" fill="url(#paint2_linear)"/><path d="M76.563 65.625a6.25 6.25 0 1012.5 0 6.25 6.25 0 00-12.5 0zm9.374 0a3.126 3.126 0 11-6.25 0 3.126 3.126 0 016.25 0z" fill="#000"/><path d="M76.563 65.625a6.25 6.25 0 1012.5 0 6.25 6.25 0 00-12.5 0zm9.374 0a3.126 3.126 0 11-6.25 0 3.126 3.126 0 016.25 0z" fill="url(#paint3_linear)"/><path d="M92.188 51.563h-18.75a4.688 4.688 0 00-4.688 4.687V75a4.688 4.688 0 004.688 4.688h18.75A4.688 4.688 0 0096.874 75v-3.125a1.563 1.563 0 00-3.125 0V75a1.563 1.563 0 01-1.563 1.563h-18.75A1.563 1.563 0 0171.876 75V56.25a1.563 1.563 0 011.563-1.563h18.75a1.563 1.563 0 011.562 1.563v9.375a1.563 1.563 0 003.125 0V56.25a4.688 4.688 0 00-4.688-4.688z" fill="#000"/><path d="M92.188 51.563h-18.75a4.688 4.688 0 00-4.688 4.687V75a4.688 4.688 0 004.688 4.688h18.75A4.688 4.688 0 0096.874 75v-3.125a1.563 1.563 0 00-3.125 0V75a1.563 1.563 0 01-1.563 1.563h-18.75A1.563 1.563 0 0171.876 75V56.25a1.563 1.563 0 011.563-1.563h18.75a1.563 1.563 0 011.562 1.563v9.375a1.563 1.563 0 003.125 0V56.25a4.688 4.688 0 00-4.688-4.688z" fill="url(#paint4_linear)"/><path d="M38.234 21.64a1.563 1.563 0 001.532.063l9.375-4.688a1.561 1.561 0 000-2.781l-9.375-4.687a1.562 1.562 0 00-2.266 1.39v9.375a1.563 1.563 0 00.734 1.328zm2.391-8.172l4.313 2.157-4.313 2.156v-4.313z" fill="#000"/><path d="M38.234 21.64a1.563 1.563 0 001.532.063l9.375-4.688a1.561 1.561 0 000-2.781l-9.375-4.687a1.562 1.562 0 00-2.266 1.39v9.375a1.563 1.563 0 00.734 1.328zm2.391-8.172l4.313 2.157-4.313 2.156v-4.313z" fill="url(#paint5_linear)"/><path d="M42.188 29.688a14.062 14.062 0 100-28.124 14.062 14.062 0 000 28.123zm0-25a10.938 10.938 0 110 21.875 10.938 10.938 0 010-21.875z" fill="#000"/><path d="M42.188 29.688a14.062 14.062 0 100-28.124 14.062 14.062 0 000 28.123zm0-25a10.938 10.938 0 110 21.875 10.938 10.938 0 010-21.875z" fill="url(#paint6_linear)"/><path d="M57.813 35.938a1.562 1.562 0 001.25-.626l4.687-6.25a1.563 1.563 0 00-2.5-1.875l-4.688 6.25a1.563 1.563 0 001.25 2.5z" fill="#000"/><path d="M57.813 35.938a1.562 1.562 0 001.25-.626l4.687-6.25a1.563 1.563 0 00-2.5-1.875l-4.688 6.25a1.563 1.563 0 001.25 2.5z" fill="url(#paint7_linear)"/><path d="M61.25 41.563a1.561 1.561 0 002.188.312l6.25-4.688a1.562 1.562 0 10-1.876-2.5l-6.25 4.688a1.562 1.562 0 00-.312 2.188z" fill="#000"/><path d="M61.25 41.563a1.561 1.561 0 002.188.312l6.25-4.688a1.562 1.562 0 10-1.876-2.5l-6.25 4.688a1.562 1.562 0 00-.312 2.188z" fill="url(#paint8_linear)"/><path d="M76.563 45a1.564 1.564 0 00-1.876-1.25l-7.812 1.563a1.57 1.57 0 10.313 3.125h.312l7.813-1.563A1.565 1.565 0 0076.563 45z" fill="#000"/><path d="M76.563 45a1.564 1.564 0 00-1.876-1.25l-7.812 1.563a1.57 1.57 0 10.313 3.125h.312l7.813-1.563A1.565 1.565 0 0076.563 45z" fill="url(#paint9_linear)"/><path d="M4.688 45.313h18.75A1.563 1.563 0 0025 43.75v-25a1.563 1.563 0 00-1.563-1.563H4.688a1.563 1.563 0 00-1.562 1.563v25a1.563 1.563 0 001.563 1.563zm1.562-25h15.625v21.875H6.25V20.311z" fill="#000"/><path d="M4.688 45.313h18.75A1.563 1.563 0 0025 43.75v-25a1.563 1.563 0 00-1.563-1.563H4.688a1.563 1.563 0 00-1.562 1.563v25a1.563 1.563 0 001.563 1.563zm1.562-25h15.625v21.875H6.25V20.311z" fill="url(#paint10_linear)"/><path d="M17.188 23.438h-3.125a1.563 1.563 0 000 3.125h3.124a1.563 1.563 0 000-3.125z" fill="#000"/><path d="M17.188 23.438h-3.125a1.563 1.563 0 000 3.125h3.124a1.563 1.563 0 000-3.125z" fill="url(#paint11_linear)"/><path d="M17.188 29.688h-6.25a1.563 1.563 0 100 3.125h6.25a1.563 1.563 0 000-3.126z" fill="#000"/><path d="M17.188 29.688h-6.25a1.563 1.563 0 100 3.125h6.25a1.563 1.563 0 000-3.126z" fill="url(#paint12_linear)"/><path d="M17.188 35.938h-6.25a1.563 1.563 0 100 3.124h6.25a1.563 1.563 0 000-3.124z" fill="#000"/><path d="M17.188 35.938h-6.25a1.563 1.563 0 100 3.124h6.25a1.563 1.563 0 000-3.124z" fill="url(#paint13_linear)"/><path d="M56.437 44.844a1.569 1.569 0 00-2.719 1.562l6.891 11.922-25 9.375h-.234l-4.063 2.344-2.703 1.563a3.125 3.125 0 01-2.375.312 3.125 3.125 0 01-1.89-1.453l-3.126-5.406a3.125 3.125 0 011.172-4.125l5.407-3.125 3.906 6.765a1.563 1.563 0 001.36.782 1.564 1.564 0 001.359-2.344l-4.032-6.969L50 39.875l.64 1.11a1.569 1.569 0 002.72-1.563l-1.563-2.703a1.564 1.564 0 00-1.079-.75 1.564 1.564 0 00-1.28.328L27.561 54.328l-6.656 3.844a6.25 6.25 0 00-2.875 7.078l-1.563.89a4.688 4.688 0 001.125 8.595 4.69 4.69 0 001.22.156 4.781 4.781 0 002.343-.625l1.562-.89a6.063 6.063 0 004.375 1.843 6.156 6.156 0 003.125-.844l1.36-.781 3.125 5.422a4.688 4.688 0 006.39 1.719 4.688 4.688 0 001.72-6.407l-2.845-4.953 23.438-8.797a1.563 1.563 0 001.009-1.598 1.562 1.562 0 00-.197-.636l-7.78-13.5zM19.531 71.547a1.563 1.563 0 01-1.188.156 1.563 1.563 0 01-.953-.718 1.563 1.563 0 01.578-2.141l1.36-.781 1.562 2.703-1.36.781zm20.562 4.375a1.563 1.563 0 01.157 1.188 1.563 1.563 0 01-.735.937 1.563 1.563 0 01-2.125-.562l-3.125-5.422 2.594-1.485h.125l3.11 5.344z" fill="#000"/><path d="M56.437 44.844a1.569 1.569 0 00-2.719 1.562l6.891 11.922-25 9.375h-.234l-4.063 2.344-2.703 1.563a3.125 3.125 0 01-2.375.312 3.125 3.125 0 01-1.89-1.453l-3.126-5.406a3.125 3.125 0 011.172-4.125l5.407-3.125 3.906 6.765a1.563 1.563 0 001.36.782 1.564 1.564 0 001.359-2.344l-4.032-6.969L50 39.875l.64 1.11a1.569 1.569 0 002.72-1.563l-1.563-2.703a1.564 1.564 0 00-1.079-.75 1.564 1.564 0 00-1.28.328L27.561 54.328l-6.656 3.844a6.25 6.25 0 00-2.875 7.078l-1.563.89a4.688 4.688 0 001.125 8.595 4.69 4.69 0 001.22.156 4.781 4.781 0 002.343-.625l1.562-.89a6.063 6.063 0 004.375 1.843 6.156 6.156 0 003.125-.844l1.36-.781 3.125 5.422a4.688 4.688 0 006.39 1.719 4.688 4.688 0 001.72-6.407l-2.845-4.953 23.438-8.797a1.563 1.563 0 001.009-1.598 1.562 1.562 0 00-.197-.636l-7.78-13.5zM19.531 71.547a1.563 1.563 0 01-1.188.156 1.563 1.563 0 01-.953-.718 1.563 1.563 0 01.578-2.141l1.36-.781 1.562 2.703-1.36.781zm20.562 4.375a1.563 1.563 0 01.157 1.188 1.563 1.563 0 01-.735.937 1.563 1.563 0 01-2.125-.562l-3.125-5.422 2.594-1.485h.125l3.11 5.344z" fill="url(#paint14_linear)"/><defs><linearGradient id="paint0_linear" x1="31.25" y1="50" x2="31.25" y2="96.875" gradientUnits="userSpaceOnUse"><stop stop-color="#FFE5AC"/><stop offset="0" stop-color="#FFE5AC"/><stop offset="1" stop-color="#B99C5D"/></linearGradient><linearGradient id="paint1_linear" x1="82.813" y1="9.375" x2="82.813" y2="25" gradientUnits="userSpaceOnUse"><stop stop-color="#FFE5AC"/><stop offset="0" stop-color="#FFE5AC"/><stop offset="1" stop-color="#B99C5D"/></linearGradient><linearGradient id="paint2_linear" x1="82.813" y1="3.125" x2="82.813" y2="31.25" gradientUnits="userSpaceOnUse"><stop stop-color="#FFE5AC"/><stop offset="0" stop-color="#FFE5AC"/><stop offset="1" stop-color="#B99C5D"/></linearGradient><linearGradient id="paint3_linear" x1="82.813" y1="59.375" x2="82.813" y2="71.875" gradientUnits="userSpaceOnUse"><stop stop-color="#FFE5AC"/><stop offset="0" stop-color="#FFE5AC"/><stop offset="1" stop-color="#B99C5D"/></linearGradient><linearGradient id="paint4_linear" x1="82.813" y1="51.563" x2="82.813" y2="79.688" gradientUnits="userSpaceOnUse"><stop stop-color="#FFE5AC"/><stop offset="0" stop-color="#FFE5AC"/><stop offset="1" stop-color="#B99C5D"/></linearGradient><linearGradient id="paint5_linear" x1="43.745" y1="9.379" x2="43.745" y2="21.875" gradientUnits="userSpaceOnUse"><stop stop-color="#FFE5AC"/><stop offset="0" stop-color="#FFE5AC"/><stop offset="1" stop-color="#B99C5D"/></linearGradient><linearGradient id="paint6_linear" x1="42.188" y1="1.563" x2="42.188" y2="29.688" gradientUnits="userSpaceOnUse"><stop stop-color="#FFE5AC"/><stop offset="0" stop-color="#FFE5AC"/><stop offset="1" stop-color="#B99C5D"/></linearGradient><linearGradient id="paint7_linear" x1="60.156" y1="26.563" x2="60.156" y2="35.938" gradientUnits="userSpaceOnUse"><stop stop-color="#FFE5AC"/><stop offset="0" stop-color="#FFE5AC"/><stop offset="1" stop-color="#B99C5D"/></linearGradient><linearGradient id="paint8_linear" x1="65.625" y1="34.375" x2="65.625" y2="42.188" gradientUnits="userSpaceOnUse"><stop stop-color="#FFE5AC"/><stop offset="0" stop-color="#FFE5AC"/><stop offset="1" stop-color="#B99C5D"/></linearGradient><linearGradient id="paint9_linear" x1="71.03" y1="43.713" x2="71.03" y2="48.446" gradientUnits="userSpaceOnUse"><stop stop-color="#FFE5AC"/><stop offset="0" stop-color="#FFE5AC"/><stop offset="1" stop-color="#B99C5D"/></linearGradient><linearGradient id="paint10_linear" x1="14.063" y1="17.188" x2="14.063" y2="45.313" gradientUnits="userSpaceOnUse"><stop stop-color="#FFE5AC"/><stop offset="0" stop-color="#FFE5AC"/><stop offset="1" stop-color="#B99C5D"/></linearGradient><linearGradient id="paint11_linear" x1="15.625" y1="23.438" x2="15.625" y2="26.563" gradientUnits="userSpaceOnUse"><stop stop-color="#FFE5AC"/><stop offset="0" stop-color="#FFE5AC"/><stop offset="1" stop-color="#B99C5D"/></linearGradient><linearGradient id="paint12_linear" x1="14.063" y1="29.688" x2="14.063" y2="32.813" gradientUnits="userSpaceOnUse"><stop stop-color="#FFE5AC"/><stop offset="0" stop-color="#FFE5AC"/><stop offset="1" stop-color="#B99C5D"/></linearGradient><linearGradient id="paint13_linear" x1="14.063" y1="35.938" x2="14.063" y2="39.063" gradientUnits="userSpaceOnUse"><stop stop-color="#FFE5AC"/><stop offset="0" stop-color="#FFE5AC"/><stop offset="1" stop-color="#B99C5D"/></linearGradient><linearGradient id="paint14_linear" x1="39.268" y1="35.942" x2="39.268" y2="81.356" gradientUnits="userSpaceOnUse"><stop stop-color="#FFE5AC"/><stop offset="0" stop-color="#FFE5AC"/><stop offset="1" stop-color="#B99C5D"/></linearGradient></defs></svg>