<svg width="100" height="100" fill="none" xmlns="http://www.w3.org/2000/svg"><g clip-path="url(#clip0)"><path d="M17.588 77.334c-1.4 0-2.746.35-3.94 1.005A46.178 46.178 0 013.906 50C3.906 24.583 24.583 3.906 50 3.906c3.09 0 6.178.308 9.18.914a1.953 1.953 0 00.773-3.829A50.372 50.372 0 0050 0C36.645 0 24.088 5.201 14.645 14.645 5.2 24.088 0 36.645 0 50a50.092 50.092 0 0010.76 30.987 8.146 8.146 0 00-1.375 4.55 8.15 8.15 0 002.403 5.8 8.146 8.146 0 005.8 2.403 8.15 8.15 0 005.8-2.403 8.148 8.148 0 002.403-5.8 8.147 8.147 0 00-2.402-5.8 8.15 8.15 0 00-5.801-2.403zm3.038 11.241a4.267 4.267 0 01-3.038 1.259 4.269 4.269 0 01-3.038-1.259 4.269 4.269 0 01-1.259-3.038 4.27 4.27 0 011.259-3.039 4.266 4.266 0 013.038-1.258 4.27 4.27 0 013.038 1.258 4.269 4.269 0 011.259 3.039 4.269 4.269 0 01-1.259 3.038z" fill="url(#paint0_linear)"/><path d="M89.239 19.01c2.123-3.185 1.782-7.54-1.027-10.348a8.152 8.152 0 00-5.8-2.402 8.153 8.153 0 00-5.801 2.402 8.15 8.15 0 00-2.402 5.8 8.15 8.15 0 002.402 5.802 8.15 8.15 0 005.8 2.402c1.4 0 2.746-.35 3.94-1.006A46.18 46.18 0 0196.094 50c0 25.416-20.678 46.094-46.094 46.094a46.43 46.43 0 01-9.092-.897 1.954 1.954 0 00-.767 3.83c3.225.645 6.542.973 9.859.973 13.355 0 25.911-5.201 35.355-14.645C94.8 75.912 100 63.355 100 50c0-11.235-3.816-22.2-10.761-30.99zm-9.865-1.508a4.269 4.269 0 01-1.26-3.04c0-1.147.448-2.225 1.26-3.037a4.267 4.267 0 013.038-1.259 4.27 4.27 0 013.038 1.259 4.303 4.303 0 010 6.077 4.273 4.273 0 01-3.038 1.258 4.268 4.268 0 01-3.038-1.258z" fill="url(#paint1_linear)"/><path d="M41.94 83.594c0 1.079.876 1.953 1.954 1.953h12.212a1.953 1.953 0 001.953-1.953v-3.787a30.588 30.588 0 007.33-3.038l2.674 2.674a1.954 1.954 0 002.762-.001l8.632-8.638c.762-.763.762-2 0-2.762l-2.67-2.67a30.586 30.586 0 003.038-7.33h3.772a1.953 1.953 0 001.953-1.954V43.876a1.953 1.953 0 00-1.953-1.953h-3.773a30.587 30.587 0 00-3.037-7.33l2.656-2.656a1.955 1.955 0 00-.001-2.763l-8.639-8.632a1.953 1.953 0 00-2.762 0l-2.652 2.654a30.588 30.588 0 00-7.33-3.038v-3.752a1.953 1.953 0 00-1.953-1.953H43.894a1.954 1.954 0 00-1.954 1.953v3.752a30.557 30.557 0 00-7.33 3.038l-2.652-2.653a1.954 1.954 0 00-2.762 0l-8.638 8.632a1.95 1.95 0 000 2.762l2.655 2.656a30.58 30.58 0 00-3.038 7.33H16.41a1.953 1.953 0 00-1.953 1.952l-.007 12.212a1.95 1.95 0 001.953 1.954h3.772a30.586 30.586 0 003.038 7.33l-2.67 2.671a1.953 1.953 0 000 2.762l8.632 8.638c.366.366.863.573 1.38.573h.002c.518 0 1.014-.206 1.38-.572l2.673-2.674a30.611 30.611 0 007.33 3.038v3.787zm-6.564-10.932a1.954 1.954 0 00-2.441.259l-2.378 2.378-5.871-5.875 2.376-2.377c.65-.65.759-1.668.259-2.44a26.734 26.734 0 01-3.7-8.93 1.954 1.954 0 00-1.91-1.542h-3.354l.005-8.306h3.35c.92 0 1.716-.642 1.91-1.543a26.736 26.736 0 013.699-8.928c.5-.772.391-1.79-.26-2.44l-2.36-2.361 5.875-5.871 2.359 2.359c.651.65 1.667.758 2.441.26a26.723 26.723 0 018.928-3.7c.9-.194 1.543-.99 1.543-1.91v-3.336h8.306v3.335c0 .921.642 1.717 1.543 1.91a26.746 26.746 0 018.927 3.7c.773.499 1.79.392 2.441-.26l2.359-2.358 5.875 5.87-2.36 2.361a1.953 1.953 0 00-.26 2.441 26.753 26.753 0 013.7 8.928c.193.9.989 1.543 1.91 1.543h3.356v8.306h-3.356c-.921 0-1.716.643-1.91 1.543a26.73 26.73 0 01-3.7 8.928c-.5.773-.39 1.79.26 2.441l2.376 2.376-5.871 5.875-2.378-2.377a1.953 1.953 0 00-2.442-.26 26.753 26.753 0 01-8.928 3.7c-.9.194-1.542.989-1.542 1.91v3.37h-8.306v-3.37c0-.92-.644-1.716-1.543-1.91a26.736 26.736 0 01-8.928-3.7z" fill="url(#paint2_linear)"/><path d="M66.138 50c0-8.9-7.24-16.139-16.138-16.139-8.9 0-16.139 7.24-16.139 16.139S41.101 66.138 50 66.138 66.138 58.898 66.138 50zm-28.37 0c0-6.745 5.487-12.232 12.232-12.232 6.745 0 12.232 5.487 12.232 12.232 0 6.744-5.487 12.232-12.232 12.232-6.745 0-12.232-5.487-12.232-12.232z" fill="url(#paint3_linear)"/><path d="M67.984 7.387c.514 0 1.018-.21 1.38-.573.364-.365.573-.869.573-1.383a1.97 1.97 0 00-.572-1.38 1.967 1.967 0 00-1.381-.573c-.516 0-1.017.21-1.38.572a1.97 1.97 0 00-.573 1.381 1.959 1.959 0 001.953 1.956z" fill="url(#paint4_linear)"/><path d="M32.102 92.648a1.97 1.97 0 00-1.381.573 1.97 1.97 0 00-.573 1.38c0 .516.21 1.018.573 1.382a1.97 1.97 0 001.38.572c.514 0 1.018-.21 1.382-.573.363-.363.572-.867.572-1.38a1.97 1.97 0 00-.572-1.381 1.969 1.969 0 00-1.381-.573z" fill="url(#paint5_linear)"/></g><defs><linearGradient id="paint0_linear" x1="30.76" y1="0" x2="30.76" y2="93.74" gradientUnits="userSpaceOnUse"><stop stop-color="#FFE5AC"/><stop offset="0" stop-color="#FFE5AC"/><stop offset="1" stop-color="#B99C5D"/></linearGradient><linearGradient id="paint1_linear" x1="69.285" y1="6.26" x2="69.285" y2="100" gradientUnits="userSpaceOnUse"><stop stop-color="#FFE5AC"/><stop offset="0" stop-color="#FFE5AC"/><stop offset="1" stop-color="#B99C5D"/></linearGradient><linearGradient id="paint2_linear" x1="50" y1="14.453" x2="50" y2="85.547" gradientUnits="userSpaceOnUse"><stop stop-color="#FFE5AC"/><stop offset="0" stop-color="#FFE5AC"/><stop offset="1" stop-color="#B99C5D"/></linearGradient><linearGradient id="paint3_linear" x1="50" y1="33.861" x2="50" y2="66.138" gradientUnits="userSpaceOnUse"><stop stop-color="#FFE5AC"/><stop offset="0" stop-color="#FFE5AC"/><stop offset="1" stop-color="#B99C5D"/></linearGradient><linearGradient id="paint4_linear" x1="67.984" y1="3.478" x2="67.984" y2="7.387" gradientUnits="userSpaceOnUse"><stop stop-color="#FFE5AC"/><stop offset="0" stop-color="#FFE5AC"/><stop offset="1" stop-color="#B99C5D"/></linearGradient><linearGradient id="paint5_linear" x1="32.102" y1="92.648" x2="32.102" y2="96.555" gradientUnits="userSpaceOnUse"><stop stop-color="#FFE5AC"/><stop offset="0" stop-color="#FFE5AC"/><stop offset="1" stop-color="#B99C5D"/></linearGradient><clipPath id="clip0"><path fill="#fff" d="M0 0h100v100H0z"/></clipPath></defs></svg>