<svg width="100" height="100" fill="none" xmlns="http://www.w3.org/2000/svg"><path d="M95 38.85V13.333c0-.92-.746-1.666-1.667-1.666H78.25C58.942-3.944 30.635-.947 15.025 18.36a44.956 44.956 0 00-9.192 19.795A14.97 14.97 0 000 49.999v6.667c.01 7.716 5.867 14.17 13.547 14.927a6.655 6.655 0 0013.12-1.594V36.666a6.655 6.655 0 00-13.12-1.593 14.909 14.909 0 00-3.822.903C15.595 13.76 38.362.509 60.577 6.379a41.611 41.611 0 0111.963 5.287H50c-.92 0-1.667.746-1.667 1.666V40c0 .92.747 1.667 1.667 1.667h9.167l4.5 6a1.667 1.667 0 002.666 0l4.5-6h2.5V70a6.655 6.655 0 0013.12 1.594A14.932 14.932 0 0090 70.79v4.208c-.01 8.28-6.72 14.99-15 15h-8.333v-1.666c0-.92-.747-1.667-1.667-1.667h-7.303a6.61 6.61 0 00-4.364-1.667h-6.666a6.667 6.667 0 000 13.334h6.666a6.61 6.61 0 004.364-1.667H65c.92 0 1.667-.746 1.667-1.667v-1.666H75c10.12-.012 18.322-8.214 18.333-18.334v-5.87A15 15 0 00100 56.666v-6.667a14.91 14.91 0 00-5-11.148zm-78.333-2.184a3.333 3.333 0 116.666 0v33.333a3.333 3.333 0 11-6.666 0V36.666zm-3.334 1.785v29.763a11.685 11.685 0 01-10-11.548v-6.667a11.685 11.685 0 0110-11.548zm40 56.548h-6.666a3.333 3.333 0 110-6.666h6.666a3.333 3.333 0 110 6.666zm10-1.666h-3.57a5.984 5.984 0 000-3.334h3.57v3.334zm20-23.334a3.333 3.333 0 11-6.666 0V41.666h6.666v28.333zM70 38.333c-.525 0-1.019.247-1.333.666L65 43.888l-3.667-4.889A1.667 1.667 0 0060 38.333h-8.333V14.999h40v23.334H70zm26.667 18.333a11.667 11.667 0 01-10 11.533V41.666h6.488a11.606 11.606 0 013.512 8.333v6.667z" fill="url(#paint0_linear)"/><path d="M63.182 18.332h-3.199v3.334h3.199v-3.334z" fill="url(#paint1_linear)"/><path d="M88.333 18.332H66.667v3.334h21.666v-3.334z" fill="url(#paint2_linear)"/><path d="M88.333 24.999H55v3.333h33.333V25z" fill="url(#paint3_linear)"/><path d="M88.333 31.666H55v3.333h33.333v-3.334z" fill="url(#paint4_linear)"/><defs><linearGradient id="paint0_linear" x1="50" y1="1.667" x2="50" y2="98.332" gradientUnits="userSpaceOnUse"><stop stop-color="#FFE5AC"/><stop offset="1" stop-color="#B99C5D"/></linearGradient><linearGradient id="paint1_linear" x1="61.582" y1="18.332" x2="61.582" y2="21.666" gradientUnits="userSpaceOnUse"><stop stop-color="#FFE5AC"/><stop offset="1" stop-color="#B99C5D"/></linearGradient><linearGradient id="paint2_linear" x1="77.5" y1="18.332" x2="77.5" y2="21.666" gradientUnits="userSpaceOnUse"><stop stop-color="#FFE5AC"/><stop offset="1" stop-color="#B99C5D"/></linearGradient><linearGradient id="paint3_linear" x1="71.667" y1="24.999" x2="71.667" y2="28.332" gradientUnits="userSpaceOnUse"><stop stop-color="#FFE5AC"/><stop offset="1" stop-color="#B99C5D"/></linearGradient><linearGradient id="paint4_linear" x1="71.667" y1="31.666" x2="71.667" y2="34.999" gradientUnits="userSpaceOnUse"><stop stop-color="#FFE5AC"/><stop offset="1" stop-color="#B99C5D"/></linearGradient></defs></svg>