<svg width="100" height="100" fill="none" xmlns="http://www.w3.org/2000/svg"><path d="M39.697 32.424a8.148 8.148 0 00-8.182 8.182 8.148 8.148 0 008.181 8.182 8.148 8.148 0 008.182-8.182 8.148 8.148 0 00-8.181-8.182zm0 13.334a5.109 5.109 0 01-5.152-5.152 5.109 5.109 0 015.151-5.151 5.109 5.109 0 015.152 5.151 5.109 5.109 0 01-5.151 5.152z" fill="#000"/><path d="M39.697 32.424a8.148 8.148 0 00-8.182 8.182 8.148 8.148 0 008.181 8.182 8.148 8.148 0 008.182-8.182 8.148 8.148 0 00-8.181-8.182zm0 13.334a5.109 5.109 0 01-5.152-5.152 5.109 5.109 0 015.151-5.151 5.109 5.109 0 015.152 5.151 5.109 5.109 0 01-5.151 5.152z" fill="url(#paint0_linear)"/><path d="M60.303 35.606a8.148 8.148 0 00-8.181 8.182c-.152 4.545 3.636 8.182 8.181 8.182a8.148 8.148 0 008.182-8.182 8.148 8.148 0 00-8.182-8.182zm0 13.333a5.109 5.109 0 01-5.151-5.151 5.109 5.109 0 015.151-5.152 5.109 5.109 0 015.152 5.152 5.109 5.109 0 01-5.152 5.151z" fill="#000"/><path d="M60.303 35.606a8.148 8.148 0 00-8.181 8.182c-.152 4.545 3.636 8.182 8.181 8.182a8.148 8.148 0 008.182-8.182 8.148 8.148 0 00-8.182-8.182zm0 13.333a5.109 5.109 0 01-5.151-5.151 5.109 5.109 0 015.151-5.152 5.109 5.109 0 015.152 5.152 5.109 5.109 0 01-5.152 5.151z" fill="url(#paint1_linear)"/><path d="M66.213 52.727h-11.97c-.909 0-1.818.152-2.576.455-1.666-2.273-4.242-3.637-7.12-3.637h-9.395c-5 0-8.94 4.091-8.94 8.94v4.394c0 .909.607 1.515 1.516 1.515h18.94v1.666c0 .91.605 1.516 1.514 1.516h24.243c.91 0 1.515-.607 1.515-1.516v-5.757c0-4.242-3.485-7.576-7.727-7.576zm-19.697 7.576v1.06H29.092v-2.878c0-3.334 2.727-5.91 5.909-5.91h9.394c1.818 0 3.484.758 4.545 2.122-1.515 1.363-2.424 3.333-2.424 5.606zm3.181 4.242v-4.242c-.049-4.065 3.614-4.392 4.697-4.394h11.97c2.576 0 4.545 2.121 4.545 4.546v4.09H49.697z" fill="#000"/><path d="M66.213 52.727h-11.97c-.909 0-1.818.152-2.576.455-1.666-2.273-4.242-3.637-7.12-3.637h-9.395c-5 0-8.94 4.091-8.94 8.94v4.394c0 .909.607 1.515 1.516 1.515h18.94v1.666c0 .91.605 1.516 1.514 1.516h24.243c.91 0 1.515-.607 1.515-1.516v-5.757c0-4.242-3.485-7.576-7.727-7.576zm-19.697 7.576v1.06H29.092v-2.878c0-3.334 2.727-5.91 5.909-5.91h9.394c1.818 0 3.484.758 4.545 2.122-1.515 1.363-2.424 3.333-2.424 5.606zm3.181 4.242v-4.242c-.049-4.065 3.614-4.392 4.697-4.394h11.97c2.576 0 4.545 2.121 4.545 4.546v4.09H49.697z" fill="url(#paint2_linear)"/><path d="M50 11.818C28.94 11.818 11.818 28.94 11.818 50c0 21.06 17.121 38.182 38.182 38.182 21.06 0 38.182-17.121 38.182-38.182 0-21.06-17.121-38.182-38.182-38.182zM51.515 85v-7.424c0-.91-.606-1.515-1.515-1.515-.909 0-1.515.606-1.515 1.515V85C30.303 84.242 15.758 69.697 15 51.515h7.424c.91 0 1.515-.606 1.515-1.515 0-.909-.606-1.515-1.515-1.515H15C15.758 30.303 30.303 15.758 48.485 15v7.424c0 .91.606 1.515 1.515 1.515.909 0 1.515-.606 1.515-1.515V15C69.697 15.758 84.242 30.303 85 48.485h-7.424c-.91 0-1.515.606-1.515 1.515 0 .909.606 1.515 1.515 1.515H85C84.243 69.697 69.697 84.243 51.515 85z" fill="#000"/><path d="M50 11.818C28.94 11.818 11.818 28.94 11.818 50c0 21.06 17.121 38.182 38.182 38.182 21.06 0 38.182-17.121 38.182-38.182 0-21.06-17.121-38.182-38.182-38.182zM51.515 85v-7.424c0-.91-.606-1.515-1.515-1.515-.909 0-1.515.606-1.515 1.515V85C30.303 84.242 15.758 69.697 15 51.515h7.424c.91 0 1.515-.606 1.515-1.515 0-.909-.606-1.515-1.515-1.515H15C15.758 30.303 30.303 15.758 48.485 15v7.424c0 .91.606 1.515 1.515 1.515.909 0 1.515-.606 1.515-1.515V15C69.697 15.758 84.242 30.303 85 48.485h-7.424c-.91 0-1.515.606-1.515 1.515 0 .909.606 1.515 1.515 1.515H85C84.243 69.697 69.697 84.243 51.515 85z" fill="url(#paint3_linear)"/><path d="M50 0C22.424 0 0 22.424 0 50s22.424 50 50 50 50-22.424 50-50S77.576 0 50 0zm0 96.97C24.09 96.97 3.03 75.91 3.03 50S24.09 3.03 50 3.03 96.97 24.09 96.97 50 75.91 96.97 50 96.97z" fill="#000"/><path d="M50 0C22.424 0 0 22.424 0 50s22.424 50 50 50 50-22.424 50-50S77.576 0 50 0zm0 96.97C24.09 96.97 3.03 75.91 3.03 50S24.09 3.03 50 3.03 96.97 24.09 96.97 50 75.91 96.97 50 96.97z" fill="url(#paint4_linear)"/><defs><linearGradient id="paint0_linear" x1="39.697" y1="32.424" x2="39.697" y2="48.788" gradientUnits="userSpaceOnUse"><stop stop-color="#FFE5AC"/><stop offset="0" stop-color="#FFE5AC"/><stop offset="1" stop-color="#B99C5D"/></linearGradient><linearGradient id="paint1_linear" x1="60.301" y1="35.606" x2="60.301" y2="51.97" gradientUnits="userSpaceOnUse"><stop stop-color="#FFE5AC"/><stop offset="0" stop-color="#FFE5AC"/><stop offset="1" stop-color="#B99C5D"/></linearGradient><linearGradient id="paint2_linear" x1="50.076" y1="49.545" x2="50.076" y2="67.576" gradientUnits="userSpaceOnUse"><stop stop-color="#FFE5AC"/><stop offset="0" stop-color="#FFE5AC"/><stop offset="1" stop-color="#B99C5D"/></linearGradient><linearGradient id="paint3_linear" x1="50" y1="11.818" x2="50" y2="88.182" gradientUnits="userSpaceOnUse"><stop stop-color="#FFE5AC"/><stop offset="0" stop-color="#FFE5AC"/><stop offset="1" stop-color="#B99C5D"/></linearGradient><linearGradient id="paint4_linear" x1="50" y1="0" x2="50" y2="100" gradientUnits="userSpaceOnUse"><stop stop-color="#FFE5AC"/><stop offset="0" stop-color="#FFE5AC"/><stop offset="1" stop-color="#B99C5D"/></linearGradient></defs></svg>