<svg width="100" height="100" fill="none" xmlns="http://www.w3.org/2000/svg"><path d="M56.666 93.326c20.249 0 36.663-16.415 36.663-36.664C93.33 36.414 76.915 20 56.666 20c-20.25 0-36.664 16.415-36.664 36.663.023 20.24 16.424 36.642 36.664 36.664zm-28.332-38.33H23.42c.868-17.068 14.51-30.71 31.579-31.58v4.915a1.667 1.667 0 003.333 0v-4.914c17.068.868 30.71 14.51 31.58 31.579H83.33a1.667 1.667 0 000 3.333h6.581c-.868 17.068-14.51 30.71-31.579 31.58v-4.915a1.667 1.667 0 00-3.333 0v4.914c-17.068-.868-30.71-14.51-31.58-31.579h4.915a1.667 1.667 0 000-3.333z" fill="url(#paint0_linear)"/><path d="M94.188 35.026a43.22 43.22 0 00-1.579-2.528l4.115-4.115c.65-.65.65-1.706 0-2.357l-9.416-9.416a1.667 1.667 0 00-2.356 0l-4.122 4.108a43.072 43.072 0 00-22.498-7.344V3.334h11.666a1.667 1.667 0 000-3.334H43.333a1.667 1.667 0 000 3.333H55V13.39a43.28 43.28 0 00-35.83 21.608h-9.167a1.667 1.667 0 000 3.334h10c.043 0 .08-.022.123-.026a1.65 1.65 0 001.455-.833c10.603-19.378 34.908-26.492 54.287-15.89C95.246 32.186 102.36 56.492 91.757 75.87 81.154 95.249 56.849 102.363 37.47 91.76a39.998 39.998 0 01-15.89-15.89 1.65 1.65 0 00-1.45-.841c-.044 0-.083-.025-.128-.025h-9.999a1.667 1.667 0 000 3.333h9.166c11.96 20.716 38.449 27.814 59.165 15.855 20.716-11.96 27.814-38.449 15.855-59.165zM83.554 22.721l2.576-2.576 7.06 7.06-2.58 2.58a43.79 43.79 0 00-7.056-7.064z" fill="url(#paint1_linear)"/><path d="M16.669 56.663c0-.92-.747-1.667-1.667-1.667H1.67a1.667 1.667 0 000 3.333h13.332c.92 0 1.667-.746 1.667-1.666z" fill="url(#paint2_linear)"/><path d="M5.003 48.33h11.666a1.667 1.667 0 000-3.333H5.003a1.667 1.667 0 000 3.333z" fill="url(#paint3_linear)"/><path d="M18.335 66.662c0-.92-.746-1.667-1.666-1.667H5.003a1.667 1.667 0 000 3.333h11.666c.92 0 1.666-.746 1.666-1.666z" fill="url(#paint4_linear)"/><path d="M52.154 67.84c.651.65 1.706.65 2.357 0l23.165-23.165a1.666 1.666 0 00-2.357-2.357L53.333 64.305l-9.916-9.916a1.667 1.667 0 00-2.357 2.357L52.154 67.84z" fill="url(#paint5_linear)"/><defs><linearGradient id="paint0_linear" x1="56.666" y1="19.998" x2="56.666" y2="93.326" gradientUnits="userSpaceOnUse"><stop stop-color="#FFE5AC"/><stop offset="1" stop-color="#B99C5D"/></linearGradient><linearGradient id="paint1_linear" x1="54.166" y1="0" x2="54.166" y2="100" gradientUnits="userSpaceOnUse"><stop stop-color="#FFE5AC"/><stop offset="1" stop-color="#B99C5D"/></linearGradient><linearGradient id="paint2_linear" x1="8.336" y1="54.996" x2="8.336" y2="58.329" gradientUnits="userSpaceOnUse"><stop stop-color="#FFE5AC"/><stop offset="1" stop-color="#B99C5D"/></linearGradient><linearGradient id="paint3_linear" x1="10.836" y1="44.997" x2="10.836" y2="48.33" gradientUnits="userSpaceOnUse"><stop stop-color="#FFE5AC"/><stop offset="1" stop-color="#B99C5D"/></linearGradient><linearGradient id="paint4_linear" x1="10.836" y1="64.995" x2="10.836" y2="68.328" gradientUnits="userSpaceOnUse"><stop stop-color="#FFE5AC"/><stop offset="1" stop-color="#B99C5D"/></linearGradient><linearGradient id="paint5_linear" x1="59.368" y1="41.851" x2="59.368" y2="68.328" gradientUnits="userSpaceOnUse"><stop stop-color="#FFE5AC"/><stop offset="1" stop-color="#B99C5D"/></linearGradient></defs></svg>