<svg width="100" height="100" fill="none" xmlns="http://www.w3.org/2000/svg"><path d="M15.625 90.625a1.563 1.563 0 100-3.125 1.563 1.563 0 000 3.125z" fill="url(#paint0_linear)"/><path d="M50 71.875h3.125V75H50v-3.125z" fill="url(#paint1_linear)"/><path d="M56.25 71.875h3.125V75H56.25v-3.125z" fill="url(#paint2_linear)"/><path d="M46.875 59.375h-6.25a1.562 1.562 0 00-1.563 1.563v6.25a1.562 1.562 0 001.563 1.562h6.25a1.562 1.562 0 001.563-1.563v-6.25a1.562 1.562 0 00-1.563-1.562zm-1.563 6.25h-3.124V62.5h3.124v3.125z" fill="url(#paint3_linear)"/><path d="M79.688 71.875h3.124V75h-3.124v-3.125z" fill="url(#paint4_linear)"/><path d="M85.938 71.875h3.124V75h-3.124v-3.125z" fill="url(#paint5_linear)"/><path d="M70.313 68.75h6.25a1.562 1.562 0 001.562-1.563v-6.25a1.562 1.562 0 00-1.563-1.562h-6.25a1.562 1.562 0 00-1.562 1.563v6.25a1.562 1.562 0 001.563 1.562zm1.562-6.25H75v3.125h-3.125V62.5z" fill="url(#paint6_linear)"/><path d="M50 46.875h3.125V50H50v-3.125z" fill="url(#paint7_linear)"/><path d="M56.25 46.875h3.125V50H56.25v-3.125z" fill="url(#paint8_linear)"/><path d="M40.625 43.75h6.25a1.562 1.562 0 001.563-1.563v-6.25a1.562 1.562 0 00-1.563-1.562h-6.25a1.562 1.562 0 00-1.563 1.563v6.25a1.562 1.562 0 001.563 1.562zm1.563-6.25h3.124v3.125h-3.124V37.5z" fill="url(#paint9_linear)"/><path d="M79.688 46.875h3.124V50h-3.124v-3.125z" fill="url(#paint10_linear)"/><path d="M85.938 46.875h3.124V50h-3.124v-3.125z" fill="url(#paint11_linear)"/><path d="M70.313 43.75h6.25a1.562 1.562 0 001.562-1.563v-6.25a1.562 1.562 0 00-1.563-1.562h-6.25a1.562 1.562 0 00-1.562 1.563v6.25a1.562 1.562 0 001.563 1.562zm1.562-6.25H75v3.125h-3.125V37.5z" fill="url(#paint12_linear)"/><path d="M93.75 3.125H34.375a1.562 1.562 0 00-1.563 1.563V81.25h-4.121l-8.94-7.45a1.562 1.562 0 00-1.001-.362h-1.563V47.175l3.014-7.533a1.56 1.56 0 00.111-.58v-6.25a1.562 1.562 0 00-1.562-1.563H6.25a1.562 1.562 0 00-1.563 1.563v6.25c0 .198.038.395.112.58l3.013 7.533v26.261H6.25A1.562 1.562 0 004.687 75v12.5a1.562 1.562 0 001.563 1.563h1.563a7.813 7.813 0 0015.625 0h9.375v6.25a1.562 1.562 0 001.562 1.562h9.375a1.562 1.562 0 001.563-1.563v-6.25h12.5v6.25a1.562 1.562 0 001.562 1.563h9.375a1.562 1.562 0 001.563-1.563v-6.25h12.5v6.25a1.562 1.562 0 001.562 1.563h9.375a1.562 1.562 0 001.563-1.563V4.689a1.562 1.562 0 00-1.563-1.563zM35.937 85.938V81.25h56.25v4.688h-56.25zm56.25-32.813H65.626V31.25h26.563v21.875zm0 25H65.626V56.25h26.563v21.875zm-56.25 0V56.25H62.5v21.875H35.937zm26.563-25H35.937V31.25H62.5v21.875zm29.688-25H65.624V6.25h26.563v21.875zM35.938 6.25H62.5v21.875H35.937V6.25zM7.811 34.375h9.375v4.386l-2.62 6.551h-.505V37.5h-3.124v7.813h-.505l-2.62-6.552v-4.386zm3.125 14.063h3.126v25h-3.126v-25zm4.688 45.312a4.687 4.687 0 110-9.374 4.687 4.687 0 010 9.374zm7.158-7.813a7.81 7.81 0 00-14.316 0h-.655v-9.374h10.372l8.378 6.981v2.394h-3.779zm6.904-1.562h3.125v1.563h-3.124v-1.563zm12.5 9.375h-6.25v-4.688h6.25v4.688zm25 0h-6.25v-4.688h6.25v4.688zm25 0h-6.25v-4.688h6.25v4.688z" fill="url(#paint13_linear)"/><path d="M50 21.875h3.125V25H50v-3.125z" fill="url(#paint14_linear)"/><path d="M56.25 21.875h3.125V25H56.25v-3.125z" fill="url(#paint15_linear)"/><path d="M46.875 9.375h-6.25a1.562 1.562 0 00-1.563 1.563v6.25a1.562 1.562 0 001.563 1.562h6.25a1.562 1.562 0 001.563-1.563v-6.25a1.562 1.562 0 00-1.563-1.562zm-1.563 6.25h-3.124V12.5h3.124v3.125z" fill="url(#paint16_linear)"/><path d="M79.688 21.875h3.124V25h-3.124v-3.125z" fill="url(#paint17_linear)"/><path d="M85.938 21.875h3.124V25h-3.124v-3.125z" fill="url(#paint18_linear)"/><path d="M70.313 18.75h6.25a1.562 1.562 0 001.562-1.563v-6.25a1.562 1.562 0 00-1.563-1.562h-6.25a1.562 1.562 0 00-1.562 1.563v6.25a1.562 1.562 0 001.563 1.562zm1.562-6.25H75v3.125h-3.125V12.5z" fill="url(#paint19_linear)"/><defs><linearGradient id="paint0_linear" x1="15.625" y1="87.5" x2="15.625" y2="90.625" gradientUnits="userSpaceOnUse"><stop stop-color="#FFE5AC"/><stop offset="0" stop-color="#FFE5AC"/><stop offset="1" stop-color="#B99C5D"/></linearGradient><linearGradient id="paint1_linear" x1="51.563" y1="71.875" x2="51.563" y2="75" gradientUnits="userSpaceOnUse"><stop stop-color="#FFE5AC"/><stop offset="0" stop-color="#FFE5AC"/><stop offset="1" stop-color="#B99C5D"/></linearGradient><linearGradient id="paint2_linear" x1="57.813" y1="71.875" x2="57.813" y2="75" gradientUnits="userSpaceOnUse"><stop stop-color="#FFE5AC"/><stop offset="0" stop-color="#FFE5AC"/><stop offset="1" stop-color="#B99C5D"/></linearGradient><linearGradient id="paint3_linear" x1="43.75" y1="59.375" x2="43.75" y2="68.75" gradientUnits="userSpaceOnUse"><stop stop-color="#FFE5AC"/><stop offset="0" stop-color="#FFE5AC"/><stop offset="1" stop-color="#B99C5D"/></linearGradient><linearGradient id="paint4_linear" x1="81.25" y1="71.875" x2="81.25" y2="75" gradientUnits="userSpaceOnUse"><stop stop-color="#FFE5AC"/><stop offset="0" stop-color="#FFE5AC"/><stop offset="1" stop-color="#B99C5D"/></linearGradient><linearGradient id="paint5_linear" x1="87.5" y1="71.875" x2="87.5" y2="75" gradientUnits="userSpaceOnUse"><stop stop-color="#FFE5AC"/><stop offset="0" stop-color="#FFE5AC"/><stop offset="1" stop-color="#B99C5D"/></linearGradient><linearGradient id="paint6_linear" x1="73.438" y1="59.375" x2="73.438" y2="68.75" gradientUnits="userSpaceOnUse"><stop stop-color="#FFE5AC"/><stop offset="0" stop-color="#FFE5AC"/><stop offset="1" stop-color="#B99C5D"/></linearGradient><linearGradient id="paint7_linear" x1="51.563" y1="46.875" x2="51.563" y2="50" gradientUnits="userSpaceOnUse"><stop stop-color="#FFE5AC"/><stop offset="0" stop-color="#FFE5AC"/><stop offset="1" stop-color="#B99C5D"/></linearGradient><linearGradient id="paint8_linear" x1="57.813" y1="46.875" x2="57.813" y2="50" gradientUnits="userSpaceOnUse"><stop stop-color="#FFE5AC"/><stop offset="0" stop-color="#FFE5AC"/><stop offset="1" stop-color="#B99C5D"/></linearGradient><linearGradient id="paint9_linear" x1="43.75" y1="34.375" x2="43.75" y2="43.75" gradientUnits="userSpaceOnUse"><stop stop-color="#FFE5AC"/><stop offset="0" stop-color="#FFE5AC"/><stop offset="1" stop-color="#B99C5D"/></linearGradient><linearGradient id="paint10_linear" x1="81.25" y1="46.875" x2="81.25" y2="50" gradientUnits="userSpaceOnUse"><stop stop-color="#FFE5AC"/><stop offset="0" stop-color="#FFE5AC"/><stop offset="1" stop-color="#B99C5D"/></linearGradient><linearGradient id="paint11_linear" x1="87.5" y1="46.875" x2="87.5" y2="50" gradientUnits="userSpaceOnUse"><stop stop-color="#FFE5AC"/><stop offset="0" stop-color="#FFE5AC"/><stop offset="1" stop-color="#B99C5D"/></linearGradient><linearGradient id="paint12_linear" x1="73.438" y1="34.375" x2="73.438" y2="43.75" gradientUnits="userSpaceOnUse"><stop stop-color="#FFE5AC"/><stop offset="0" stop-color="#FFE5AC"/><stop offset="1" stop-color="#B99C5D"/></linearGradient><linearGradient id="paint13_linear" x1="50" y1="3.125" x2="50" y2="96.875" gradientUnits="userSpaceOnUse"><stop stop-color="#FFE5AC"/><stop offset="0" stop-color="#FFE5AC"/><stop offset="1" stop-color="#B99C5D"/></linearGradient><linearGradient id="paint14_linear" x1="51.563" y1="21.875" x2="51.563" y2="25" gradientUnits="userSpaceOnUse"><stop stop-color="#FFE5AC"/><stop offset="0" stop-color="#FFE5AC"/><stop offset="1" stop-color="#B99C5D"/></linearGradient><linearGradient id="paint15_linear" x1="57.813" y1="21.875" x2="57.813" y2="25" gradientUnits="userSpaceOnUse"><stop stop-color="#FFE5AC"/><stop offset="0" stop-color="#FFE5AC"/><stop offset="1" stop-color="#B99C5D"/></linearGradient><linearGradient id="paint16_linear" x1="43.75" y1="9.375" x2="43.75" y2="18.75" gradientUnits="userSpaceOnUse"><stop stop-color="#FFE5AC"/><stop offset="0" stop-color="#FFE5AC"/><stop offset="1" stop-color="#B99C5D"/></linearGradient><linearGradient id="paint17_linear" x1="81.25" y1="21.875" x2="81.25" y2="25" gradientUnits="userSpaceOnUse"><stop stop-color="#FFE5AC"/><stop offset="0" stop-color="#FFE5AC"/><stop offset="1" stop-color="#B99C5D"/></linearGradient><linearGradient id="paint18_linear" x1="87.5" y1="21.875" x2="87.5" y2="25" gradientUnits="userSpaceOnUse"><stop stop-color="#FFE5AC"/><stop offset="0" stop-color="#FFE5AC"/><stop offset="1" stop-color="#B99C5D"/></linearGradient><linearGradient id="paint19_linear" x1="73.438" y1="9.375" x2="73.438" y2="18.75" gradientUnits="userSpaceOnUse"><stop stop-color="#FFE5AC"/><stop offset="0" stop-color="#FFE5AC"/><stop offset="1" stop-color="#B99C5D"/></linearGradient></defs></svg>