<svg width="100" height="100" fill="none" xmlns="http://www.w3.org/2000/svg"><g clip-path="url(#clip0)"><path d="M60.548 38.281c-9.477 0-17.188 7.71-17.188 17.188 0 9.477 7.71 17.187 17.188 17.187 9.477 0 17.187-7.71 17.187-17.187S70.025 38.28 60.548 38.28zm0 30.469c-7.324 0-13.281-5.958-13.281-13.281 0-7.324 5.957-13.282 13.28-13.282 7.324 0 13.282 5.958 13.282 13.282 0 7.323-5.958 13.281-13.281 13.281z" fill="#000"/><path d="M60.548 38.281c-9.477 0-17.188 7.71-17.188 17.188 0 9.477 7.71 17.187 17.188 17.187 9.477 0 17.187-7.71 17.187-17.187S70.025 38.28 60.548 38.28zm0 30.469c-7.324 0-13.281-5.958-13.281-13.281 0-7.324 5.957-13.282 13.28-13.282 7.324 0 13.282 5.958 13.282 13.282 0 7.323-5.958 13.281-13.281 13.281z" fill="url(#paint0_linear)"/><path d="M60.548 46.68a1.953 1.953 0 100 3.907 4.888 4.888 0 014.882 4.882 1.953 1.953 0 103.906 0c0-4.846-3.942-8.788-8.788-8.788z" fill="#000"/><path d="M60.548 46.68a1.953 1.953 0 100 3.907 4.888 4.888 0 014.882 4.882 1.953 1.953 0 103.906 0c0-4.846-3.942-8.788-8.788-8.788z" fill="url(#paint1_linear)"/><path d="M12.04 20.196a1.954 1.954 0 00-3.47 1.796l5.258 10.156a1.97 1.97 0 001.764 1.055c.74-.011 1.41-.44 1.731-1.108l3.183-6.626 3.457 6.68a1.955 1.955 0 001.735 1.054h.029c.74-.011 1.41-.44 1.732-1.108l4.877-10.156a1.954 1.954 0 00-3.52-1.69l-3.184 6.627-3.457-6.68a1.966 1.966 0 00-1.764-1.055c-.74.011-1.411.44-1.732 1.108l-3.182 6.627-3.457-6.68z" fill="#000"/><path d="M12.04 20.196a1.954 1.954 0 00-3.47 1.796l5.258 10.156a1.97 1.97 0 001.764 1.055c.74-.011 1.41-.44 1.731-1.108l3.183-6.626 3.457 6.68a1.955 1.955 0 001.735 1.054h.029c.74-.011 1.41-.44 1.732-1.108l4.877-10.156a1.954 1.954 0 00-3.52-1.69l-3.184 6.627-3.457-6.68a1.966 1.966 0 00-1.764-1.055c-.74.011-1.411.44-1.732 1.108l-3.182 6.627-3.457-6.68z" fill="url(#paint2_linear)"/><path d="M24.607 9.375c.515 0 1.018-.209 1.381-.572.364-.363.573-.868.573-1.381 0-.514-.209-1.018-.573-1.381a1.967 1.967 0 00-1.38-.572c-.514 0-1.018.209-1.38.572a1.966 1.966 0 00-.574 1.38c0 .514.21 1.019.573 1.382s.867.572 1.38.572z" fill="#000"/><path d="M24.607 9.375c.515 0 1.018-.209 1.381-.572.364-.363.573-.868.573-1.381 0-.514-.209-1.018-.573-1.381a1.967 1.967 0 00-1.38-.572c-.514 0-1.018.209-1.38.572a1.966 1.966 0 00-.574 1.38c0 .514.21 1.019.573 1.382s.867.572 1.38.572z" fill="url(#paint3_linear)"/><path d="M100 39.063V13.28c0-4.307-3.505-7.812-7.813-7.812H32.81a1.953 1.953 0 000 3.906h59.377a3.91 3.91 0 013.907 3.906v25.782a3.91 3.91 0 01-3.906 3.906h-9.376c-.056 0-.11.004-.166.008a25.526 25.526 0 00-13.729-11.48l2.895-6.028 3.458 6.679a1.951 1.951 0 001.734 1.055h.03c.74-.011 1.41-.44 1.731-1.108l4.878-10.156a1.953 1.953 0 10-3.521-1.69l-3.183 6.626-3.457-6.68a1.963 1.963 0 00-1.764-1.054c-.741.011-1.41.44-1.731 1.107l-3.183 6.627-3.457-6.68a1.954 1.954 0 00-3.47 1.797l4.323 8.35a25.506 25.506 0 00-3.652-.264c-2.4 0-4.725.336-6.929.961l4.371-9.1a1.952 1.952 0 10-3.52-1.69l-3.184 6.626-3.457-6.68a1.952 1.952 0 00-3.495.053l-3.183 6.627-3.457-6.68a1.953 1.953 0 00-3.47 1.797l5.258 10.156a1.967 1.967 0 001.764 1.055c.74-.011 1.41-.44 1.731-1.108l3.183-6.626 3.457 6.679c.058.112.129.214.206.31a25.56 25.56 0 00-11.369 10.51H7.812a3.91 3.91 0 01-3.906-3.906v-25.78a3.91 3.91 0 013.906-3.907h8.007a1.953 1.953 0 100-3.906H7.812C3.505 5.469 0 8.974 0 13.28v25.782c0 4.308 3.505 7.812 7.813 7.812h28.842a25.272 25.272 0 00-1.498 8.594c0 14 11.39 25.39 25.39 25.39 4.601 0 8.92-1.23 12.646-3.378l15.501 15.502a6.602 6.602 0 004.683 1.936 6.602 6.602 0 004.683-1.936 6.631 6.631 0 000-9.367l-6.09-6.09a1.953 1.953 0 00-2.763 2.761l6.091 6.091a2.72 2.72 0 010 3.843 2.72 2.72 0 01-3.841 0L76.469 75.23c5.77-4.657 9.47-11.785 9.47-19.762 0-3.015-.53-5.909-1.5-8.594h7.749c4.308 0 7.812-3.505 7.812-7.813zm-39.452 37.89c-11.846 0-21.485-9.638-21.485-21.484 0-11.846 9.639-21.485 21.485-21.485s21.484 9.639 21.484 21.485-9.637 21.484-21.484 21.484z" fill="#000"/><path d="M100 39.063V13.28c0-4.307-3.505-7.812-7.813-7.812H32.81a1.953 1.953 0 000 3.906h59.377a3.91 3.91 0 013.907 3.906v25.782a3.91 3.91 0 01-3.906 3.906h-9.376c-.056 0-.11.004-.166.008a25.526 25.526 0 00-13.729-11.48l2.895-6.028 3.458 6.679a1.951 1.951 0 001.734 1.055h.03c.74-.011 1.41-.44 1.731-1.108l4.878-10.156a1.953 1.953 0 10-3.521-1.69l-3.183 6.626-3.457-6.68a1.963 1.963 0 00-1.764-1.054c-.741.011-1.41.44-1.731 1.107l-3.183 6.627-3.457-6.68a1.954 1.954 0 00-3.47 1.797l4.323 8.35a25.506 25.506 0 00-3.652-.264c-2.4 0-4.725.336-6.929.961l4.371-9.1a1.952 1.952 0 10-3.52-1.69l-3.184 6.626-3.457-6.68a1.952 1.952 0 00-3.495.053l-3.183 6.627-3.457-6.68a1.953 1.953 0 00-3.47 1.797l5.258 10.156a1.967 1.967 0 001.764 1.055c.74-.011 1.41-.44 1.731-1.108l3.183-6.626 3.457 6.679c.058.112.129.214.206.31a25.56 25.56 0 00-11.369 10.51H7.812a3.91 3.91 0 01-3.906-3.906v-25.78a3.91 3.91 0 013.906-3.907h8.007a1.953 1.953 0 100-3.906H7.812C3.505 5.469 0 8.974 0 13.28v25.782c0 4.308 3.505 7.812 7.813 7.812h28.842a25.272 25.272 0 00-1.498 8.594c0 14 11.39 25.39 25.39 25.39 4.601 0 8.92-1.23 12.646-3.378l15.501 15.502a6.602 6.602 0 004.683 1.936 6.602 6.602 0 004.683-1.936 6.631 6.631 0 000-9.367l-6.09-6.09a1.953 1.953 0 00-2.763 2.761l6.091 6.091a2.72 2.72 0 010 3.843 2.72 2.72 0 01-3.841 0L76.469 75.23c5.77-4.657 9.47-11.785 9.47-19.762 0-3.015-.53-5.909-1.5-8.594h7.749c4.308 0 7.812-3.505 7.812-7.813zm-39.452 37.89c-11.846 0-21.485-9.638-21.485-21.484 0-11.846 9.639-21.485 21.485-21.485s21.484 9.639 21.484 21.485-9.637 21.484-21.484 21.484z" fill="url(#paint4_linear)"/><path d="M84.574 72.892a1.967 1.967 0 00-.572 1.381c0 .514.209 1.017.572 1.381.366.364.868.573 1.381.573a1.97 1.97 0 001.381-.573 1.96 1.96 0 00.572-1.38 1.958 1.958 0 00-1.953-1.954c-.513 0-1.018.21-1.38.573z" fill="#000"/><path d="M84.574 72.892a1.967 1.967 0 00-.572 1.381c0 .514.209 1.017.572 1.381.366.364.868.573 1.381.573a1.97 1.97 0 001.381-.573 1.96 1.96 0 00.572-1.38 1.958 1.958 0 00-1.953-1.954c-.513 0-1.018.21-1.38.573z" fill="url(#paint5_linear)"/></g><defs><linearGradient id="paint0_linear" x1="60.548" y1="38.281" x2="60.548" y2="72.656" gradientUnits="userSpaceOnUse"><stop stop-color="#FFE5AC"/><stop offset="0" stop-color="#FFE5AC"/><stop offset="1" stop-color="#B99C5D"/></linearGradient><linearGradient id="paint1_linear" x1="63.965" y1="46.681" x2="63.965" y2="57.422" gradientUnits="userSpaceOnUse"><stop stop-color="#FFE5AC"/><stop offset="0" stop-color="#FFE5AC"/><stop offset="1" stop-color="#B99C5D"/></linearGradient><linearGradient id="paint2_linear" x1="20.44" y1="19.14" x2="20.44" y2="33.203" gradientUnits="userSpaceOnUse"><stop stop-color="#FFE5AC"/><stop offset="0" stop-color="#FFE5AC"/><stop offset="1" stop-color="#B99C5D"/></linearGradient><linearGradient id="paint3_linear" x1="24.607" y1="5.469" x2="24.607" y2="9.375" gradientUnits="userSpaceOnUse"><stop stop-color="#FFE5AC"/><stop offset="0" stop-color="#FFE5AC"/><stop offset="1" stop-color="#B99C5D"/></linearGradient><linearGradient id="paint4_linear" x1="50" y1="5.469" x2="50" y2="94.919" gradientUnits="userSpaceOnUse"><stop stop-color="#FFE5AC"/><stop offset="0" stop-color="#FFE5AC"/><stop offset="1" stop-color="#B99C5D"/></linearGradient><linearGradient id="paint5_linear" x1="85.955" y1="72.32" x2="85.955" y2="76.227" gradientUnits="userSpaceOnUse"><stop stop-color="#FFE5AC"/><stop offset="0" stop-color="#FFE5AC"/><stop offset="1" stop-color="#B99C5D"/></linearGradient><clipPath id="clip0"><path fill="#fff" d="M0 0h100v100H0z"/></clipPath></defs></svg>