<svg width="70" height="70" fill="none" xmlns="http://www.w3.org/2000/svg"><g opacity=".3"><rect x="4.2" y="43.966" width="11.454" height="20.307" rx="2" fill="#333"/><rect x="18.2" y="36.35" width="11.454" height="27.922" rx="2" fill="#333"/><rect x="32.2" y="31.273" width="11.454" height="32.999" rx="2" fill="#333"/><rect x="46.2" y="26.197" width="11.454" height="38.076" rx="2" fill="#333"/><path d="M4.067 35.85a1 1 0 00.266 1.983l-.266-1.983zm43.406-18.046l-11.51.928 6.559 9.503 4.95-10.431zM4.333 37.833c6.47-.866 21.445-4.834 36.263-14.07l-1.058-1.698C24.976 31.142 10.275 35.02 4.068 35.85l.265 1.983z" fill="#333"/><ellipse cx="57.654" cy="15.329" rx="8.909" ry="8.329" fill="#333"/><path d="M60.995 16.711c0 .596-.215 1.117-.645 1.564-.424.439-1.031.73-1.822.871v1.18h-1.493V19.2a7.133 7.133 0 01-1.525-.244c-.48-.135-.879-.301-1.196-.5l.804-1.829a5.29 5.29 0 001.186.5c.438.12.858.18 1.26.18.346 0 .593-.031.742-.095.148-.07.222-.173.222-.308 0-.156-.099-.273-.296-.351-.191-.078-.509-.163-.953-.255a11.518 11.518 0 01-1.43-.383 2.507 2.507 0 01-.995-.68c-.283-.32-.424-.748-.424-1.287 0-.624.223-1.16.667-1.606.452-.446 1.098-.73 1.938-.85v-1.16h1.493v1.138c.847.078 1.564.284 2.15.617l-.752 1.818c-.727-.368-1.416-.553-2.065-.553-.642 0-.964.156-.964.468 0 .15.096.262.286.34.19.071.505.15.943.234a9.14 9.14 0 011.43.373 2.4 2.4 0 011.005.67c.29.311.434.737.434 1.275z" fill="#fff"/></g></svg>