<svg width="71" height="70" fill="none" xmlns="http://www.w3.org/2000/svg"><g opacity=".3" fill="#333"><path d="M60.93 33.408a27.927 27.927 0 01-47.41 23.567A27.926 27.926 0 0137.096 9.57l-1.782 1.783a6.982 6.982 0 00-2.048 4.938A20.944 20.944 0 1054.21 37.234a6.98 6.98 0 004.934-2.048l1.787-1.778z"/><path d="M51.492 5.686c.256.384.392.835.391 1.296v11.635h11.636a2.327 2.327 0 011.647 3.975L55.858 31.9a2.327 2.327 0 01-1.648.68h-13l-3.448 3.449a4.655 4.655 0 11-9.15 1.205 4.662 4.662 0 015.86-4.5l3.448-3.445V16.29a2.328 2.328 0 01.68-1.647l9.308-9.31a2.327 2.327 0 013.584.353z"/><path d="M33.266 20.944a16.29 16.29 0 1016.29 16.29h-6.418l-.582.582a9.309 9.309 0 11-9.872-9.872l.582-.582v-6.418z"/></g></svg>