<svg width="71" height="70" fill="none" xmlns="http://www.w3.org/2000/svg"><g opacity=".3" clip-path="url(#clip0_12_161)" fill="#333"><g clip-path="url(#clip1_12_161)"><path fill-rule="evenodd" clip-rule="evenodd" d="M63.364 14.954a3.89 3.89 0 00-.797 0H56L35.5 35 15 14.954H8.122a3.892 3.892 0 00-1.03.155l26.684 26.573a2 2 0 002.824-.002l26.764-26.726z"/><path d="M66.242 17.656L37.93 45.851a3.89 3.89 0 01-5.484 0L4.39 17.87a3.89 3.89 0 00-.136.971v38.89a3.889 3.889 0 003.889 3.888h54.444a3.889 3.889 0 003.889-3.889V18.842a3.89 3.89 0 00-.233-1.186zM10.806 57.731H8.103v-2.78l14.136-14.02 2.742 2.742L10.806 57.73zm51.741 0h-2.722L45.65 43.673l2.742-2.742 14.136 14.02.02 2.78z"/></g><path d="M48.952 4.215a8.37 8.37 0 00-11.839 0L35.5 5.828l-1.613-1.613a8.372 8.372 0 00-11.84 11.84l1.614 1.612L35.5 29.507l11.84-11.84 1.612-1.613a8.371 8.371 0 000-11.839z"/></g><defs><clipPath id="clip0_12_161"><path fill="#fff" transform="translate(.5)" d="M0 0h70v70H0z"/></clipPath><clipPath id="clip1_12_161"><path fill="#fff" transform="translate(.5 3.287)" d="M0 0h70v70H0z"/></clipPath></defs></svg>