<svg width="71" height="70" fill="none" xmlns="http://www.w3.org/2000/svg"><g opacity=".3" fill="#333"><path d="M18.127 63.03a1 1 0 01-1-1v-1.282c0-7.564 6.191-13.696 13.828-13.696h9.218C47.809 47.052 54 53.184 54 60.748v1.283a1 1 0 01-1 1H18.127zm17.437-22.825c-5.091 0-9.218-4.088-9.218-9.131s4.127-9.13 9.218-9.13c5.09 0 9.218 4.087 9.218 9.13 0 5.043-4.127 9.13-9.218 9.13z" stroke="#333" stroke-width="2" stroke-linecap="round"/><path d="M59.397 22.011a.5.5 0 01.883 0l1.697 3.187a.5.5 0 00.357.258l3.577.613a.5.5 0 01.272.843l-2.524 2.572a.5.5 0 00-.138.422l.516 3.555a.5.5 0 01-.713.522l-3.267-1.591a.5.5 0 00-.438 0l-3.266 1.59a.5.5 0 01-.714-.52l.517-3.556a.5.5 0 00-.138-.422l-2.524-2.572a.5.5 0 01.272-.843l3.577-.613a.5.5 0 00.357-.258l1.697-3.187zm-49.164 0a.5.5 0 01.883 0l1.697 3.187a.5.5 0 00.357.258l3.577.613a.5.5 0 01.272.843l-2.524 2.572a.5.5 0 00-.138.422l.517 3.555a.5.5 0 01-.714.522l-3.267-1.591a.5.5 0 00-.437 0l-3.267 1.59a.5.5 0 01-.713-.52l.516-3.556a.5.5 0 00-.138-.422L4.33 26.912a.5.5 0 01.272-.843l3.577-.613a.5.5 0 00.357-.258l1.697-3.187zm9.218-13.695a.5.5 0 01.883 0l1.698 3.186a.5.5 0 00.356.258l3.577.613a.5.5 0 01.273.843l-2.525 2.572a.5.5 0 00-.137.422l.516 3.556a.5.5 0 01-.714.521l-3.266-1.59a.5.5 0 00-.438 0l-3.266 1.59a.5.5 0 01-.714-.521l.516-3.556a.5.5 0 00-.138-.422l-2.524-2.572a.5.5 0 01.272-.843l3.577-.613a.5.5 0 00.357-.258l1.697-3.186zm15.364-6.087a.5.5 0 01.883 0l1.697 3.186a.5.5 0 00.357.258l3.577.613a.5.5 0 01.272.843l-2.524 2.572a.5.5 0 00-.138.422l.516 3.556a.5.5 0 01-.713.521l-3.267-1.59a.5.5 0 00-.437 0L31.77 14.2a.5.5 0 01-.713-.521l.516-3.556a.5.5 0 00-.138-.422L28.912 7.13a.5.5 0 01.272-.843l3.577-.613a.5.5 0 00.357-.258l1.697-3.186zm15.364 6.087a.5.5 0 01.883 0l1.697 3.186a.5.5 0 00.357.258l3.577.613a.5.5 0 01.272.843l-2.524 2.572a.5.5 0 00-.138.422l.516 3.556a.5.5 0 01-.714.521l-3.266-1.59a.5.5 0 00-.438 0l-3.266 1.59a.5.5 0 01-.714-.521l.517-3.556a.5.5 0 00-.138-.422l-2.524-2.572a.5.5 0 01.272-.843l3.577-.613a.5.5 0 00.356-.258l1.698-3.186z"/></g></svg>