<svg width="71" height="70" fill="none" xmlns="http://www.w3.org/2000/svg"><g opacity=".3"><circle cx="35.5" cy="35" r="20.106" fill="#333"/><circle cx="35.5" cy="35" r="26.833" stroke="#333" stroke-width="7"/><path d="M38.844 21.831c-.327.102-.63.433-.913.998a3.88 3.88 0 00-.377 1.122c-.186.895-.315 1.38-.474 1.763-.194.473-.343.702-.673 1.037-.343.349-.77.839-1.38 1.575-1.08 1.306-1.796 2.067-2.243 2.383-.25.177-.27.186-.516.226-.354.06-.592.222-.754.518l-.073.131v9.677l.07.127c.157.286.5.487.898.532.485.054 1.236.258 2.527.684.395.132.772.254.837.271.066.02.34.105.616.187 1.146.353 2.61.629 3.691.699a40 40 0 002.788 0c1.076-.075 1.864-.376 2.461-.946.623-.59.916-1.338.916-2.33v-.408l.15-.167c.332-.37.526-.734.662-1.239.142-.52.155-1.02.037-1.462l-.042-.16.11-.154c.167-.236.361-.64.432-.908.154-.577.133-1.166-.063-1.813l-.052-.172.115-.139c.28-.338.474-.719.61-1.197.063-.218.068-.273.068-.77 0-.513-.003-.545-.07-.76a2.96 2.96 0 00-2.035-1.925c-.367-.094-.581-.102-2.78-.102-1.178 0-2.142-.005-2.142-.01 0-.067.202-.492.495-1.042.38-.714.51-1.034.641-1.592.108-.45.129-.684.113-1.34-.024-1.085-.152-1.575-.579-2.194-.371-.545-.958-.886-1.817-1.063-.33-.067-1.089-.09-1.254-.037zM24.89 30.96a1.06 1.06 0 00-.615.508l-.06.116v9.701l.089.157c.11.192.246.311.471.413l.173.077h2.37c2.256 0 2.374-.002 2.5-.047.18-.065.382-.211.479-.35.175-.252.162.146.157-5.15l-.008-4.8-.06-.117a1.053 1.053 0 00-.472-.448l-.175-.082-2.37-.005c-1.91-.005-2.39.002-2.479.027zm2.535 7.365c.267.09.534.374.6.637.044.172.02.455-.048.602a1.148 1.148 0 01-.469.455c-.138.065-.175.073-.413.073-.233 0-.278-.008-.409-.068-.178-.084-.392-.28-.466-.428-.115-.236-.117-.574-.002-.795.076-.152.243-.326.387-.406.23-.13.56-.157.82-.07z" fill="#fff"/><path d="M27.425 38.325c.267.09.534.374.6.637.044.172.02.455-.048.602a1.148 1.148 0 01-.469.455c-.138.065-.175.073-.413.073-.233 0-.278-.008-.409-.068-.178-.084-.392-.28-.466-.428-.115-.236-.117-.574-.002-.795.076-.152.243-.326.387-.406.23-.13.56-.157.82-.07z" fill="#fff"/></g></svg>