<svg width="30" height="42" viewBox="0 0 30 42" fill="none" xmlns="http://www.w3.org/2000/svg">
<path d="M15 0C6.70714 0 0 6.573 0 14.7C0 25.725 15 42 15 42C15 42 30 25.725 30 14.7C30 6.573 23.2929 0 15 0ZM15 19.95C13.5792 19.95 12.2166 19.3969 11.2119 18.4123C10.2073 17.4277 9.64286 16.0924 9.64286 14.7C9.64286 13.3076 10.2073 11.9723 11.2119 10.9877C12.2166 10.0031 13.5792 9.45 15 9.45C16.4208 9.45 17.7834 10.0031 18.7881 10.9877C19.7927 11.9723 20.3571 13.3076 20.3571 14.7C20.3571 16.0924 19.7927 17.4277 18.7881 18.4123C17.7834 19.3969 16.4208 19.95 15 19.95Z" fill="white"/>
</svg>
