<svg width="23" height="33" viewBox="0 0 23 33" fill="none" xmlns="http://www.w3.org/2000/svg">
<path d="M11.5996 0.757812C5.34138 0.757812 0.279785 5.71818 0.279785 11.8513C0.279785 20.1714 11.5996 32.4534 11.5996 32.4534C11.5996 32.4534 22.9195 20.1714 22.9195 11.8513C22.9195 5.71818 17.8579 0.757812 11.5996 0.757812ZM11.5996 15.8132C10.5274 15.8132 9.49912 15.3958 8.74095 14.6528C7.98278 13.9098 7.55684 12.9021 7.55684 11.8513C7.55684 10.8005 7.98278 9.79276 8.74095 9.04975C9.49912 8.30674 10.5274 7.88932 11.5996 7.88932C12.6719 7.88932 13.7002 8.30674 14.4583 9.04975C15.2165 9.79276 15.6425 10.8005 15.6425 11.8513C15.6425 12.9021 15.2165 13.9098 14.4583 14.6528C13.7002 15.3958 12.6719 15.8132 11.5996 15.8132Z" fill="white"/>
</svg>
