<svg width="27" height="17" viewBox="0 0 27 17" fill="none" xmlns="http://www.w3.org/2000/svg">
<path d="M0.236171 9.0296L8.72219 16.798C8.86378 16.9277 9.0519 17 9.24752 17C9.44314 17 9.63126 16.9277 9.77285 16.798L9.78199 16.7892C9.85087 16.7263 9.90571 16.6506 9.94319 16.5668C9.98067 16.4829 10 16.3926 10 16.3013C10 16.21 9.98067 16.1197 9.94319 16.0358C9.90571 15.9519 9.85087 15.8763 9.78199 15.8134L1.79085 8.49854L9.78199 1.18661C9.85087 1.12374 9.90571 1.04807 9.94319 0.964189C9.98067 0.880313 10 0.789989 10 0.698709C10 0.607429 9.98067 0.517105 9.94319 0.433227C9.90571 0.349351 9.85087 0.273677 9.78199 0.210807L9.77285 0.20203C9.63126 0.0723453 9.44314 -4.12773e-07 9.24752 -4.04222e-07C9.0519 -3.95671e-07 8.86378 0.0723453 8.72219 0.20203L0.236171 7.9704C0.16154 8.03872 0.102126 8.12089 0.0615291 8.21192C0.0209328 8.30296 -3.75876e-07 8.40096 -3.71547e-07 8.5C-3.67218e-07 8.59904 0.0209328 8.69705 0.0615292 8.78808C0.102126 8.87911 0.16154 8.96128 0.236171 9.0296Z" fill="black"/>
<path d="M10.1889 8.37383L16.9778 13.8574C17.091 13.9489 17.2415 14 17.398 14C17.5545 14 17.705 13.9489 17.8183 13.8574L17.8256 13.8512C17.8807 13.8068 17.9246 13.7534 17.9546 13.6942C17.9845 13.635 18 13.5712 18 13.5068C18 13.4424 17.9845 13.3786 17.9546 13.3194C17.9246 13.2602 17.8807 13.2068 17.8256 13.1624L11.4327 7.99897L17.8256 2.83761C17.8807 2.79323 17.9246 2.73981 17.9546 2.68061C17.9845 2.6214 18 2.55764 18 2.49321C18 2.42877 17.9845 2.36502 17.9546 2.30581C17.9246 2.2466 17.8807 2.19318 17.8256 2.14881L17.8183 2.14261C17.705 2.05107 17.5545 2 17.398 2C17.2415 2 17.091 2.05107 16.9777 2.14261L10.1889 7.62617C10.1292 7.67439 10.0817 7.73239 10.0492 7.79665C10.0167 7.86091 10 7.93009 10 8C10 8.06991 10.0167 8.13909 10.0492 8.20335C10.0817 8.26761 10.1292 8.32561 10.1889 8.37383Z" fill="black" fill-opacity="0.5"/>
<path d="M21.1417 8.31153L26.2333 12.8812C26.3183 12.9574 26.4311 13 26.5485 13C26.6659 13 26.7788 12.9574 26.8637 12.8812L26.8692 12.876C26.9105 12.839 26.9434 12.7945 26.9659 12.7452C26.9884 12.6958 27 12.6427 27 12.589C27 12.5353 26.9884 12.4822 26.9659 12.4328C26.9434 12.3835 26.9105 12.339 26.8692 12.302L22.0745 7.99914L26.8692 3.69801C26.9105 3.66102 26.9434 3.61651 26.9659 3.56717C26.9884 3.51783 27 3.4647 27 3.411C27 3.35731 26.9884 3.30418 26.9659 3.25484C26.9434 3.2055 26.9105 3.16099 26.8692 3.12401L26.8637 3.11884C26.7788 3.04256 26.6659 3 26.5485 3C26.4311 3 26.3183 3.04256 26.2333 3.11884L21.1417 7.68847C21.0969 7.72866 21.0613 7.77699 21.0369 7.83054C21.0126 7.88409 21 7.94174 21 8C21 8.05826 21.0126 8.11591 21.0369 8.16946C21.0613 8.22301 21.0969 8.27134 21.1417 8.31153Z" fill="black" fill-opacity="0.2"/>
</svg>
