<svg width="27" height="17" viewBox="0 0 27 17" fill="none" xmlns="http://www.w3.org/2000/svg">
<path d="M26.7638 9.0296L18.2778 16.798C18.1362 16.9277 17.9481 17 17.7525 17C17.5569 17 17.3687 16.9277 17.2271 16.798L17.218 16.7892C17.1491 16.7263 17.0943 16.6506 17.0568 16.5668C17.0193 16.4829 17 16.3926 17 16.3013C17 16.21 17.0193 16.1197 17.0568 16.0358C17.0943 15.9519 17.1491 15.8763 17.218 15.8134L25.2092 8.49854L17.218 1.18661C17.1491 1.12374 17.0943 1.04807 17.0568 0.964189C17.0193 0.880313 17 0.789989 17 0.698709C17 0.607429 17.0193 0.517105 17.0568 0.433227C17.0943 0.349351 17.1491 0.273677 17.218 0.210807L17.2271 0.20203C17.3687 0.0723453 17.5569 -4.12773e-07 17.7525 -4.04222e-07C17.9481 -3.95671e-07 18.1362 0.0723453 18.2778 0.20203L26.7638 7.9704C26.8385 8.03872 26.8979 8.12089 26.9385 8.21192C26.9791 8.30296 27 8.40096 27 8.5C27 8.59904 26.9791 8.69705 26.9385 8.78808C26.8979 8.87911 26.8385 8.96128 26.7638 9.0296Z" fill="black"/>
<path d="M16.8111 8.37383L10.0222 13.8574C9.90898 13.9489 9.75848 14 9.60198 14C9.44549 14 9.29499 13.9489 9.18172 13.8574L9.17441 13.8512C9.11931 13.8068 9.07543 13.7534 9.04544 13.6942C9.01546 13.635 9 13.5712 9 13.5068C9 13.4424 9.01546 13.3786 9.04544 13.3194C9.07543 13.2602 9.11931 13.2068 9.17441 13.1624L15.5673 7.99897L9.17441 2.83761C9.11931 2.79323 9.07543 2.73981 9.04544 2.68061C9.01546 2.6214 9 2.55764 9 2.49321C9 2.42877 9.01546 2.36502 9.04544 2.30581C9.07543 2.2466 9.11931 2.19318 9.17441 2.14881L9.18172 2.14261C9.29499 2.05107 9.44549 2 9.60198 2C9.75848 2 9.90898 2.05107 10.0223 2.14261L16.8111 7.62617C16.8708 7.67439 16.9183 7.73239 16.9508 7.79665C16.9833 7.86091 17 7.93009 17 8C17 8.06991 16.9833 8.13909 16.9508 8.20335C16.9183 8.26761 16.8708 8.32561 16.8111 8.37383Z" fill="black" fill-opacity="0.5"/>
<path d="M5.8583 8.31153L0.766687 12.8812C0.681732 12.9574 0.568861 13 0.451488 13C0.334115 13 0.221245 12.9574 0.13629 12.8812L0.130807 12.876C0.0894795 12.839 0.0565715 12.7945 0.0340839 12.7452C0.0115962 12.6958 -4.61219e-07 12.6427 -4.58872e-07 12.589C-4.56525e-07 12.5353 0.0115962 12.4822 0.0340839 12.4328C0.0565715 12.3835 0.0894795 12.339 0.130807 12.302L4.92549 7.99914L0.130808 3.69801C0.0894799 3.66102 0.0565719 3.61651 0.0340843 3.56717C0.0115966 3.51783 -6.00359e-08 3.4647 -5.76889e-08 3.411C-5.53418e-08 3.35731 0.0115966 3.30418 0.0340843 3.25484C0.0565719 3.2055 0.0894799 3.16099 0.130808 3.12401L0.13629 3.11884C0.221246 3.04256 0.334115 3 0.451488 3C0.568862 3 0.681732 3.04256 0.766688 3.11884L5.8583 7.68847C5.90308 7.72866 5.93872 7.77699 5.96308 7.83054C5.98744 7.88409 6 7.94174 6 8C6 8.05826 5.98744 8.11591 5.96308 8.16946C5.93872 8.22301 5.90308 8.27134 5.8583 8.31153Z" fill="black" fill-opacity="0.2"/>
</svg>
