<svg width="22" height="22" viewBox="0 0 22 22" fill="none" xmlns="http://www.w3.org/2000/svg">
<path d="M11 0C4.92545 0 0 4.92545 0 11C0 17.0746 4.92545 22 11 22C17.0746 22 22 17.0746 22 11C22 4.92545 17.0746 0 11 0ZM11 20.1339C5.9567 20.1339 1.86607 16.0433 1.86607 11C1.86607 5.9567 5.9567 1.86607 11 1.86607C16.0433 1.86607 20.1339 5.9567 20.1339 11C20.1339 16.0433 16.0433 20.1339 11 20.1339Z" fill="white"/>
<path d="M14.5942 14.2757L11.4823 11.7526V5.69578C11.4823 5.5881 11.4038 5.5 11.3077 5.5H10.2581C10.1621 5.5 10.0835 5.5881 10.0835 5.69578V12.4354C10.0835 12.499 10.1097 12.5578 10.1555 12.5945L13.765 15.5458C13.8435 15.6095 13.9527 15.5899 14.0094 15.5042L14.6335 14.5498C14.6903 14.4593 14.6728 14.3369 14.5942 14.2757Z" fill="white"/>
</svg>
