<svg width="17" height="17" viewBox="0 0 17 17" fill="none" xmlns="http://www.w3.org/2000/svg">
<path d="M8.74902 0.987671C4.33117 0.987671 0.749023 4.56981 0.749023 8.98767C0.749023 13.4055 4.33117 16.9877 8.74902 16.9877C13.1669 16.9877 16.749 13.4055 16.749 8.98767C16.749 4.56981 13.1669 0.987671 8.74902 0.987671ZM8.74902 15.6305C5.08117 15.6305 2.10617 12.6555 2.10617 8.98767C2.10617 5.31981 5.08117 2.34481 8.74902 2.34481C12.4169 2.34481 15.3919 5.31981 15.3919 8.98767C15.3919 12.6555 12.4169 15.6305 8.74902 15.6305Z" fill="white"/>
<path d="M11.3631 11.37L9.09985 9.53505V5.13005C9.09985 5.05174 9.04272 4.98767 8.97288 4.98767H8.20949C8.13966 4.98767 8.08252 5.05174 8.08252 5.13005V10.0316C8.08252 10.0779 8.10156 10.1206 8.13489 10.1473L10.76 12.2937C10.8171 12.34 10.8965 12.3258 10.9377 12.2635L11.3916 11.5693C11.4329 11.5035 11.4202 11.4145 11.3631 11.37Z" fill="white"/>
</svg>
