<svg width="19" height="18" viewBox="0 0 19 18" fill="none" xmlns="http://www.w3.org/2000/svg">
<path d="M16.4148 3.00002C16.3467 2.993 16.278 2.993 16.2098 3.00002H2.20982C2.1201 3.0014 2.03096 3.01485 1.94482 3.04002L9.16982 10.235L16.4148 3.00002Z" fill="white"/>
<path d="M17.1548 3.69507L9.87484 10.9451C9.68748 11.1313 9.43403 11.2359 9.16984 11.2359C8.90566 11.2359 8.65221 11.1313 8.46484 10.9451L1.24984 3.75007C1.22766 3.83159 1.2159 3.91559 1.21484 4.00007V14.0001C1.21484 14.2653 1.3202 14.5196 1.50774 14.7072C1.69527 14.8947 1.94963 15.0001 2.21484 15.0001H16.2148C16.4801 15.0001 16.7344 14.8947 16.922 14.7072C17.1095 14.5196 17.2148 14.2653 17.2148 14.0001V4.00007C17.2109 3.8959 17.1906 3.79299 17.1548 3.69507ZM2.89984 14.0001H2.20484V13.2851L5.83984 9.68007L6.54484 10.3851L2.89984 14.0001ZM16.2048 14.0001H15.5048L11.8598 10.3851L12.5648 9.68007L16.1998 13.2851L16.2048 14.0001Z" fill="white"/>
</svg>
