<svg width="47" height="47" viewBox="0 0 47 47" fill="none" xmlns="http://www.w3.org/2000/svg">
<path d="M45 45L34.8475 34.8294M21.2368 13.3158V21.2368M21.2368 21.2368V29.1579M21.2368 21.2368H29.1579M21.2368 21.2368H13.3158M40.4737 21.2368C40.4737 26.3388 38.447 31.2317 34.8393 34.8393C31.2317 38.447 26.3388 40.4737 21.2368 40.4737C16.1349 40.4737 11.2419 38.447 7.63434 34.8393C4.02673 31.2317 2 26.3388 2 21.2368C2 16.1349 4.02673 11.2419 7.63434 7.63434C11.2419 4.02673 16.1349 2 21.2368 2C26.3388 2 31.2317 4.02673 34.8393 7.63434C38.447 11.2419 40.4737 16.1349 40.4737 21.2368V21.2368Z" stroke="white" stroke-opacity="0.4" stroke-width="3.07143" stroke-linecap="round"/>
</svg>
