<svg width="20" height="20" viewBox="0 0 20 20" fill="none" xmlns="http://www.w3.org/2000/svg">
<g clip-path="url(#clip0_258_148)">
<path d="M9.92859 0.783264C4.96199 0.783264 0.938477 4.80735 0.938477 9.77338C0.938477 14.7394 4.96257 18.7635 9.92859 18.7635C14.8952 18.7635 18.9187 14.7394 18.9187 9.77338C18.9187 4.80735 14.8946 0.783264 9.92859 0.783264ZM14.3442 6.94236L12.8686 13.8955C12.7596 14.3885 12.4661 14.508 12.0566 14.276L9.80911 12.6195L8.72507 13.6635C8.60559 13.783 8.50409 13.8845 8.27209 13.8845L8.43159 11.5969L12.5966 7.83383C12.7782 7.67433 12.5566 7.58385 12.3171 7.74335L7.16949 10.9839L4.95097 10.2913C4.46898 10.1394 4.45796 9.80934 5.05247 9.57733L13.7201 6.23475C14.1226 6.08975 14.4741 6.33277 14.3436 6.94178L14.3442 6.94236Z" fill="#FFCC00"/>
</g>
<defs>
<clipPath id="clip0_258_148">
<rect width="18.5602" height="18.5602" fill="white" transform="translate(0.648438 0.493286)"/>
</clipPath>
</defs>
</svg>
