<svg width="20" height="20" fill="none" xmlns="http://www.w3.org/2000/svg"><path d="M19.428 2.734a.754.754 0 00-1.066-.001L9.32 11.752 6.057 8.208a.754.754 0 00-1.11 1.021l3.795 4.12a.753.753 0 00.538.244h.016c.2 0 .391-.08.532-.22L19.426 3.8a.754.754 0 00.002-1.066z" fill="#6A6A6A"/><path d="M19.246 9.246a.754.754 0 00-.753.754c0 4.683-3.81 8.492-8.493 8.492S1.508 14.682 1.508 10c0-4.683 3.81-8.492 8.492-8.492A.754.754 0 1010 0C4.486 0 0 4.486 0 10s4.486 10 10 10 10-4.486 10-10a.754.754 0 00-.754-.754z" fill="#6A6A6A"/></svg>