<svg width="64" height="23" fill="none" xmlns="http://www.w3.org/2000/svg"><path d="M.662 22.458l5.261-2.378-4.69-3.367-.571 5.745zm62.725-7.643l-1.955-5.433-3.727 4.41 5.682 1.023zM5.912 16.432a63.551 63.551 0 013.583-3.884l-.705-.71a64.565 64.565 0 00-3.64 3.946l.762.648zm7.5-7.41A40.878 40.878 0 0117.7 5.98l-.523-.852a41.87 41.87 0 00-4.392 3.116l.628.778zm8.956-5.44a29.07 29.07 0 014.986-1.572l-.212-.977a30.07 30.07 0 00-5.157 1.626l.383.923zm10.174-2.196a29.22 29.22 0 015.218.345l.153-.989c-1.808-.28-3.607-.4-5.396-.355l.025 1zm10.322 1.56c1.62.516 3.25 1.159 4.893 1.924l.422-.906a42.315 42.315 0 00-5.01-1.971l-.305.952zm9.552 4.405a64.465 64.465 0 014.42 2.904l.582-.813a65.434 65.434 0 00-4.49-2.949l-.512.858z" fill="#838383"/></svg>