<svg width="79" height="31" fill="none" xmlns="http://www.w3.org/2000/svg"><path d="M0 15.75l5.743-.594-3.386-4.676L0 15.75zM79 31l-.205-5.77-4.894 3.062L79 31zM6.759 11.703a89.715 89.715 0 014.496-2.68l-.485-.873a90.662 90.662 0 00-4.547 2.709l.536.844zm9.128-5.056a64.187 64.187 0 014.804-2.027l-.35-.936a65.166 65.166 0 00-4.878 2.058l.425.905zm9.759-3.619a46.411 46.411 0 015.08-1.067l-.149-.989c-1.704.258-3.434.62-5.19 1.09l.259.966zM35.889 1.51a36.99 36.99 0 015.17.24l.117-.993a38.164 38.164 0 00-5.31-.247l.023 1zM46.14 2.72a36.967 36.967 0 014.894 1.685l.39-.921a37.967 37.967 0 00-5.026-1.73l-.258.966zm9.523 4.014a45.859 45.859 0 014.321 2.877l.6-.8a46.858 46.858 0 00-4.416-2.94l-.505.863zm8.323 6.196a63.378 63.378 0 013.697 3.672l.732-.681a64.41 64.41 0 00-3.755-3.73l-.674.74zm7.114 7.622a88.774 88.774 0 013.151 4.153l.814-.581a89.83 89.83 0 00-3.187-4.2l-.778.628z" fill="#838383"/></svg>