<svg width="128" height="49" fill="none" xmlns="http://www.w3.org/2000/svg"><path d="M.5 24.502l5.746-.566-3.363-4.693L.5 24.502zM128 48.659l-.23-5.769-4.881 3.084L128 48.66zM7.474 20.265a162.827 162.827 0 014.55-2.905l-.524-.852a163.967 163.967 0 00-4.578 2.923l.552.834zm9.198-5.65c1.596-.903 3.18-1.757 4.75-2.563l-.456-.89a133.994 133.994 0 00-4.786 2.583l.492.87zm9.607-4.921a107.537 107.537 0 014.962-2.124l-.37-.93a108.626 108.626 0 00-5.008 2.144l.416.91zm10.027-3.982a87.201 87.201 0 015.161-1.555l-.258-.966a88.2 88.2 0 00-5.22 1.573l.318.948zm10.405-2.77a72.151 72.151 0 015.308-.837l-.118-.993a73.16 73.16 0 00-5.383.848l.193.982zm10.67-1.26a62.205 62.205 0 015.38.023l.047-.999a63.756 63.756 0 00-5.464-.024l.038 1zm10.728.516a59.23 59.23 0 015.283.973l.226-.974c-1.77-.41-3.56-.74-5.372-.99l-.137.991zm10.457 2.42a61.681 61.681 0 015.028 1.9l.394-.92a62.685 62.685 0 00-5.11-1.93l-.312.95zm9.88 4.221c1.568.83 3.117 1.73 4.65 2.699l.534-.845a71.045 71.045 0 00-4.715-2.737l-.468.883zm9.094 5.737a84.462 84.462 0 014.238 3.336l.643-.766a85.547 85.547 0 00-4.289-3.375l-.592.805zm8.264 6.924a102.72 102.72 0 013.82 3.799l.723-.691a104.532 104.532 0 00-3.856-3.835l-.687.727zm7.452 7.785a129.464 129.464 0 013.455 4.148l.781-.624a130.47 130.47 0 00-3.481-4.18l-.755.656zm6.743 8.432a159.37 159.37 0 013.133 4.402l.824-.566a155.9 155.9 0 00-3.153-4.43l-.804.594z" fill="#838383"/></svg>