<svg width="16" height="16" fill="none" xmlns="http://www.w3.org/2000/svg"><path d="M14.594 1.906H1.406c-.216 0-.419.053-.602.141l7.165 7.165L9.575 7.67l5.621-5.622a1.39 1.39 0 00-.602-.14zm1.265.804L10.569 8l5.29 5.29a1.39 1.39 0 00.14-.602V3.313a1.39 1.39 0 00-.14-.602zM.14 2.71a1.39 1.39 0 00-.14.602v9.375c0 .217.053.42.14.603L5.43 8 .14 2.71z" fill="#6A6A6A"/><path d="M9.906 8.662L8.3 10.206a.467.467 0 01-.662 0L6.094 8.662l-5.29 5.29c.183.088.386.141.602.141h13.188c.216 0 .419-.053.602-.14l-5.29-5.29z" fill="#6A6A6A"/></svg>