<svg width="14" height="14" fill="none" xmlns="http://www.w3.org/2000/svg"><path d="M13.728 11.132l-1.552-1.034-1.38-.92a.611.611 0 00-.82.133l-.854 1.098a.608.608 0 01-.777.16c-.579-.322-1.264-.625-2.776-2.138C4.058 6.917 3.753 6.234 3.43 5.655a.608.608 0 01.161-.777l1.098-.853a.611.611 0 00.133-.821l-.891-1.337L2.868.272a.611.611 0 00-.823-.185L.819.823c-.331.195-.575.51-.68.88-.336 1.222-.403 3.919 3.918 8.24 4.322 4.321 7.018 4.254 8.24 3.918.37-.105.685-.349.88-.68l.736-1.226a.611.611 0 00-.185-.823z" fill="#6A6A6A"/></svg>