<svg width="30" height="30" fill="none" xmlns="http://www.w3.org/2000/svg"><path d="M24.226 0H4.774c-.47 0-.921.192-1.254.533-.332.34-.52.802-.52 1.283v26.368c0 .481.188.943.52 1.283.333.34.783.532 1.254.533h19.452c.47 0 .921-.192 1.254-.533.332-.34.52-.802.52-1.283V1.816c0-.482-.188-.943-.52-1.284A1.755 1.755 0 0024.226 0zm.973 28.183c0 .264-.103.517-.285.704a.962.962 0 01-.688.292H4.774a.962.962 0 01-.688-.292 1.01 1.01 0 01-.285-.704V1.816c0-.264.103-.517.285-.704A.962.962 0 014.774.82h19.452c.258 0 .506.106.688.292.182.187.285.44.285.704v26.367z" fill="#423A2A"/><path d="M23.31 2.344H5.69a.392.392 0 00-.284.12.41.41 0 00-.117.29V7.91a.419.419 0 00.117.29.4.4 0 00.283.12h17.622a.392.392 0 00.283-.12.41.41 0 00.117-.29V2.754a.417.417 0 00-.117-.29.4.4 0 00-.283-.12zm-.4 5.156H6.09V3.164h16.82V7.5zm-6.236 15.357h-4.348a.396.396 0 00-.283.12.415.415 0 00-.118.29v3.978a.419.419 0 00.117.29.4.4 0 00.284.121h4.348a.39.39 0 00.283-.12.41.41 0 00.118-.29v-3.979a.415.415 0 00-.118-.29.396.396 0 00-.283-.12zm-.4 3.979h-3.548v-3.159h3.547v3.159zm-6.23-3.979H5.689a.396.396 0 00-.283.12.415.415 0 00-.117.29v3.978a.419.419 0 00.116.29.4.4 0 00.284.121h4.355a.391.391 0 00.283-.12.41.41 0 00.117-.29v-3.979a.415.415 0 00-.117-.29.395.395 0 00-.283-.12zm-.4 3.979H6.09v-3.159h3.553v3.159zm7.03-10.485h-4.348a.393.393 0 00-.283.12.41.41 0 00-.118.29v3.978a.417.417 0 00.118.29.4.4 0 00.283.12h4.348a.393.393 0 00.283-.12.41.41 0 00.118-.29v-3.977a.417.417 0 00-.118-.29.4.4 0 00-.283-.12zm-.4 3.978h-3.548v-3.157h3.548v3.157zm-6.23-3.978H5.689a.393.393 0 00-.283.12.41.41 0 00-.117.29v3.978a.419.419 0 00.117.29.4.4 0 00.283.12h4.355a.393.393 0 00.283-.12.41.41 0 00.117-.29v-3.977a.417.417 0 00-.117-.29.4.4 0 00-.283-.12zm-.4 3.978H6.09v-3.157h3.553v3.157zm13.666-3.978h-4.354a.393.393 0 00-.283.12.41.41 0 00-.117.29v10.484a.42.42 0 00.117.29.4.4 0 00.283.12h4.355a.39.39 0 00.283-.12.41.41 0 00.117-.29V16.762a.417.417 0 00-.117-.29.4.4 0 00-.283-.12zm-.4 10.484h-3.553v-9.663h3.553v9.663zM16.674 9.846h-4.348a.392.392 0 00-.283.12.41.41 0 00-.118.29v3.978a.418.418 0 00.118.29.4.4 0 00.283.12h4.348a.39.39 0 00.283-.12.411.411 0 00.118-.29v-3.978a.417.417 0 00-.118-.29.4.4 0 00-.283-.12zm-.4 3.977h-3.548v-3.157h3.547v3.157zm-6.23-3.977H5.689a.392.392 0 00-.283.12.411.411 0 00-.117.29v3.978a.419.419 0 00.117.29.4.4 0 00.283.12h4.355a.391.391 0 00.283-.12.411.411 0 00.117-.29v-3.978a.417.417 0 00-.117-.29.4.4 0 00-.283-.12zm-.4 3.977H6.09v-3.157h3.553v3.157zM23.31 9.846h-4.354a.392.392 0 00-.283.12.41.41 0 00-.117.29v3.978a.42.42 0 00.117.29.4.4 0 00.283.12h4.355a.39.39 0 00.283-.12.411.411 0 00.117-.29v-3.978a.417.417 0 00-.117-.29.4.4 0 00-.283-.12zm-.4 3.977h-3.553v-3.157h3.553v3.157z" fill="#423A2A"/></svg>