<svg width="65" height="65" fill="none" xmlns="http://www.w3.org/2000/svg"><path d="M51.322 40.043c-1.275-2.66-5.839-6.351-10.248-9.918-2.459-1.988-4.783-3.868-6.264-5.35a1.354 1.354 0 00-1.417-.316c-.912.33-1.476.585-1.92.783-.677.303-.904.406-1.817.498a1.35 1.35 0 00-.991.593c-1.915 2.863-3.898 2.619-5.222 2.175-.423-.14-.498-.322-.539-.496-.284-1.189 1.143-3.957 2.993-5.806 4.4-4.404 6.67-5.507 11.464-3.364 5.438 2.432 10.888 4.336 10.942 4.355a1.353 1.353 0 001.725-.834 1.357 1.357 0 00-.834-1.726c-.055-.018-5.395-1.885-10.725-4.27-6.21-2.777-9.618-.949-14.485 3.921-1.852 1.852-4.368 5.6-3.718 8.35.279 1.17 1.102 2.037 2.326 2.44 3.069 1.013 5.87.043 7.955-2.724.861-.133 1.33-.328 2.034-.645.254-.114.552-.247.948-.406 1.549 1.454 3.64 3.147 5.841 4.926 3.982 3.22 8.497 6.871 9.512 8.984.501 1.042-.038 1.722-.403 2.034-.537.46-1.27.606-1.669.327a1.356 1.356 0 00-2.115 1.26c.092.86-.696 1.354-1.037 1.524-.867.44-1.772.363-2.11.05a1.354 1.354 0 00-2.272.864c-.082.887-.74 1.74-1.598 2.074-.415.157-1.016.252-1.555-.241a1.37 1.37 0 00-1.237-.315 1.352 1.352 0 00-.951.854c-.052.135-.168.46-1.436.46-.902 0-2.524-.61-3.317-1.135-.95-.626-6.912-5.072-12.06-9.384-.724-.61-1.975-1.915-3.08-3.069-.98-1.024-1.877-1.953-2.337-2.343a1.348 1.348 0 00-1.91.16 1.356 1.356 0 00.16 1.91c.42.355 1.233 1.213 2.13 2.147 1.207 1.262 2.455 2.568 3.295 3.272 5.043 4.222 11.104 8.78 12.312 9.574.997.656 3.145 1.576 4.807 1.576 1.336 0 2.362-.306 3.074-.904.954.37 2.037.373 3.08-.033 1.232-.477 2.245-1.438 2.82-2.602 1.066.227 2.288.067 3.398-.49 1.086-.548 1.871-1.385 2.261-2.362 1.079.057 2.189-.325 3.107-1.113 1.555-1.33 1.983-3.4 1.084-5.265z" fill="url(#paint0_linear)"/><path d="M27.084 17.604H14.896a1.355 1.355 0 000 2.708h12.188a1.355 1.355 0 000-2.709z" fill="url(#paint1_linear)"/><path d="M55.29 37.16a1.35 1.35 0 00-1.88-.368l-3.959 2.66a1.355 1.355 0 001.511 2.248l3.96-2.66c.62-.417.785-1.26.368-1.88z" fill="url(#paint2_linear)"/><path d="M46.884 43.623c-.97-.764-5.306-5.203-7.987-7.998a1.35 1.35 0 00-1.915-.04 1.353 1.353 0 00-.04 1.914c.696.726 6.835 7.126 8.263 8.252.246.195.544.29.837.29a1.353 1.353 0 00.842-2.419z" fill="url(#paint3_linear)"/><path d="M41.473 46.34c-1.622-1.298-5.698-5.629-6.62-6.63a1.356 1.356 0 00-1.996 1.834c.05.05 4.914 5.302 6.923 6.91a1.36 1.36 0 001.904-.21 1.357 1.357 0 00-.211-1.905z" fill="url(#paint4_linear)"/><path d="M36.084 49.067c-1.932-1.628-5.883-5.834-6.655-6.66a1.354 1.354 0 10-1.98 1.85c1.11 1.189 4.892 5.197 6.888 6.882a1.35 1.35 0 001.909-.163 1.356 1.356 0 00-.163-1.91z" fill="url(#paint5_linear)"/><path d="M15.828 15.266c-2.322-2.2-11.603-2.912-14.393-3.077A1.353 1.353 0 000 13.541v24.375c0 .747.607 1.354 1.354 1.354H9.48c.585 0 1.105-.376 1.287-.934.197-.607 4.864-14.929 5.478-21.97a1.347 1.347 0 00-.416-1.1zM8.49 36.562H2.708v-21.57c4.353.344 9.049 1.092 10.755 1.92-.717 5.932-3.965 16.47-4.972 19.65z" fill="url(#paint6_linear)"/><path d="M63.646 14.896c-10.633 0-16.532 2.721-16.778 2.835a1.348 1.348 0 00-.724.842c-.108.372-.054.77.15 1.1 1.673 2.695 6.914 17.661 7.921 21.312.163.587.696.994 1.306.994h8.125c.747 0 1.354-.607 1.354-1.354V16.25c0-.75-.607-1.354-1.354-1.354zM62.292 39.27h-5.758c-1.284-4.181-5.076-15.085-7.19-19.592 2.066-.701 6.505-1.906 12.948-2.058v21.65z" fill="url(#paint7_linear)"/><defs><linearGradient id="paint0_linear" x1="30.631" y1="15.065" x2="30.631" y2="52.812" gradientUnits="userSpaceOnUse"><stop stop-color="#FFE5AC"/><stop offset="1" stop-color="#D6B56E"/></linearGradient><linearGradient id="paint1_linear" x1="20.99" y1="17.604" x2="20.99" y2="20.312" gradientUnits="userSpaceOnUse"><stop stop-color="#FFE5AC"/><stop offset="1" stop-color="#D6B56E"/></linearGradient><linearGradient id="paint2_linear" x1="52.187" y1="36.56" x2="52.187" y2="41.93" gradientUnits="userSpaceOnUse"><stop stop-color="#FFE5AC"/><stop offset="1" stop-color="#D6B56E"/></linearGradient><linearGradient id="paint3_linear" x1="41.982" y1="35.206" x2="41.982" y2="46.041" gradientUnits="userSpaceOnUse"><stop stop-color="#FFE5AC"/><stop offset="1" stop-color="#D6B56E"/></linearGradient><linearGradient id="paint4_linear" x1="37.24" y1="39.272" x2="37.24" y2="48.75" gradientUnits="userSpaceOnUse"><stop stop-color="#FFE5AC"/><stop offset="1" stop-color="#D6B56E"/></linearGradient><linearGradient id="paint5_linear" x1="31.825" y1="41.977" x2="31.825" y2="51.458" gradientUnits="userSpaceOnUse"><stop stop-color="#FFE5AC"/><stop offset="1" stop-color="#D6B56E"/></linearGradient><linearGradient id="paint6_linear" x1="8.125" y1="12.188" x2="8.125" y2="39.27" gradientUnits="userSpaceOnUse"><stop stop-color="#FFE5AC"/><stop offset="1" stop-color="#D6B56E"/></linearGradient><linearGradient id="paint7_linear" x1="55.545" y1="14.896" x2="55.545" y2="41.979" gradientUnits="userSpaceOnUse"><stop stop-color="#FFE5AC"/><stop offset="1" stop-color="#D6B56E"/></linearGradient></defs></svg>