<svg width="30" height="30" fill="none" xmlns="http://www.w3.org/2000/svg"><path d="M29.213 23.144l-6.072-4.05a1.772 1.772 0 00-2.373.386l-1.77 2.274a.756.756 0 01-.969.204l-.336-.185c-1.115-.608-2.503-1.365-5.3-4.163-2.795-2.797-3.554-4.186-4.162-5.3l-.184-.336a.757.757 0 01.2-.973l2.273-1.768c.727-.57.895-1.602.385-2.373L6.856.787A1.763 1.763 0 004.479.252L1.94 1.778a3.582 3.582 0 00-1.633 2.12c-.914 3.33-.226 9.08 8.243 17.552C15.288 28.188 20.304 30 23.751 30c.794.003 1.584-.1 2.35-.307a3.579 3.579 0 002.12-1.633l1.526-2.538a1.763 1.763 0 00-.534-2.378zm-.327 1.865l-1.523 2.54a2.586 2.586 0 01-1.525 1.181c-3.076.845-8.449.145-16.58-7.987C1.126 12.611.428 7.238 1.27 4.162a2.588 2.588 0 011.184-1.527l2.539-1.523a.765.765 0 011.031.232l2.2 3.302 1.846 2.77a.77.77 0 01-.167 1.03L7.63 10.214a1.75 1.75 0 00-.463 2.246l.18.328c.64 1.172 1.433 2.63 4.333 5.53 2.9 2.9 4.358 3.694 5.53 4.332l.328.181a1.75 1.75 0 002.245-.463l1.768-2.273a.77.77 0 011.03-.167l6.072 4.05c.34.226.443.68.232 1.03z" fill="#423A2A"/></svg>