<svg width="15" height="15" fill="none" xmlns="http://www.w3.org/2000/svg"><path d="M7.5 15C3.364 15 0 11.636 0 7.5S3.364 0 7.5 0 15 3.364 15 7.5 11.636 15 7.5 15zM7.5.937A6.57 6.57 0 00.937 7.5 6.57 6.57 0 007.5 14.063 6.57 6.57 0 0014.063 7.5 6.57 6.57 0 007.5.937z" fill="#D6B56E"/><path d="M10.781 7.969H4.22a.469.469 0 010-.938h6.562a.469.469 0 010 .938z" fill="#D6B56E"/><path d="M7.5 11.25a.469.469 0 01-.469-.469V4.22a.469.469 0 01.938 0v6.562c0 .259-.21.469-.469.469z" fill="#D6B56E"/></svg>