<svg width="30" height="30" fill="none" xmlns="http://www.w3.org/2000/svg"><g clip-path="url(#clip0)" fill="#423A2A"><path d="M15.614 3.71l-6.95-1.462a4.596 4.596 0 00-3.39.597L3.366.64a.669.669 0 00-.939-.086.669.669 0 00-.05.941L4.284 3.7A4.511 4.511 0 003.21 6.964l.437 7.102c.043.619.284 1.218.697 1.696l11.103 12.84c1.009 1.157 2.732 1.31 3.845.34l.01-.01 8.767-7.58c1.127-.956 1.233-2.682.239-3.852l-.01-.01L17.196 4.65a2.937 2.937 0 00-1.582-.94zM9.11 8.281c.796-.688 2.017-.576 2.732.25.715.828.65 2.052-.146 2.74-.796.689-2.017.577-2.732-.25-.71-.823-.65-2.052.146-2.74zM27.314 18.34c.52.6.45 1.479-.13 1.979l-8.772 7.585c-.578.5-1.457.443-1.977-.158L5.332 14.907a1.46 1.46 0 01-.359-.875l-.442-7.098a3.262 3.262 0 01.655-2.191l2.586 2.99c-1.071 1.42-.757 3.483.697 4.615 1.454 1.131 3.495.893 4.566-.527 1.07-1.42.756-3.483-.698-4.614-1.046-.81-2.45-.944-3.576-.329l-2.586-2.99a3.22 3.22 0 012.258-.327l6.96 1.453c.317.067.605.24.818.486l11.103 12.84z"/><path d="M20.209 17.929c-.835-.526-1.895-.463-2.617.162-.366.316-.93.264-1.258-.116-.33-.38-.299-.945.067-1.261.366-.317.93-.265 1.258.115a.669.669 0 00.939.086.669.669 0 00.05-.941c-.649-.75-1.692-1.007-2.575-.639l-.195-.226a.669.669 0 00-.939-.086.669.669 0 00-.05.941l.196.227c-.627 1.035-.276 2.42.778 3.089.835.526 1.895.462 2.617-.162.366-.316.93-.264 1.258.116.329.38.299.945-.067 1.261-.366.317-.93.265-1.258-.115a.669.669 0 00-.939-.086.669.669 0 00-.05.94c.649.751 1.691 1.008 2.574.64l.222.256a.669.669 0 00.94.087.669.669 0 00.05-.942l-.223-.257c.626-1.035.276-2.42-.778-3.089z"/></g><defs><clipPath id="clip0"><path fill="#fff" d="M0 0h30v30H0z"/></clipPath></defs></svg>