<svg width="65" height="65" fill="none" xmlns="http://www.w3.org/2000/svg"><g clip-path="url(#clip0)"><path d="M17.604 17.605c-3.732 0-6.771 3.038-6.771 6.77 0 3.732 3.039 6.771 6.77 6.771 3.733 0 6.772-3.039 6.772-6.77 0-3.733-3.04-6.771-6.771-6.771zm0 10.833a4.067 4.067 0 01-4.063-4.063 4.067 4.067 0 014.063-4.062 4.067 4.067 0 014.062 4.062 4.068 4.068 0 01-4.062 4.063z" fill="url(#paint0_linear)"/><path d="M17.605 28.438c-6.72 0-12.188 5.468-12.188 12.187 0 .748.607 1.354 1.354 1.354h21.667c.747 0 1.354-.606 1.354-1.354 0-6.72-5.468-12.188-12.188-12.188zM8.223 39.27c.658-4.588 4.617-8.125 9.384-8.125s8.724 3.537 9.382 8.125H8.223z" fill="url(#paint1_linear)"/><path d="M58.229 20.313H36.562a1.355 1.355 0 000 2.708H58.23a1.355 1.355 0 000-2.709z" fill="url(#paint2_linear)"/><path d="M50.104 28.438H36.562a1.355 1.355 0 000 2.708h13.542a1.355 1.355 0 000-2.709z" fill="url(#paint3_linear)"/><path d="M58.229 36.563H36.562a1.355 1.355 0 000 2.708H58.23a1.355 1.355 0 000-2.709z" fill="url(#paint4_linear)"/><path d="M63.646 12.188H1.354c-.747 0-1.354.606-1.354 1.354v37.916c0 .748.607 1.355 1.354 1.355H9.48c.748 0 1.354-.607 1.354-1.355 0-.192.07-.403.225-.66a1.35 1.35 0 000-1.384c-.154-.26-.225-.472-.225-.664a1.355 1.355 0 012.709 0c0 .192-.07.404-.225.66a1.35 1.35 0 000 1.385c.154.26.225.471.225.663 0 .748.607 1.355 1.354 1.355h8.125c.747 0 1.354-.607 1.354-1.355 0-.192.07-.403.225-.66a1.35 1.35 0 000-1.384c-.155-.26-.225-.472-.225-.664a1.355 1.355 0 012.708 0c0 .192-.07.404-.224.66a1.35 1.35 0 000 1.385c.154.26.224.471.224.663 0 .748.607 1.355 1.355 1.355h8.125c.747 0 1.354-.607 1.354-1.355 0-.192.07-.403.225-.66a1.35 1.35 0 000-1.384c-.155-.26-.225-.472-.225-.664a1.355 1.355 0 012.708 0c0 .192-.07.404-.225.66a1.35 1.35 0 000 1.385c.154.26.225.471.225.663 0 .748.607 1.355 1.354 1.355h8.125c.748 0 1.354-.607 1.354-1.355 0-.192.07-.403.225-.66a1.35 1.35 0 000-1.384c-.154-.26-.225-.472-.225-.664a1.355 1.355 0 012.709 0c0 .192-.07.404-.225.66a1.35 1.35 0 000 1.385c.154.26.225.471.225.663 0 .748.606 1.355 1.354 1.355h8.125c.748 0 1.354-.607 1.354-1.355V13.542c0-.748-.607-1.354-1.354-1.354zm-1.354 37.916h-5.68a3.67 3.67 0 00.263-1.354 4.067 4.067 0 00-4.063-4.063 4.067 4.067 0 00-4.062 4.063c0 .458.087.904.263 1.354H43.07c.176-.45.262-.896.262-1.354a4.067 4.067 0 00-4.062-4.063 4.067 4.067 0 00-4.063 4.063c0 .458.087.904.263 1.354h-5.942a3.67 3.67 0 00.263-1.354 4.067 4.067 0 00-4.063-4.063 4.067 4.067 0 00-4.062 4.063c0 .458.086.904.262 1.354h-5.942a3.67 3.67 0 00.263-1.354 4.067 4.067 0 00-4.063-4.063 4.067 4.067 0 00-4.062 4.063c0 .458.087.904.263 1.354h-5.68V14.896h59.584v35.208z" fill="url(#paint5_linear)"/></g><defs><linearGradient id="paint0_linear" x1="17.604" y1="17.605" x2="17.604" y2="31.146" gradientUnits="userSpaceOnUse"><stop stop-color="#FFE5AC"/><stop offset="1" stop-color="#D6B56E"/></linearGradient><linearGradient id="paint1_linear" x1="17.605" y1="28.438" x2="17.605" y2="41.979" gradientUnits="userSpaceOnUse"><stop stop-color="#FFE5AC"/><stop offset="1" stop-color="#D6B56E"/></linearGradient><linearGradient id="paint2_linear" x1="47.396" y1="20.313" x2="47.396" y2="23.021" gradientUnits="userSpaceOnUse"><stop stop-color="#FFE5AC"/><stop offset="1" stop-color="#D6B56E"/></linearGradient><linearGradient id="paint3_linear" x1="43.333" y1="28.438" x2="43.333" y2="31.146" gradientUnits="userSpaceOnUse"><stop stop-color="#FFE5AC"/><stop offset="1" stop-color="#D6B56E"/></linearGradient><linearGradient id="paint4_linear" x1="47.396" y1="36.563" x2="47.396" y2="39.271" gradientUnits="userSpaceOnUse"><stop stop-color="#FFE5AC"/><stop offset="1" stop-color="#D6B56E"/></linearGradient><linearGradient id="paint5_linear" x1="32.5" y1="12.188" x2="32.5" y2="52.813" gradientUnits="userSpaceOnUse"><stop stop-color="#FFE5AC"/><stop offset="1" stop-color="#D6B56E"/></linearGradient><clipPath id="clip0"><path fill="#fff" d="M0 0h65v65H0z"/></clipPath></defs></svg>