<svg width="27" height="17" fill="none" xmlns="http://www.w3.org/2000/svg"><path d="M.236 9.03l8.486 7.768c.142.13.33.202.526.202a.778.778 0 00.525-.202l.009-.009a.674.674 0 00.218-.488.65.65 0 00-.218-.488L1.791 8.5l7.991-7.312A.673.673 0 0010 .699.65.65 0 009.782.21l-.01-.009A.778.778 0 009.249 0a.778.778 0 00-.526.202L.236 7.97A.732.732 0 000 8.5a.707.707 0 00.236.53z" fill="#000"/><path d="M10.189 8.374l6.789 5.483a.671.671 0 00.42.143.672.672 0 00.42-.143l.008-.006a.483.483 0 00.129-.157.415.415 0 000-.375.483.483 0 00-.13-.157L11.434 8l6.393-5.161a.483.483 0 00.129-.157.415.415 0 000-.375.483.483 0 00-.13-.157l-.007-.006a.672.672 0 00-.42-.143.672.672 0 00-.42.143l-6.79 5.483a.525.525 0 00-.139.17.45.45 0 000 .407c.033.065.08.123.14.17z" fill="#000" fill-opacity=".5"/><path d="M21.142 8.312l5.091 4.57a.473.473 0 00.316.118c.117 0 .23-.043.315-.119l.005-.005a.376.376 0 000-.574l-4.794-4.303 4.794-4.301A.397.397 0 0027 3.411a.376.376 0 00-.13-.287l-.006-.005A.472.472 0 0026.548 3a.472.472 0 00-.315.119l-5.091 4.57A.431.431 0 0021 8a.41.41 0 00.142.312z" fill="#000" fill-opacity=".2"/></svg>