<svg width="27" height="17" fill="none" xmlns="http://www.w3.org/2000/svg"><path d="M26.764 9.03l-8.486 7.768a.778.778 0 01-.525.202.778.778 0 01-.526-.202l-.009-.009a.674.674 0 01-.218-.488.65.65 0 01.218-.488L25.209 8.5l-7.991-7.312A.673.673 0 0117 .699a.65.65 0 01.218-.488l.01-.009A.778.778 0 0117.751 0c.196 0 .384.072.526.202l8.486 7.768A.731.731 0 0127 8.5a.707.707 0 01-.236.53z" fill="#000"/><path d="M16.811 8.374l-6.789 5.483a.671.671 0 01-.42.143.672.672 0 01-.42-.143l-.008-.006a.483.483 0 01-.129-.157.414.414 0 010-.375.483.483 0 01.13-.157L15.566 8 9.174 2.838a.483.483 0 01-.129-.157.414.414 0 010-.375.483.483 0 01.13-.157l.007-.006A.671.671 0 019.602 2c.156 0 .307.051.42.143l6.79 5.483a.537.537 0 01.139.17.45.45 0 010 .407.525.525 0 01-.14.17z" fill="#000" fill-opacity=".5"/><path d="M5.858 8.312l-5.091 4.57A.473.473 0 01.45 13a.473.473 0 01-.315-.119l-.005-.005a.377.377 0 010-.574l4.794-4.303L.131 3.698A.397.397 0 010 3.411a.376.376 0 01.13-.287l.006-.005A.472.472 0 01.451 3c.118 0 .23.043.316.119l5.091 4.57A.43.43 0 016 8a.409.409 0 01-.142.312z" fill="#000" fill-opacity=".2"/></svg>