<svg width="22" height="22" fill="none" xmlns="http://www.w3.org/2000/svg"><path d="M11 0C4.925 0 0 4.925 0 11s4.925 11 11 11 11-4.925 11-11S17.075 0 11 0zm0 20.134A9.135 9.135 0 011.866 11 9.136 9.136 0 0111 1.866 9.135 9.135 0 0120.134 11 9.135 9.135 0 0111 20.134z" fill="#fff"/><path d="M14.594 14.276l-3.112-2.523V5.696c0-.108-.078-.196-.174-.196h-1.05c-.096 0-.174.088-.174.196v6.74c0 .063.026.122.072.159l3.609 2.95a.164.164 0 00.244-.04l.624-.955c.057-.09.04-.213-.039-.274z" fill="#fff"/></svg>