<svg width="25" height="25" fill="none" xmlns="http://www.w3.org/2000/svg"><path d="M22.451 4.167c-.094-.01-.19-.01-.284 0H2.722c-.124.002-.248.02-.368.055l10.035 9.993L22.452 4.167z" fill="#fff"/><path d="M23.48 5.132l-10.112 10.07a1.389 1.389 0 01-1.958 0L1.389 5.207a1.39 1.39 0 00-.049.348v13.889a1.389 1.389 0 001.39 1.388h19.444a1.389 1.389 0 001.389-1.388V5.555a1.39 1.39 0 00-.084-.423zM3.68 19.445h-.965v-.994l5.049-5.007.98.98-5.063 5.02zm18.48 0h-.972l-5.063-5.021.98-.98 5.048 5.007.007.994z" fill="#fff"/></svg>