<svg width="20" height="20" fill="none" xmlns="http://www.w3.org/2000/svg"><g clip-path="url(#clip0_258_148)"><path d="M9.929.783a8.989 8.989 0 00-8.99 8.99 8.989 8.989 0 008.99 8.99 8.989 8.989 0 008.99-8.99 8.989 8.989 0 00-8.99-8.99zm4.415 6.16l-1.475 6.953c-.11.492-.403.612-.812.38L9.809 12.62l-1.084 1.044c-.12.119-.22.22-.453.22l.16-2.287 4.165-3.763c.181-.16-.04-.25-.28-.09l-5.148 3.24-2.218-.693c-.482-.152-.493-.482.101-.714l8.668-3.342c.403-.145.754.098.624.707z" fill="#FC0"/></g><defs><clipPath id="clip0_258_148"><path fill="#fff" transform="translate(.648 .493)" d="M0 0h18.56v18.56H0z"/></clipPath></defs></svg>